<?xml version="1.0" encoding="UTF-8" standalone="no"?>
<!DOCTYPE svg PUBLIC "-//W3C//DTD SVG 1.1//EN" "http://www.w3.org/Graphics/SVG/1.1/DTD/svg11.dtd">
<svg width="100%" height="100%" viewBox="0 0 129 129" version="1.1" xmlns="http://www.w3.org/2000/svg" xmlns:xlink="http://www.w3.org/1999/xlink" xml:space="preserve" xmlns:serif="http://www.serif.com/" style="fill-rule:evenodd;clip-rule:evenodd;stroke-linecap:round;stroke-linejoin:round;stroke-miterlimit:1.5;">
    <g transform="matrix(1,0,0,1,-135,-5318)">
        <g id="_1password" serif:id="1password" transform="matrix(1,0,0,1,135.557,5318.01)">
            <rect x="0" y="0" width="128" height="128"/>
            <g transform="matrix(1.06132,0,0,1.06132,-3.92439,-3.92439)">
                <g transform="matrix(1.04144,0,0,1,-136.838,-5315.14)">
                    <path d="M182.42,5335.41C160.958,5337.1 140.929,5381.71 161.067,5407.61C171.069,5420.46 184.121,5422.64 192.912,5423.67C194.576,5423.87 202.879,5424.84 213.712,5421.23C237.378,5413.34 238.137,5357.64 221.888,5344.35C203.413,5329.23 183.525,5335.86 182.42,5335.41Z" style="fill:none;stroke:white;stroke-width:1.85px;"/>
                </g>
                <g transform="matrix(1.33392,0,0,1.33392,-21.4419,-21.3709)">
                    <g transform="matrix(1,0,0,1,-135.557,-5318.01)">
                        <path d="M205.069,5370.92C214.76,5372.2 214.647,5384.17 213.206,5388.21C212.542,5390.07 211.219,5393.87 204.765,5395.06" style="fill:none;stroke:white;stroke-width:1.41px;"/>
                    </g>
                    <g transform="matrix(1,0,0,1,-135.557,-5318.01)">
                        <path d="M193.894,5394.97C193.885,5394.96 191.477,5394.12 189.74,5393.14C189.229,5392.85 186.557,5390.21 185.983,5386.39C185.815,5385.27 184.183,5378.6 189.552,5373.23C191.26,5371.52 194.674,5371.1 195.183,5371.02" style="fill:none;stroke:white;stroke-width:1.41px;"/>
                    </g>
                    <g transform="matrix(1,0,0,1,-129.608,-5314.59)">
                        <path d="M190.322,5362.38C190.11,5364.19 189.744,5371.8 189.744,5371.8L193.531,5375.86L189.425,5380.14C189.425,5380.14 189.265,5386.48 188.362,5394.83C192.703,5394.8 193.427,5394.82 198.151,5395.04C198.264,5392.91 198.182,5389.6 198.182,5389.6L194.193,5386.36L198.532,5383.29C198.532,5383.29 198.902,5363.82 198.848,5362.13C194.789,5362.42 194.37,5362.14 190.322,5362.38Z" style="fill:none;stroke:white;stroke-width:1.41px;"/>
                    </g>
                </g>
                <g transform="matrix(1.0282,0,0,1.00747,-136.291,-5354.58)">
                    <path d="M177.724,5345.74C178.058,5346.17 161.701,5357.28 161.701,5383.18C161.701,5396.83 175.469,5415.41 194.69,5416.11C197.679,5416.23 216.813,5416.48 222.451,5404.77C227.479,5394.33 230.298,5385.48 225.203,5359.16C222.688,5346.16 201.206,5338.03 182.339,5343.81C180.443,5344.39 179.415,5344.71 177.724,5345.74Z" style="fill:none;stroke:white;stroke-width:1.85px;"/>
                </g>
            </g>
        </g>
    </g>
</svg>
