<?xml version="1.0" encoding="UTF-8" standalone="no"?>
<!DOCTYPE svg PUBLIC "-//W3C//DTD SVG 1.1//EN" "http://www.w3.org/Graphics/SVG/1.1/DTD/svg11.dtd">
<svg width="100%" height="100%" viewBox="0 0 129 129" version="1.1" xmlns="http://www.w3.org/2000/svg" xmlns:xlink="http://www.w3.org/1999/xlink" xml:space="preserve" xmlns:serif="http://www.serif.com/" style="fill-rule:evenodd;clip-rule:evenodd;stroke-linecap:round;stroke-linejoin:round;stroke-miterlimit:1.5;">
    <g transform="matrix(1,0,0,1,-1,-1079)">
        <g id="adobe-photoshop" transform="matrix(1,0,0,1,1.59335,1079.63)">
            <rect x="0" y="0" width="128" height="128"/>
            <g transform="matrix(1,0,0,1,-0.972262,0.81662)">
                <g transform="matrix(1,0,0,1,-1.59335,-905.208)">
                    <path d="M33.766,926.03C28.939,926.626 18.646,923.165 21.699,975.061C23.092,998.734 17.583,1007.32 38.099,1009.28C46.42,1010.07 102.596,1019.9 107.941,1004.75C111.756,993.944 117.585,929.118 99.741,926.144C68.903,921.004 40.057,925.253 33.766,926.03Z" style="fill:none;stroke:white;stroke-width:2px;"/>
                </g>
                <g transform="matrix(1,0,0,1,9.93916,-0.624892)">
                    <g transform="matrix(1,0,0,1,-1.59335,-905.208)">
                        <path d="M35.037,945.402C34.933,949.043 33.988,982.129 34.869,990.936C35.185,994.104 38.972,992.891 43.138,992.27C42.752,982.219 42.214,982.382 42.63,972.216C42.914,972.196 55.615,974.147 59.323,962.098C62.221,952.677 56.64,946.586 51.902,945.402C47.151,944.214 38.073,946.076 35.881,946.245" style="fill:none;stroke:white;stroke-width:2px;"/>
                    </g>
                    <g transform="matrix(1,0,0,1,-1.59335,-905.208)">
                        <path d="M42.795,952.822C43.432,964.492 43.171,964.859 43.807,964.965C46.031,965.335 52.241,960.077 48.698,954.171C47.301,951.843 45.839,953.67 43.47,952.485" style="fill:none;stroke:white;stroke-width:2px;"/>
                    </g>
                    <g transform="matrix(1,0,0,1,-1.59335,-905.208)">
                        <path d="M67.627,961.107C65.034,962.475 60.613,972.838 70.453,974.915C72.796,975.409 75.14,984.14 68.935,984.528C64.92,984.779 64.41,985.541 65.057,989.419C65.173,990.119 65.577,990.544 73.826,988.069C77.562,986.949 82.537,973.762 73.658,971.542C73.084,971.398 67.672,967.511 77.874,965.471C78.233,965.399 78.513,965.515 78.756,961.732C75.534,959.366 69.379,960.183 67.627,961.107Z" style="fill:none;stroke:white;stroke-width:2px;"/>
                    </g>
                </g>
            </g>
        </g>
    </g>
</svg>
