<?xml version="1.0" encoding="UTF-8" standalone="no"?>
<!DOCTYPE svg PUBLIC "-//W3C//DTD SVG 1.1//EN" "http://www.w3.org/Graphics/SVG/1.1/DTD/svg11.dtd">
<svg width="100%" height="100%" viewBox="0 0 129 129" version="1.1" xmlns="http://www.w3.org/2000/svg" xmlns:xlink="http://www.w3.org/1999/xlink" xml:space="preserve" xmlns:serif="http://www.serif.com/" style="fill-rule:evenodd;clip-rule:evenodd;stroke-linecap:round;stroke-linejoin:round;stroke-miterlimit:1.5;">
    <g transform="matrix(1,0,0,1,-276,-1233)">
        <g id="adobe-acrobat" transform="matrix(1,0,0,1,276.89,1233.62)">
            <rect x="0" y="0" width="128" height="128"/>
            <g transform="matrix(1,0,0,1,-2.56561,-904.391)">
                <path d="M33.766,926.03C28.939,926.626 18.646,923.165 21.699,975.061C23.092,998.734 17.583,1007.32 38.099,1009.28C46.42,1010.07 102.596,1019.9 107.941,1004.75C111.756,993.944 117.585,929.118 99.741,926.144C68.903,921.004 40.057,925.253 33.766,926.03Z" style="fill:none;stroke:white;stroke-width:2px;"/>
            </g>
            <g transform="matrix(1.08599,0,0,1.11461,-306.168,-1181.16)">
                <path d="M342.42,1105.02C342.069,1100.95 345.86,1087.86 351.604,1094.75C355.3,1099.19 349.504,1098.44 335.858,1118.91C321.516,1140.42 315.232,1144.48 314.028,1139.66C311.224,1128.45 345.46,1128.46 357.33,1127.14C369.333,1125.8 369.685,1133.98 365.203,1134.3C355.759,1134.97 341.983,1115.4 342.3,1104.06C342.302,1103.97 342.479,1104.96 342.42,1105.02Z" style="fill:none;stroke:white;stroke-width:1.82px;"/>
            </g>
        </g>
    </g>
</svg>
