<?xml version="1.0" encoding="UTF-8" standalone="no"?>
<!DOCTYPE svg PUBLIC "-//W3C//DTD SVG 1.1//EN" "http://www.w3.org/Graphics/SVG/1.1/DTD/svg11.dtd">
<svg width="100%" height="100%" viewBox="0 0 129 129" version="1.1" xmlns="http://www.w3.org/2000/svg" xmlns:xlink="http://www.w3.org/1999/xlink" xml:space="preserve" xmlns:serif="http://www.serif.com/" style="fill-rule:evenodd;clip-rule:evenodd;stroke-linecap:round;stroke-linejoin:round;stroke-miterlimit:1.5;">
    <g transform="matrix(1,0,0,1,-140,-1233)">
        <g id="adobe-dreamweaver" transform="matrix(1,0,0,1,140.083,1233.62)">
            <rect x="0" y="0" width="128" height="128"/>
            <g transform="matrix(1,0,0,1,-2.56561,-904.391)">
                <path d="M33.766,926.03C28.939,926.626 18.646,923.165 21.699,975.061C23.092,998.734 17.583,1007.32 38.099,1009.28C46.42,1010.07 102.596,1019.9 107.941,1004.75C111.756,993.944 117.585,929.118 99.741,926.144C68.903,921.004 40.057,925.253 33.766,926.03Z" style="fill:none;stroke:white;stroke-width:2px;"/>
            </g>
            <g transform="matrix(1,0,0,1,-2.58404,-2.15188)">
                <g transform="matrix(1,0,0,1,-140.083,-1059.2)">
                    <path d="M177.682,1105.3C175.706,1108.26 178.279,1108.66 178.311,1149.81C192.394,1140.57 200.482,1140.5 205.696,1117.04C209.319,1100.73 189.447,1100.62 186.745,1100.97C179.707,1101.89 176.996,1101.25 177.888,1108.38" style="fill:none;stroke:white;stroke-width:2px;"/>
                </g>
                <g transform="matrix(1,0,0,1,-140.083,-1059.2)">
                    <path d="M184.274,1111.06C184.4,1116.52 184.13,1132.13 185.156,1136.79C204.425,1115.81 194.196,1109.15 191.895,1108.38C183.653,1105.64 185.023,1112.8 184.891,1113.33" style="fill:none;stroke:white;stroke-width:2px;"/>
                </g>
                <g transform="matrix(1,0,0,1,-140.083,-1059.2)">
                    <path d="M208.313,1122.33C209.161,1120.56 207.575,1123.87 213.572,1146.31C214.72,1146.24 215.876,1146.36 217.025,1146.29C217.217,1146.27 217.025,1146.29 219.428,1146.09C219.673,1145.27 221.144,1140.31 222.449,1135.77C222.812,1137.46 222.831,1137.3 225.536,1146.09C228.096,1146.24 227.998,1146.24 230.584,1146.09C231.236,1139.17 235.588,1121.6 236.398,1116.36C231.225,1117.09 232.559,1119.06 228.65,1132.12C226.666,1125.92 228.433,1122.22 221.968,1123.83C221.919,1123.85 221.231,1123.49 217.984,1132.68C216.877,1126.04 216.746,1126.26 214.857,1119.7C211.368,1120.75 209.547,1120.19 208.373,1121.36" style="fill:none;stroke:white;stroke-width:2px;"/>
                </g>
            </g>
        </g>
    </g>
</svg>
