<?xml version="1.0" encoding="UTF-8" standalone="no"?>
<!DOCTYPE svg PUBLIC "-//W3C//DTD SVG 1.1//EN" "http://www.w3.org/Graphics/SVG/1.1/DTD/svg11.dtd">
<svg width="100%" height="100%" viewBox="0 0 129 129" version="1.1" xmlns="http://www.w3.org/2000/svg" xmlns:xlink="http://www.w3.org/1999/xlink" xml:space="preserve" xmlns:serif="http://www.serif.com/" style="fill-rule:evenodd;clip-rule:evenodd;stroke-linecap:round;stroke-linejoin:round;stroke-miterlimit:1.5;">
    <g transform="matrix(1,0,0,1,-275,-1078)">
        <g id="adobe-indesign" transform="matrix(1,0,0,1,275.95,1078.28)">
            <rect x="0" y="0" width="128" height="128"/>
            <g transform="matrix(1,0,0,1,-2.56561,-904.391)">
                <path d="M33.766,926.03C28.939,926.626 18.646,923.165 21.699,975.061C23.092,998.734 17.583,1007.32 38.099,1009.28C46.42,1010.07 102.596,1019.9 107.941,1004.75C111.756,993.944 117.585,929.118 99.741,926.144C68.903,921.004 40.057,925.253 33.766,926.03Z" style="fill:none;stroke:white;stroke-width:2px;"/>
            </g>
            <g transform="matrix(1,0,0,1,6.41538,0.998493)">
                <g transform="matrix(1,0,0,1,-275.95,-903.855)">
                    <path d="M313.083,945.118C312.632,957.744 313.626,984.586 313.753,988.016C313.784,988.844 313.886,991.607 324.033,989.34C324.028,968.286 322.184,968.379 323.025,947.353C323.339,939.497 317.313,946.396 313.641,944.56" style="fill:none;stroke:white;stroke-width:2px;"/>
                </g>
                <g transform="matrix(1,0,0,1,-275.95,-903.855)">
                    <path d="M345.591,944.448C345.591,955.441 346.488,956.424 345.256,956.178C343.987,955.924 333.577,960.948 331.962,969.025C329.849,979.59 333.461,987.162 341.237,988.01C342.081,988.102 344.808,989.478 354.073,986.318C354.109,985.071 354.229,978.505 353.522,967.908C352.404,951.131 353.877,951.067 352.515,944.075C352.086,943.874 350.659,943.209 346.596,944.225" style="fill:none;stroke:white;stroke-width:2px;"/>
                </g>
                <g transform="matrix(1,0,0,1,-275.95,-903.855)">
                    <path d="M345.592,964.03C346.173,971.51 346.764,972.969 347.274,980.502C336.806,986.349 336.75,974.082 338.553,970.477C341.681,964.221 344.288,963.7 345.032,963.551" style="fill:none;stroke:white;stroke-width:2px;"/>
                </g>
            </g>
        </g>
    </g>
</svg>
