<?xml version="1.0" encoding="UTF-8" standalone="no"?>
<!DOCTYPE svg PUBLIC "-//W3C//DTD SVG 1.1//EN" "http://www.w3.org/Graphics/SVG/1.1/DTD/svg11.dtd">
<svg width="100%" height="100%" viewBox="0 0 129 129" version="1.1" xmlns="http://www.w3.org/2000/svg" xmlns:xlink="http://www.w3.org/1999/xlink" xml:space="preserve" xmlns:serif="http://www.serif.com/" style="fill-rule:evenodd;clip-rule:evenodd;stroke-linecap:round;stroke-linejoin:round;stroke-miterlimit:1.5;">
    <g transform="matrix(1,0,0,1,-140,-1078)">
        <g id="adobe-illustrator" transform="matrix(1,0,0,1,140.421,1078.28)">
            <rect x="0" y="0" width="128" height="128"/>
            <g>
                <g transform="matrix(1,0,0,1,-2.56561,-904.391)">
                    <path d="M33.766,926.03C28.939,926.626 18.646,923.165 21.699,975.061C23.092,998.734 17.583,1007.32 38.099,1009.28C46.42,1010.07 102.596,1019.9 107.941,1004.75C111.756,993.944 117.585,929.118 99.741,926.144C68.903,921.004 40.057,925.253 33.766,926.03Z" style="fill:none;stroke:white;stroke-width:2px;"/>
                </g>
                <g transform="matrix(1,0,0,1,8.00289,-1.21015)">
                    <g transform="matrix(1,0,0,1,-141.505,-905.208)">
                        <path d="M176.71,991.351C178.146,989.565 176.588,988.969 184.942,963.907C187.155,957.267 187.099,953.925 189.903,949.826C192.263,949.826 196.959,949.689 197.096,949.826C197.696,950.426 200.321,966.144 202.729,975.172C205.048,983.871 205.967,988.371 206.203,989.529C205.74,989.683 203.59,990.398 200.259,990.902C199.811,989.968 199.138,988.566 196.756,978.431C192.955,978.367 187.133,974.796 184.942,984.658C183.755,990.002 183.025,990.099 177.531,990.884" style="fill:none;stroke:white;stroke-width:2px;"/>
                    </g>
                    <g transform="matrix(1,0,0,1,-141.505,-905.208)">
                        <path d="M191.167,963.166C189.38,967.039 190.355,967.271 188.796,971.17C188.638,971.563 188.819,971.897 194.011,972.075C192.75,965.085 192.892,965.134 192.057,963.463" style="fill:none;stroke:white;stroke-width:2px;"/>
                    </g>
                    <g transform="matrix(1,0,0,1,-141.505,-905.208)">
                        <path d="M210.732,961.832C211.261,975.847 210.576,982.779 210.881,990.202C214.571,989.3 214.559,989.668 218.295,988.733C217.778,974.802 218.252,974.917 217.992,960.937C215.572,960.988 213.152,961.04 210.732,961.091" style="fill:none;stroke:white;stroke-width:2px;"/>
                    </g>
                    <g transform="matrix(1,0,0,1,-141.505,-905.208)">
                        <path d="M213.549,949.974C206.793,952.226 211.088,957.964 214.586,957.089C219.357,955.897 215.065,946.311 212.511,950.567" style="fill:none;stroke:white;stroke-width:2px;"/>
                    </g>
                </g>
            </g>
        </g>
    </g>
</svg>
