<?xml version="1.0" encoding="UTF-8" standalone="no"?>
<!DOCTYPE svg PUBLIC "-//W3C//DTD SVG 1.1//EN" "http://www.w3.org/Graphics/SVG/1.1/DTD/svg11.dtd">
<svg width="100%" height="100%" viewBox="0 0 129 129" version="1.1" xmlns="http://www.w3.org/2000/svg" xmlns:xlink="http://www.w3.org/1999/xlink" xml:space="preserve" xmlns:serif="http://www.serif.com/" style="fill-rule:evenodd;clip-rule:evenodd;stroke-linecap:round;stroke-linejoin:round;stroke-miterlimit:1.5;">
    <g transform="matrix(1,0,0,1,-414,-1233)">
        <g id="adobe-creativecloud" transform="matrix(1,0,0,1,414.443,1233.62)">
            <rect x="0" y="0" width="128" height="128"/>
            <g transform="matrix(1,0,0,1,-2.56561,-904.391)">
                <path d="M33.766,926.03C28.939,926.626 18.646,923.165 21.699,975.061C23.092,998.734 17.583,1007.32 38.099,1009.28C46.42,1010.07 102.596,1019.9 107.941,1004.75C111.756,993.944 117.585,929.118 99.741,926.144C68.903,921.004 40.057,925.253 33.766,926.03Z" style="fill:none;stroke:white;stroke-width:2px;"/>
            </g>
            <g transform="matrix(1,0,0,1,1.72167,2.70228)">
                <g transform="matrix(0.85477,0,0,0.85477,-345.037,-895.338)">
                    <path d="M470.976,1134.41C479.158,1155.14 510.862,1140.85 509.787,1111.84C509.226,1096.68 485.027,1089.26 474.106,1100.18" style="fill:none;stroke:white;stroke-width:2.34px;"/>
                </g>
                <g transform="matrix(0.85477,0,0,0.85477,-345.037,-895.338)">
                    <path d="M468.966,1141.03C463.551,1139.41 461.427,1145.46 451.019,1135.86C444.207,1129.57 439.122,1106.79 462.912,1105.31C465.63,1105.14 473.896,1104.08 477.838,1108.81C485.774,1118.33 488.374,1119.98 489.498,1120.7" style="fill:none;stroke:white;stroke-width:2.34px;"/>
                </g>
                <g transform="matrix(1,0,0,1,-414.443,-1059.2)">
                    <path d="M469.287,1100.73C470.923,1095.79 494.684,1082.5 508.081,1104.83C512.089,1111.51 515.867,1137.19 492.145,1146.68C489.552,1147.72 462.942,1150.68 456.946,1146.68C445.016,1138.73 436.344,1128.1 447.665,1107.45C448.585,1105.78 460.922,1096.75 469.03,1100.8" style="fill:none;stroke:white;stroke-width:2px;"/>
                </g>
            </g>
        </g>
    </g>
</svg>
