<?xml version="1.0" encoding="UTF-8" standalone="no"?>
<!DOCTYPE svg PUBLIC "-//W3C//DTD SVG 1.1//EN" "http://www.w3.org/Graphics/SVG/1.1/DTD/svg11.dtd">
<svg width="100%" height="100%" viewBox="0 0 129 129" version="1.1" xmlns="http://www.w3.org/2000/svg" xmlns:xlink="http://www.w3.org/1999/xlink" xml:space="preserve" xmlns:serif="http://www.serif.com/" style="fill-rule:evenodd;clip-rule:evenodd;stroke-linecap:round;stroke-linejoin:round;stroke-miterlimit:1.5;">
    <g transform="matrix(1,0,0,1,-415,-1078)">
        <g id="adobe-aftereffects" transform="matrix(1,0,0,1,415.247,1078.28)">
            <rect x="0" y="0" width="128" height="128"/>
            <g transform="matrix(1,0,0,1,-2.56561,-904.391)">
                <path d="M33.766,926.03C28.939,926.626 18.646,923.165 21.699,975.061C23.092,998.734 17.583,1007.32 38.099,1009.28C46.42,1010.07 102.596,1019.9 107.941,1004.75C111.756,993.944 117.585,929.118 99.741,926.144C68.903,921.004 40.057,925.253 33.766,926.03Z" style="fill:none;stroke:white;stroke-width:2px;"/>
            </g>
            <g transform="matrix(1,0,0,1,0.470274,-0.491634)">
                <g transform="matrix(1,0,0,1,-415.247,-903.855)">
                    <path d="M451.865,992.094C453.135,989.255 455.01,970.671 464.492,945.49C468.734,945.19 468.506,944.917 472.695,944.6C480.524,972.159 482.121,983.337 482.611,986.768C483.308,991.649 481.127,990.943 476.172,990.53C472.94,978.742 472.902,978.886 472.491,976.713C467.196,976.698 467.321,976.99 461.937,977.363C459.329,990.339 459.302,990.366 458.497,991.171C458.463,991.205 456.594,992.218 452.416,991.8" style="fill:none;stroke:white;stroke-width:2px;"/>
                </g>
                <g transform="matrix(1,0,0,1,-415.247,-903.855)">
                    <path d="M465.836,960.766C464.242,966.504 460.338,970.021 466.255,969.363C468.636,969.099 472.488,970.021 469.401,965.17C468.052,963.049 469.016,962.356 466.675,961.185" style="fill:none;stroke:white;stroke-width:2px;"/>
                </g>
                <g transform="matrix(1,0,0,1,-415.247,-903.855)">
                    <path d="M493.725,963.073C486.54,964.869 483.796,985.579 493.935,987.606C505.54,989.928 506.263,986.683 505.456,981.465C497.481,983.371 495.085,984.291 493.244,976.291C502.393,976.773 507.663,976.901 503.58,968.734C501.403,964.38 499.156,963.389 492.886,963.911" style="fill:none;stroke:white;stroke-width:2px;"/>
                </g>
                <g transform="matrix(1,0,0,1,-415.247,-903.855)">
                    <path d="M494.357,968.921C492.933,969.704 493.077,972.185 493.033,972.341C493.315,972.32 507.227,970.209 494.564,969.154" style="fill:none;stroke:white;stroke-width:2px;"/>
                </g>
            </g>
        </g>
    </g>
</svg>
