<?xml version="1.0" encoding="UTF-8" standalone="no"?>
<!DOCTYPE svg PUBLIC "-//W3C//DTD SVG 1.1//EN" "http://www.w3.org/Graphics/SVG/1.1/DTD/svg11.dtd">
<svg width="100%" height="100%" viewBox="0 0 129 129" version="1.1" xmlns="http://www.w3.org/2000/svg" xmlns:xlink="http://www.w3.org/1999/xlink" xml:space="preserve" xmlns:serif="http://www.serif.com/" style="fill-rule:evenodd;clip-rule:evenodd;stroke-linecap:round;stroke-linejoin:round;stroke-miterlimit:1.5;">
    <g transform="matrix(1,0,0,1,-552,-1078)">
        <g id="adobe-lightroom" transform="matrix(1,0,0,1,552.538,1078.28)">
            <rect x="0" y="0" width="128" height="128"/>
            <g transform="matrix(1,0,0,1,-2.56561,-904.391)">
                <path d="M33.766,926.03C28.939,926.626 18.646,923.165 21.699,975.061C23.092,998.734 17.583,1007.32 38.099,1009.28C46.42,1010.07 102.596,1019.9 107.941,1004.75C111.756,993.944 117.585,929.118 99.741,926.144C68.903,921.004 40.057,925.253 33.766,926.03Z" style="fill:none;stroke:white;stroke-width:2px;"/>
            </g>
            <g transform="matrix(1,0,0,1,0.505145,0.162971)">
                <g transform="matrix(1,0,0,1,-552.538,-903.855)">
                    <path d="M590.844,944.743C588.856,948.973 591.744,949.305 590.185,989.54C595.409,991.819 595.655,989.749 612.563,990.399C612.682,989.788 613.588,985.129 614.211,982.801C606.59,982.545 606.781,982.396 599.167,982.392C598.43,964.322 600.155,964.485 599.55,946.329C599.53,945.733 599.503,944.935 592.141,945.549" style="fill:none;stroke:white;stroke-width:2px;"/>
                </g>
                <g transform="matrix(1,0,0,1,-552.538,-903.855)">
                    <path d="M619.624,961.22C621.014,958.053 620.389,984.78 620.805,989.905C623.71,989.088 623.624,989.102 626.652,988.779C626.961,973.683 623.897,965.782 638.74,968.751C640.055,969.014 639.974,968.169 640.105,967.776C640.27,967.282 640.229,967.327 641.95,961.528C633.883,960.718 633.34,958.427 626.627,963.021C627.009,958.735 624.739,960.555 620.412,961.342" style="fill:none;stroke:white;stroke-width:2px;"/>
                </g>
            </g>
        </g>
    </g>
</svg>
