<?xml version="1.0" encoding="UTF-8" standalone="no"?>
<!DOCTYPE svg PUBLIC "-//W3C//DTD SVG 1.1//EN" "http://www.w3.org/Graphics/SVG/1.1/DTD/svg11.dtd">
<svg width="100%" height="100%" viewBox="0 0 129 129" version="1.1" xmlns="http://www.w3.org/2000/svg" xmlns:xlink="http://www.w3.org/1999/xlink" xml:space="preserve" xmlns:serif="http://www.serif.com/" style="fill-rule:evenodd;clip-rule:evenodd;stroke-linecap:round;stroke-linejoin:round;stroke-miterlimit:1.5;">
    <g transform="matrix(1,0,0,1,-415,-623)">
        <g id="affinity-publisher" transform="matrix(1,0,0,1,415.237,623.843)">
            <rect x="0" y="0" width="128" height="128"/>
            <g transform="matrix(1,0,0,1,-1.36163,3.00305)">
                <g transform="matrix(1,0,0,1,-141.581,-449.42)">
                    <path d="M202.342,464.283C204.889,466.14 168.117,509.133 160.527,520.524C160.496,531.26 157.411,556.924 163.288,557.69C163.409,557.706 253.349,559.327 253.762,557.053C255.844,545.606 249.604,485.399 252.295,462.603C249.716,462.259 207.606,464.632 202.791,464.03" style="fill:none;stroke:white;stroke-width:2px;"/>
                </g>
                <g transform="matrix(1,0,0,1,-415.237,-449.42)">
                    <path d="M484.292,464.912C484.883,464.009 515.139,508.21 527.48,536.417" style="fill:none;stroke:white;stroke-width:2px;"/>
                </g>
                <g transform="matrix(1,0,0,1,-415.237,-449.42)">
                    <path d="M470.24,474.39C498.365,514.929 498.979,516.439 526.255,557.353" style="fill:none;stroke:white;stroke-width:2px;"/>
                </g>
                <g transform="matrix(1,0,0,1,-415.237,-449.42)">
                    <path d="M457.599,490.659C461.514,495.878 486.011,527.978 501.003,557.962" style="fill:none;stroke:white;stroke-width:2px;"/>
                </g>
                <g transform="matrix(1,0,0,1,-415.237,-449.42)">
                    <path d="M447.231,505.511C466.125,530.074 464.243,531.096 480.018,557.914" style="fill:none;stroke:white;stroke-width:2px;"/>
                </g>
            </g>
        </g>
    </g>
</svg>
