<?xml version="1.0" encoding="UTF-8" standalone="no"?>
<!DOCTYPE svg PUBLIC "-//W3C//DTD SVG 1.1//EN" "http://www.w3.org/Graphics/SVG/1.1/DTD/svg11.dtd">
<svg width="100%" height="100%" viewBox="0 0 129 129" version="1.1" xmlns="http://www.w3.org/2000/svg" xmlns:xlink="http://www.w3.org/1999/xlink" xml:space="preserve" xmlns:serif="http://www.serif.com/" style="fill-rule:evenodd;clip-rule:evenodd;stroke-linecap:round;stroke-linejoin:round;stroke-miterlimit:1.5;">
    <g transform="matrix(1,0,0,1,-276,-623)">
        <g id="affinity-photo" transform="matrix(1,0,0,1,276.78,623.843)">
            <rect x="0" y="0" width="128" height="128"/>
            <g transform="matrix(1,0,0,1,-1.36163,3.00305)">
                <g transform="matrix(1,0,0,1,-141.581,-449.42)">
                    <path d="M202.342,464.283C204.889,466.14 168.117,509.133 160.527,520.524C160.496,531.26 157.411,556.924 163.288,557.69C163.409,557.706 253.349,559.327 253.762,557.053C255.844,545.606 249.604,485.399 252.295,462.603C249.716,462.259 207.606,464.632 202.791,464.03" style="fill:none;stroke:white;stroke-width:2px;"/>
                </g>
                <g transform="matrix(1,0,0,1,-276.78,-449.42)">
                    <path d="M387.029,522.944C365.566,528.109 343.661,522.149 337.077,524.344" style="fill:none;stroke:white;stroke-width:2px;"/>
                </g>
                <g transform="matrix(1,0,0,1,-276.78,-449.42)">
                    <path d="M308.611,557.625C318.266,534.121 332.942,510.06 334.012,507.92C334.574,506.795 337.406,499.777 337.985,500.356" style="fill:none;stroke:white;stroke-width:2px;"/>
                </g>
                <g transform="matrix(1,0,0,1,-276.78,-449.42)">
                    <path d="M331.504,514.092C349.068,545.167 351.29,559.117 352.336,558.07" style="fill:none;stroke:white;stroke-width:2px;"/>
                </g>
                <g transform="matrix(1,0,0,1,-276.78,-449.42)">
                    <path d="M353.084,524.325C350.827,529.344 359.327,510.168 382.325,462.586" style="fill:none;stroke:white;stroke-width:2px;"/>
                </g>
                <g transform="matrix(1,0,0,1,-276.78,-449.42)">
                    <path d="M334.318,471.545C341.085,481.812 357.749,511.835 358.019,512.466" style="fill:none;stroke:white;stroke-width:2px;"/>
                </g>
                <g transform="matrix(1,0,0,1,-276.78,-449.42)">
                    <path d="M313.202,498.362C316.073,498.888 331.76,501.595 349.057,499.433C349.4,499.39 350.788,499.411 351.268,499.891" style="fill:none;stroke:white;stroke-width:2px;"/>
                </g>
            </g>
        </g>
    </g>
</svg>
