<?xml version="1.0" encoding="UTF-8" standalone="no"?>
<!DOCTYPE svg PUBLIC "-//W3C//DTD SVG 1.1//EN" "http://www.w3.org/Graphics/SVG/1.1/DTD/svg11.dtd">
<svg width="100%" height="100%" viewBox="0 0 129 129" version="1.1" xmlns="http://www.w3.org/2000/svg" xmlns:xlink="http://www.w3.org/1999/xlink" xml:space="preserve" xmlns:serif="http://www.serif.com/" style="fill-rule:evenodd;clip-rule:evenodd;stroke-linecap:round;stroke-linejoin:round;stroke-miterlimit:1.5;">
    <g transform="matrix(1,0,0,1,-141,-623)">
        <g id="affinity-designer" transform="matrix(1,0,0,1,141.581,623.843)">
            <rect x="0" y="0" width="128" height="128"/>
            <g transform="matrix(1,0,0,1,-1.36163,3.00305)">
                <g transform="matrix(1,0,0,1,-141.581,-449.42)">
                    <path d="M202.342,464.283C204.889,466.14 168.117,509.133 160.527,520.524C160.496,531.26 157.411,556.924 163.288,557.69C163.409,557.706 253.349,559.327 253.762,557.053C255.844,545.606 249.604,485.399 252.295,462.603C249.716,462.259 207.606,464.632 202.791,464.03" style="fill:none;stroke:white;stroke-width:2px;"/>
                </g>
                <g transform="matrix(1,0,0,1,-141.581,-449.42)">
                    <path d="M217.87,464.667C216.927,463.724 195.265,506.443 183.707,521.411C187.504,525.79 187.715,525.625 208.738,558.115" style="fill:none;stroke:white;stroke-width:2px;"/>
                </g>
                <g transform="matrix(1,0,0,1,-141.581,-449.42)">
                    <path d="M183.64,521.872C186.123,522.089 195.203,525.849 227.215,522.648C241.439,521.225 237.941,520.432 252.152,519.196" style="fill:none;stroke:white;stroke-width:2px;"/>
                </g>
                <g transform="matrix(1,0,0,1,-141.581,-449.42)">
                    <path d="M198.033,500.009C199.016,499.025 206.583,517.732 211.923,523.072" style="fill:none;stroke:white;stroke-width:2px;"/>
                </g>
            </g>
        </g>
    </g>
</svg>
