<?xml version="1.0" encoding="UTF-8" standalone="no"?>
<!DOCTYPE svg PUBLIC "-//W3C//DTD SVG 1.1//EN" "http://www.w3.org/Graphics/SVG/1.1/DTD/svg11.dtd">
<svg width="100%" height="100%" viewBox="0 0 129 129" version="1.1" xmlns="http://www.w3.org/2000/svg" xmlns:xlink="http://www.w3.org/1999/xlink" xml:space="preserve" xmlns:serif="http://www.serif.com/" style="fill-rule:evenodd;clip-rule:evenodd;stroke-linecap:round;stroke-linejoin:round;stroke-miterlimit:1.5;">
    <g transform="matrix(1,0,0,1,0,-3807)">
        <g id="amazon" transform="matrix(1,0,0,1,0.476909,3807.58)">
            <rect x="0" y="0" width="128" height="128"/>
            <g transform="matrix(1,0,0,1,0.115168,-9.6801)">
                <g transform="matrix(1,0,0,1,7.31641,0)">
                    <g transform="matrix(1,0,0,1,-4.39967,-3809.22)">
                        <path d="M59.593,3842.05C69.758,3842.93 75.835,3847.67 77.172,3866.39C78.713,3887.97 73.109,3884.42 82.63,3893.94C82.922,3894.23 81.291,3910.72 71.354,3904.09C69.293,3902.72 69.454,3902.75 67.776,3901.09C62.873,3906 62.228,3907.68 48.803,3907.29C29.601,3906.72 25.863,3859.41 61.206,3873.21C61.14,3871.72 64.776,3861.62 61.065,3857.34C58.453,3854.33 44.96,3849.43 42.863,3866.43C34.49,3867.81 31.95,3867.65 31.88,3866.95C31.529,3863.44 31.698,3860.53 32.214,3858.1C34.476,3847.48 46.402,3840.9 59.593,3842.05Z" style="fill:none;stroke:white;stroke-width:2px;"/>
                    </g>
                    <g transform="matrix(1,0,0,1,-4.39967,-3809.22)">
                        <path d="M61.288,3883.89C61.048,3887.01 62.704,3892.8 56.592,3895.58C48.719,3899.16 46.52,3889.75 47.617,3887.34C50.513,3880.97 56.611,3882.23 60.419,3882.02C60.723,3882.79 60.682,3882.72 60.87,3883.48C60.889,3883.55 60.94,3883.62 60.975,3883.68" style="fill:none;stroke:white;stroke-width:2px;"/>
                    </g>
                </g>
                <g transform="matrix(1,0,0,1,5.90031,-3.61278)">
                    <g transform="matrix(1.07051,0,0,1,-6.60212,-3807.58)">
                        <path d="M27.19,3912.93C27.917,3914.38 55.028,3926.51 74.044,3918.36C75.194,3917.86 78.763,3916.34 86.872,3909.41C75.94,3924.1 77.96,3926.84 52.108,3925.58C33.371,3924.67 28.594,3915.42 27.009,3913.83" style="fill:none;stroke:white;stroke-width:1.93px;"/>
                    </g>
                    <g transform="matrix(1,0,0,1,-0.476909,-3807.58)">
                        <path d="M82.518,3906.39C82.7,3906.3 88.266,3902.5 89.627,3904.32C91.078,3906.25 90.659,3912.99 90.612,3913.75C95.732,3910.28 94.037,3901 93.083,3900.27C88.577,3896.8 84.123,3901.21 81.53,3906.39" style="fill:none;stroke:white;stroke-width:2px;"/>
                    </g>
                </g>
            </g>
        </g>
    </g>
</svg>
