<?xml version="1.0" encoding="UTF-8" standalone="no"?>
<!DOCTYPE svg PUBLIC "-//W3C//DTD SVG 1.1//EN" "http://www.w3.org/Graphics/SVG/1.1/DTD/svg11.dtd">
<svg width="100%" height="100%" viewBox="0 0 129 129" version="1.1" xmlns="http://www.w3.org/2000/svg" xmlns:xlink="http://www.w3.org/1999/xlink" xml:space="preserve" xmlns:serif="http://www.serif.com/" style="fill-rule:evenodd;clip-rule:evenodd;stroke-linecap:round;stroke-linejoin:round;stroke-miterlimit:1.5;">
    <g transform="matrix(1,0,0,1,-556,-2315)">
        <g id="apple-maps" transform="matrix(1,0,0,1,556.385,2315.45)">
            <rect x="0" y="0" width="128" height="128"/>
            <g transform="matrix(1,0,0,1,5.28151,2.04423)">
                <g>
                    <g transform="matrix(1,0,0,1,-556.385,-2315.45)">
                        <path d="M584.986,2333.81C585.666,2334.23 581.829,2331.86 576.003,2338.21C569.03,2345.82 573.226,2378.23 574.488,2400.94C576.202,2431.79 616.548,2426.18 637.823,2422.91C658.388,2419.74 659.997,2412.51 656.914,2347.76C656.768,2344.7 652.644,2330.87 641.156,2330.18C606.942,2328.13 589.733,2332.43 585.397,2333.51C584.74,2333.68 584.819,2333.59 584.185,2333.66" style="fill:none;stroke:white;stroke-width:2px;"/>
                    </g>
                    <g transform="matrix(1,0,0,1,-556.385,-2315.45)">
                        <path d="M593.276,2373.51C586.035,2372.31 579.042,2390.86 590.094,2397C610.343,2408.25 611.942,2382.66 608.58,2378.82C602.553,2371.93 593.959,2373.63 593.276,2373.51Z" style="fill:none;stroke:white;stroke-width:2px;"/>
                    </g>
                    <g transform="matrix(1,0,0,1,-556.385,-2315.45)">
                        <path d="M591.255,2391.64C592.939,2390.32 597.336,2373.99 598.882,2380.18C601.808,2391.88 601.765,2393.36 601.805,2393.55C597.46,2389.43 596.56,2389.45 591.61,2392.76" style="fill:none;stroke:white;stroke-width:2px;"/>
                    </g>
                    <g transform="matrix(1,0,0,1,-556.385,-2315.45)">
                        <path d="M593.365,2373.16C593.486,2371.82 591.614,2340.77 593.731,2332.3" style="fill:none;stroke:white;stroke-width:2px;"/>
                    </g>
                    <g transform="matrix(1,0,0,1,-556.385,-2315.45)">
                        <path d="M601.021,2331.03C602.095,2344.93 601,2370.12 600.852,2373.51" style="fill:none;stroke:white;stroke-width:2px;"/>
                    </g>
                    <g transform="matrix(1,0,0,1,-556.385,-2315.45)">
                        <path d="M593.184,2399.05C593.189,2399.08 593.412,2410.72 593.428,2410.94C593.88,2417.04 593.123,2416.98 593.731,2423.06" style="fill:none;stroke:white;stroke-width:2px;"/>
                    </g>
                    <g transform="matrix(1,0,0,1,-556.385,-2315.45)">
                        <path d="M601.155,2399.73C601.761,2404.27 601.761,2422.45 601.761,2424.42" style="fill:none;stroke:white;stroke-width:2px;"/>
                    </g>
                    <g transform="matrix(1,0,0,1,-556.385,-2315.45)">
                        <path d="M572.354,2360.78C572.8,2361.69 585.84,2370.75 588.428,2372.91C588.588,2373.04 587.923,2372.74 588.428,2372.91" style="fill:none;stroke:white;stroke-width:2px;"/>
                    </g>
                    <g transform="matrix(1,0,0,1,-556.385,-2315.45)">
                        <path d="M572.518,2350.18C574.327,2351.39 575.451,2351.58 592.421,2365.72" style="fill:none;stroke:white;stroke-width:2px;"/>
                    </g>
                    <g transform="matrix(1,0,0,1,-556.385,-2315.45)">
                        <path d="M601.463,2369.83C604.345,2371.39 603.149,2373.22 635.853,2392.15C637.707,2393.22 652.564,2402.61 656.762,2406.39" style="fill:none;stroke:white;stroke-width:2px;"/>
                    </g>
                    <g transform="matrix(1,0,0,1,-556.385,-2315.45)">
                        <path d="M609.661,2388.68C609.898,2388.38 629.622,2403.43 639.035,2409.42C650.495,2416.72 650.525,2416.67 650.853,2417" style="fill:none;stroke:white;stroke-width:2px;"/>
                    </g>
                    <g transform="matrix(1,0,0,1,-556.385,-2315.45)">
                        <path d="M617.974,2329.27C617.167,2331.96 616.304,2369.04 657.519,2374.31" style="fill:none;stroke:white;stroke-width:2px;"/>
                    </g>
                    <g transform="matrix(1,0,0,1,-556.385,-2315.45)">
                        <path d="M626.54,2331.03C628.843,2347.89 634.638,2352.74 643.429,2359.57C648.175,2363.26 648.09,2363.51 657.217,2365.33" style="fill:none;stroke:white;stroke-width:2px;"/>
                    </g>
                </g>
            </g>
        </g>
    </g>
</svg>
