<?xml version="1.0" encoding="UTF-8" standalone="no"?>
<!DOCTYPE svg PUBLIC "-//W3C//DTD SVG 1.1//EN" "http://www.w3.org/Graphics/SVG/1.1/DTD/svg11.dtd">
<svg width="100%" height="100%" viewBox="0 0 129 129" version="1.1" xmlns="http://www.w3.org/2000/svg" xmlns:xlink="http://www.w3.org/1999/xlink" xml:space="preserve" xmlns:serif="http://www.serif.com/" style="fill-rule:evenodd;clip-rule:evenodd;stroke-linecap:round;stroke-linejoin:round;stroke-miterlimit:1.5;">
    <g transform="matrix(1,0,0,1,-144,-2466)">
        <g id="apple-photos" transform="matrix(1,0,0,1,144.24,2466.14)">
            <rect x="0" y="0" width="128" height="128"/>
            <g transform="matrix(1,0,0,1,-0.431499,1.77104)">
                <g>
                    <g transform="matrix(1,0,0,1,-136.093,-2465.23)">
                        <path d="M196.941,2483.8C188.536,2503.01 199.785,2530.44 206.151,2510.18C207.479,2505.96 213.015,2480.37 199.928,2481.56C198.772,2481.66 197.672,2483.55 196.194,2484.29" style="fill:none;stroke:white;stroke-width:2px;"/>
                    </g>
                    <g transform="matrix(6.12323e-17,-1,1,6.12323e-17,-2463.03,263.422)">
                        <path d="M196.941,2483.8C188.536,2503.01 199.785,2530.44 206.151,2510.18C207.479,2505.96 213.015,2480.37 199.928,2481.56C198.772,2481.66 197.672,2483.55 196.194,2484.29" style="fill:none;stroke:white;stroke-width:2px;"/>
                    </g>
                    <g transform="matrix(1,0,0,-1,-136.093,2589.69)">
                        <path d="M196.941,2483.8C188.536,2503.01 199.785,2530.44 206.151,2510.18C207.479,2505.96 213.015,2480.37 199.928,2481.56C198.772,2481.66 197.672,2483.55 196.194,2484.29" style="fill:none;stroke:white;stroke-width:2px;"/>
                    </g>
                    <g transform="matrix(6.12323e-17,-1,-1,-6.12323e-17,2591.9,263.422)">
                        <path d="M196.941,2483.8C188.536,2503.01 199.785,2530.44 206.151,2510.18C207.479,2505.96 213.015,2480.37 199.928,2481.56C198.772,2481.66 197.672,2483.55 196.194,2484.29" style="fill:none;stroke:white;stroke-width:2px;"/>
                    </g>
                </g>
                <g transform="matrix(-0.707107,-0.707107,0.707107,-0.707107,65.7403,152.899)">
                    <g transform="matrix(1,0,0,1,-136.093,-2465.23)">
                        <path d="M196.941,2483.8C188.536,2503.01 199.785,2530.44 206.151,2510.18C207.479,2505.96 213.015,2480.37 199.928,2481.56C198.772,2481.66 197.672,2483.55 196.194,2484.29" style="fill:none;stroke:white;stroke-width:2px;"/>
                    </g>
                    <g transform="matrix(6.12323e-17,-1,1,6.12323e-17,-2463.03,263.422)">
                        <path d="M196.941,2483.8C188.536,2503.01 199.785,2530.44 206.151,2510.18C207.479,2505.96 213.015,2480.37 199.928,2481.56C198.772,2481.66 197.672,2483.55 196.194,2484.29" style="fill:none;stroke:white;stroke-width:2px;"/>
                    </g>
                    <g transform="matrix(1,0,0,-1,-136.093,2589.69)">
                        <path d="M196.941,2483.8C188.536,2503.01 199.785,2530.44 206.151,2510.18C207.479,2505.96 213.015,2480.37 199.928,2481.56C198.772,2481.66 197.672,2483.55 196.194,2484.29" style="fill:none;stroke:white;stroke-width:2px;"/>
                    </g>
                    <g transform="matrix(6.12323e-17,-1,-1,-6.12323e-17,2591.9,263.422)">
                        <path d="M196.941,2483.8C188.536,2503.01 199.785,2530.44 206.151,2510.18C207.479,2505.96 213.015,2480.37 199.928,2481.56C198.772,2481.66 197.672,2483.55 196.194,2484.29" style="fill:none;stroke:white;stroke-width:2px;"/>
                    </g>
                </g>
            </g>
        </g>
    </g>
</svg>
