<?xml version="1.0" encoding="UTF-8" standalone="no"?>
<!DOCTYPE svg PUBLIC "-//W3C//DTD SVG 1.1//EN" "http://www.w3.org/Graphics/SVG/1.1/DTD/svg11.dtd">
<svg width="100%" height="100%" viewBox="0 0 129 129" version="1.1" xmlns="http://www.w3.org/2000/svg" xmlns:xlink="http://www.w3.org/1999/xlink" xml:space="preserve" xmlns:serif="http://www.serif.com/" style="fill-rule:evenodd;clip-rule:evenodd;stroke-linecap:round;stroke-linejoin:round;stroke-miterlimit:1.5;">
    <g transform="matrix(1,0,0,1,-141,-1848)">
        <g id="apple-home" transform="matrix(1,0,0,1,141.796,1848.42)">
            <rect x="0" y="0" width="128" height="128"/>
            <g transform="matrix(1,0,0,1,2.45009,5.66684)">
                <g transform="matrix(1,0,0,1,-141.796,-1848.42)">
                    <path d="M166.796,1898.25C168.152,1896.89 200.723,1861.63 200.976,1861.12C202.82,1857.44 203.825,1861.45 230.312,1892.03C230.955,1884.41 229.25,1880.65 236.601,1882.08C237.151,1892.07 236.357,1892.67 243.406,1899.72C246.728,1903.05 234.497,1902.94 233.677,1902.93C234.667,1918.6 232.848,1945.83 231.597,1953.06C216.311,1952.41 173.81,1954.62 173.279,1952.76C172.044,1948.44 172.177,1905.85 172.1,1902.57C171.354,1902.73 171.351,1902.58 162.714,1904.22C163.965,1902.2 163.26,1901.79 166.796,1898.25Z" style="fill:none;stroke:white;stroke-width:2px;"/>
                </g>
                <g transform="matrix(1,0,0,1,-141.796,-1848.42)">
                    <path d="M201.274,1880.3C202.509,1880.19 187.653,1900.93 187.422,1901.2C184.478,1904.63 186.021,1905.2 187.434,1942.84C194.008,1941.41 193.959,1941.36 221.594,1941.87C221.645,1907.93 228.727,1905.39 218.655,1897.07C209.089,1889.17 205.517,1875.74 201.565,1879.69" style="fill:none;stroke:white;stroke-width:2px;"/>
                </g>
                <g transform="matrix(1,0,0,1,-141.796,-1848.42)">
                    <path d="M204.217,1895.01C203.239,1895 202.571,1898.01 197.44,1908.27C196.609,1909.93 196.361,1910.43 197.447,1931.51C200.488,1931.43 203.533,1931.63 206.574,1931.55C206.879,1931.54 206.856,1931.52 210.373,1931.24C216.181,1907.03 212.176,1903.6 210.405,1902.08C207.32,1899.44 205.224,1896.02 204.217,1895.01Z" style="fill:none;stroke:white;stroke-width:2px;"/>
                </g>
            </g>
        </g>
    </g>
</svg>
