<?xml version="1.0" encoding="UTF-8" standalone="no"?>
<!DOCTYPE svg PUBLIC "-//W3C//DTD SVG 1.1//EN" "http://www.w3.org/Graphics/SVG/1.1/DTD/svg11.dtd">
<svg width="100%" height="100%" viewBox="0 0 129 129" version="1.1" xmlns="http://www.w3.org/2000/svg" xmlns:xlink="http://www.w3.org/1999/xlink" xml:space="preserve" xmlns:serif="http://www.serif.com/" style="fill-rule:evenodd;clip-rule:evenodd;stroke-linecap:round;stroke-linejoin:round;stroke-miterlimit:1.5;">
    <g transform="matrix(1,0,0,1,-281,-2157)">
        <g id="appstore" transform="matrix(1,0,0,1,281.968,2157.64)">
            <rect x="0" y="0" width="128" height="128"/>
            <g transform="matrix(1,0,0,1,3.52524,5.95148)">
                <g transform="matrix(1,0,0,1,-281.968,-2157.64)">
                    <path d="M345.724,2180.77C335.887,2194.7 317.79,2221.85 315.393,2225.44C310.953,2232.1 309.525,2234.14 309.22,2234.75" style="fill:none;stroke:white;stroke-width:2px;"/>
                </g>
                <g transform="matrix(1,0,0,1,-281.968,-2157.64)">
                    <path d="M345.724,2180.77C346.193,2180.16 349.799,2174.08 355.15,2181.79C356.437,2183.65 321.967,2232.5 321.58,2233.46" style="fill:none;stroke:white;stroke-width:2px;"/>
                </g>
                <g transform="matrix(1,0,0,1,-281.968,-2157.64)">
                    <path d="M364.411,2231.68C356.343,2232.86 303.259,2232.67 299.204,2237.74C289.644,2249.69 365.812,2239.13 369.46,2240.95" style="fill:none;stroke:white;stroke-width:2px;"/>
                </g>
                <g transform="matrix(1,0,0,1,-281.968,-2157.64)">
                    <path d="M344.234,2201.58C343.203,2198.98 345.677,2205.5 363.143,2229.95C364.444,2231.77 382.365,2265.61 384.661,2254.13C386.431,2245.28 381.781,2246.53 364.577,2216.43C361.549,2211.12 351.055,2196.96 349.412,2193.68" style="fill:none;stroke:white;stroke-width:2px;"/>
                </g>
                <g transform="matrix(1,0,0,1,-281.968,-2157.64)">
                    <path d="M344.063,2182.77C344.311,2184.93 338.318,2172.67 335.067,2175.23C331.889,2177.74 331.532,2177.09 338.155,2190.33" style="fill:none;stroke:white;stroke-width:2px;"/>
                </g>
                <g transform="matrix(1,0,0,1,-281.968,-2157.64)">
                    <path d="M373.461,2230.41C372.955,2231.42 385.694,2229.54 386.366,2233.24C387.578,2239.9 380.871,2240.77 379.945,2240.09" style="fill:none;stroke:white;stroke-width:2px;"/>
                </g>
                <g transform="matrix(1,0,0,1,-281.968,-2157.64)">
                    <path d="M307.069,2243.31C294.852,2257.6 310.777,2252.67 311.295,2252.08C313.695,2249.38 314.014,2249.75 317.648,2244.3" style="fill:none;stroke:white;stroke-width:2px;"/>
                </g>
            </g>
        </g>
    </g>
</svg>
