<?xml version="1.0" encoding="UTF-8" standalone="no"?>
<!DOCTYPE svg PUBLIC "-//W3C//DTD SVG 1.1//EN" "http://www.w3.org/Graphics/SVG/1.1/DTD/svg11.dtd">
<svg width="100%" height="100%" viewBox="0 0 129 129" version="1.1" xmlns="http://www.w3.org/2000/svg" xmlns:xlink="http://www.w3.org/1999/xlink" xml:space="preserve" xmlns:serif="http://www.serif.com/" style="fill-rule:evenodd;clip-rule:evenodd;stroke-linecap:round;stroke-linejoin:round;stroke-miterlimit:1.5;">
    <g transform="matrix(1,0,0,1,-138,-3955)">
        <g id="arc-browser" transform="matrix(1,0,0,1,138.941,3955.56)">
            <rect x="0" y="0" width="128" height="128"/>
            <g transform="matrix(1.15745,0,0,1.15745,-9.96157,-19.17)">
                <g transform="matrix(0.998908,0.0696971,-0.0696041,0.997575,148.007,-3959.3)">
                    <path d="M217.039,4023.46C219.458,4020.9 222.017,4017.58 224.667,4013.28C224.824,4013.02 225.193,4013.24 226.268,4009.9C228.262,4003.69 236.932,4003.41 237.38,4009.29C238.32,4021.62 232.993,4030.89 225.216,4037.42" style="fill:none;stroke:white;stroke-width:1.73px;"/>
                </g>
                <g transform="matrix(0.998908,0.0696971,-0.0696041,0.997575,148.007,-3959.3)">
                    <path d="M210.266,4045.93C201.375,4049.26 192.234,4050.24 186.15,4049.13C148.086,4042.21 148.891,4010.6 162.135,4013.91C164.372,4014.47 167,4019.73 167.294,4020.31C167.989,4021.7 174.354,4037.19 198.246,4032.41C198.968,4032.27 200.13,4032.28 201.655,4032.11" style="fill:none;stroke:white;stroke-width:1.73px;"/>
                </g>
                <g transform="matrix(1,0,0,1,-138.941,-3955.56)">
                    <path d="M180.518,4027.66C182.225,4026.77 180.08,4025.44 190.565,4005.78C193.569,4000.15 196.124,3991.34 203.064,3990.35C209.349,3989.45 212.717,4003.64 215.563,4008.11C222.55,4019.09 228.561,4035.92 233.821,4043.28C234.044,4043.59 240.884,4056.08 237.62,4060.44C223.373,4079.43 207.741,4020.22 201.471,4028.58C201.382,4028.7 198.936,4031.03 198.408,4032.62" style="fill:none;stroke:white;stroke-width:1.73px;"/>
                </g>
                <g transform="matrix(1,0,0,1,-138.941,-3955.56)">
                    <path d="M191.061,4049.29C187.468,4056.79 183.455,4064.14 181.434,4064.39C177.34,4064.9 176.77,4064.06 172.489,4061.2C170.719,4060.03 172.659,4051.42 175.094,4043.14" style="fill:none;stroke:white;stroke-width:1.73px;"/>
                </g>
            </g>
        </g>
    </g>
</svg>
