<?xml version="1.0" encoding="UTF-8" standalone="no"?>
<!DOCTYPE svg PUBLIC "-//W3C//DTD SVG 1.1//EN" "http://www.w3.org/Graphics/SVG/1.1/DTD/svg11.dtd">
<svg width="100%" height="100%" viewBox="0 0 129 129" version="1.1" xmlns="http://www.w3.org/2000/svg" xmlns:xlink="http://www.w3.org/1999/xlink" xml:space="preserve" xmlns:serif="http://www.serif.com/" style="fill-rule:evenodd;clip-rule:evenodd;stroke-linecap:round;stroke-linejoin:round;stroke-miterlimit:1.5;">
    <g transform="matrix(1,0,0,1,0,-4558)">
        <g id="bancodobrasil" transform="matrix(1,0,0,1,0.476909,4558.94)">
            <rect x="0" y="0" width="128" height="128"/>
            <g transform="matrix(1.13754,0,0,1,-1.30438,-9.8103)">
                <g transform="matrix(0.993689,0.112169,-0.112169,0.993689,516.93,-4535.89)">
                    <path d="M24.812,4619.13C25.323,4618.44 41.902,4595.81 53.749,4581.01C68.987,4596.09 90.527,4603.38 88.123,4607.09C80.56,4618.78 63.497,4651.5 58.518,4657.43C55.054,4656.6 53.016,4654.21 51.545,4654.13C61.439,4635.8 75.532,4613.39 77.362,4608.61C65.834,4603.12 66.494,4600.33 54.972,4594.57C54.365,4595.25 45.933,4605.68 44.946,4607.14C50.858,4609.6 51.972,4611.22 52.045,4611.66C52.114,4612.07 45.652,4621.38 40.139,4627.28C32.092,4623.81 32.263,4623.62 24.812,4619.13Z" style="fill:none;stroke:white;stroke-width:1.89px;"/>
                </g>
                <g transform="matrix(-0.993689,-0.112169,0.112169,-0.993689,-402.113,4683.51)">
                    <path d="M24.812,4619.13C25.323,4618.44 41.902,4595.81 53.749,4581.01C68.987,4596.09 90.527,4603.38 88.123,4607.09C80.56,4618.78 64.08,4650.61 59.101,4656.54C53.314,4653.21 53.016,4654.21 51.545,4654.13C61.439,4635.8 75.532,4613.39 77.362,4608.61C65.834,4603.12 66.494,4600.33 54.972,4594.57C54.365,4595.25 45.933,4605.68 44.946,4607.14C50.858,4609.6 51.972,4611.22 52.045,4611.66C52.114,4612.07 45.652,4621.38 40.139,4627.28C32.092,4623.81 32.263,4623.62 24.812,4619.13Z" style="fill:none;stroke:white;stroke-width:1.89px;"/>
                </g>
                <g transform="matrix(1,0,0,1,-0.476909,-4558.94)">
                    <path d="M74.283,4592.17C74.833,4592.28 79.305,4585.12 79.858,4584.26C80.843,4586.75 79.953,4586.12 82.745,4590.7C81.501,4592.03 80.181,4594.02 78.812,4595.67C77.345,4594.13 74.542,4592.56 74.283,4592.17Z" style="fill:none;stroke:white;stroke-width:1.87px;"/>
                </g>
                <g transform="matrix(1,0,0,1,-0.476909,-4558.94)">
                    <path d="M36.077,4669.15C36.117,4668.94 38.548,4671.86 40.639,4672.91C41.993,4673.59 35.447,4679.18 34.383,4681.26C33.863,4676.97 33.404,4677.13 32.713,4672.79C32.974,4672.53 36.077,4669.15 36.077,4669.15Z" style="fill:none;stroke:white;stroke-width:1.87px;"/>
                </g>
            </g>
        </g>
    </g>
</svg>
