<?xml version="1.0" encoding="UTF-8" standalone="no"?>
<!DOCTYPE svg PUBLIC "-//W3C//DTD SVG 1.1//EN" "http://www.w3.org/Graphics/SVG/1.1/DTD/svg11.dtd">
<svg width="100%" height="100%" viewBox="0 0 129 129" version="1.1" xmlns="http://www.w3.org/2000/svg" xmlns:xlink="http://www.w3.org/1999/xlink" xml:space="preserve" xmlns:serif="http://www.serif.com/" style="fill-rule:evenodd;clip-rule:evenodd;stroke-linecap:round;stroke-linejoin:round;stroke-miterlimit:1.5;">
    <g transform="matrix(1,0,0,1,-278,-4558)">
        <g id="bankofamerica" transform="matrix(1,0,0,1,278.637,4558.94)">
            <rect x="0" y="0" width="128" height="128"/>
            <g transform="matrix(1.23019,0,0,1.23019,-23.259,-2.38332)">
                <g transform="matrix(1,0,0,1,-278.637,-4558.94)">
                    <path d="M330.495,4634.03C331.17,4631.63 357.25,4609.43 359.553,4607.84C365.83,4603.53 361.113,4605.44 374.36,4599.64C376.947,4602.44 377.021,4602.25 379.966,4604.76C359.932,4615.54 342.343,4637.45 340.494,4639.42C335.591,4636.52 335.439,4636.96 330.495,4634.03Z" style="fill:none;stroke:white;stroke-width:1.63px;"/>
                </g>
                <g transform="matrix(1,0,0,1,-278.637,-4558.94)">
                    <path d="M345.218,4642.13C345.538,4642.23 380.484,4609.73 386.045,4609.41C391.023,4613.89 392.56,4614.73 393.201,4615.08C371.748,4630.42 357.348,4647.17 356.274,4648.24C355.468,4647.63 348.822,4642.53 344.72,4642.98" style="fill:none;stroke:white;stroke-width:1.63px;"/>
                </g>
                <g transform="matrix(1,0,0,1,-276.59,-4559.02)">
                    <path d="M343.65,4607.82C343.642,4607.83 334.88,4615.41 327.752,4624.18C325.533,4626.91 325.556,4626.82 323.063,4629.34C319.861,4627.23 319.423,4626.85 315.571,4625.66C336.475,4603.33 337.532,4603.48 340.134,4603.85C340.554,4603.91 340.153,4604.33 343.65,4607.82Z" style="fill:none;stroke:white;stroke-width:1.63px;"/>
                </g>
                <g transform="matrix(1,0,0,1,-278.637,-4558.94)">
                    <path d="M336.465,4598.04C328.29,4603.88 313.367,4620.24 311.618,4622.13C306.171,4619.04 305.625,4619.09 306.046,4618.52C307.138,4617.06 317.573,4604.44 324.848,4597.89C327.724,4595.3 328.085,4595.92 330.976,4593.48C335.651,4597.84 335.911,4597.9 336.465,4598.04Z" style="fill:none;stroke:white;stroke-width:1.63px;"/>
                </g>
                <g transform="matrix(1,0,0,1,-278.637,-4558.94)">
                    <path d="M336.684,4589.45C336.993,4589.56 341.983,4594.26 349.971,4604.68C352.712,4602 352.928,4602.37 355.573,4599.72C356.934,4598.36 353.316,4598.43 342.561,4585.47C339.66,4586.43 338.01,4589.26 336.684,4589.45Z" style="fill:none;stroke:white;stroke-width:1.63px;"/>
                </g>
                <g transform="matrix(1,0,0,1,-278.637,-4558.94)">
                    <path d="M348.847,4581.53C348.847,4582.91 360.181,4594.24 361.228,4595.29C361.538,4595.6 361.364,4594.84 365.967,4592.54C367.077,4591.98 355.041,4577.39 354.197,4577.56C353.617,4577.67 355.061,4578.43 348.847,4581.53Z" style="fill:none;stroke:white;stroke-width:1.63px;"/>
                </g>
            </g>
        </g>
    </g>
</svg>
