<?xml version="1.0" encoding="UTF-8" standalone="no"?>
<!DOCTYPE svg PUBLIC "-//W3C//DTD SVG 1.1//EN" "http://www.w3.org/Graphics/SVG/1.1/DTD/svg11.dtd">
<svg width="100%" height="100%" viewBox="0 0 129 129" version="1.1" xmlns="http://www.w3.org/2000/svg" xmlns:xlink="http://www.w3.org/1999/xlink" xml:space="preserve" xmlns:serif="http://www.serif.com/" style="fill-rule:evenodd;clip-rule:evenodd;stroke-linecap:round;stroke-linejoin:round;stroke-miterlimit:1.5;">
    <g transform="matrix(1,0,0,1,-414,-475)">
        <g id="battery" transform="matrix(1,0,0,1,414.613,475.653)">
            <rect x="0" y="0" width="128" height="128"/>
            <g transform="matrix(1,0,0,1,-1.27135,4.84529)">
                <g transform="matrix(1,0,0,1,-275.531,-152.144)">
                    <path d="M290.127,190.929C289.972,194.371 288.2,233.568 290.808,233.994C296.184,234.872 296.125,232.229 358.873,232.229C369.221,232.229 381.311,232.091 385.348,230.11C384.941,214.892 385.165,215.071 384.838,199.71C384.821,198.921 384.583,199.114 384.329,189.858C365.058,191.464 361.131,186.415 315.261,189.374C306.122,189.964 306.337,191.683 290.808,190.13" style="fill:none;stroke:white;stroke-width:2px;"/>
                </g>
                <g transform="matrix(1,0,0,1,-275.531,-152.144)">
                    <path d="M385.776,202.032C387.693,198.715 388.451,201.614 392.149,202.231C392.27,202.251 392.219,202.264 391.886,216.379C388.809,216.106 389.05,215.805 385.846,215.591" style="fill:none;stroke:white;stroke-width:2px;"/>
                </g>
                <g transform="matrix(1,0,0,1,-275.531,-152.144)">
                    <path d="M294.707,192.167C294.742,195.513 295.03,222.928 295.346,233.994" style="fill:none;stroke:white;stroke-width:2px;"/>
                </g>
                <g transform="matrix(1,0,0,1,-275.531,-152.144)">
                    <path d="M378.087,191.297C378.181,193.28 378.774,205.708 379.04,216.096C379.274,225.227 379.161,225.107 379.544,230.465" style="fill:none;stroke:white;stroke-width:2px;"/>
                </g>
            </g>
        </g>
    </g>
</svg>
