<?xml version="1.0" encoding="UTF-8" standalone="no"?>
<!DOCTYPE svg PUBLIC "-//W3C//DTD SVG 1.1//EN" "http://www.w3.org/Graphics/SVG/1.1/DTD/svg11.dtd">
<svg width="100%" height="100%" viewBox="0 0 129 129" version="1.1" xmlns="http://www.w3.org/2000/svg" xmlns:xlink="http://www.w3.org/1999/xlink" xml:space="preserve" xmlns:serif="http://www.serif.com/" style="fill-rule:evenodd;clip-rule:evenodd;stroke-linecap:round;stroke-linejoin:round;stroke-miterlimit:1.5;">
    <g transform="matrix(1,0,0,1,0,-4412)">
        <g id="binance" transform="matrix(1,0,0,1,0.476909,4412.71)">
            <rect x="0" y="0" width="128" height="128"/>
            <g transform="matrix(1.18304,0,0,1.18304,-12.7966,-4.4154)">
                <g transform="matrix(1.07865,0,0,1,-2.52002,-4412.71)">
                    <path d="M41.7,4467.48C52.581,4455.69 52.182,4456.6 62.683,4444.6C64.015,4446.41 82.411,4467.76 82.411,4467.76C82.411,4467.76 83.943,4466.21 89.579,4459.63C87.899,4457.5 64.829,4430.33 63.036,4431.22C62.819,4431.33 34.564,4459.13 35.847,4461.06C36.233,4461.63 36.98,4462.76 41.7,4467.48Z" style="fill:none;stroke:white;stroke-width:1.63px;"/>
                </g>
                <g transform="matrix(1.07865,0,0,1,-2.52002,-4412.71)">
                    <path d="M32.282,4464.84C32.039,4464.4 37.53,4469.94 38.216,4470.85C37.734,4471.37 32.813,4476.7 32.162,4477.35C31.603,4476.93 28.876,4474.4 25.976,4471.9C26.56,4471.25 32.246,4464.91 32.282,4464.84Z" style="fill:none;stroke:white;stroke-width:1.63px;"/>
                </g>
                <g transform="matrix(-1.07865,0,0,-1,132.349,4528.37)">
                    <path d="M41.7,4467.48C52.581,4455.69 52.182,4456.6 62.683,4444.6C64.015,4446.41 82.411,4467.76 82.411,4467.76C82.411,4467.76 83.943,4466.21 89.579,4459.63C87.899,4457.5 64.829,4430.33 63.036,4431.22C62.819,4431.33 34.564,4459.13 35.847,4461.06C36.233,4461.63 36.98,4462.76 41.7,4467.48Z" style="fill:none;stroke:white;stroke-width:1.63px;"/>
                </g>
                <g transform="matrix(-1.07865,0,0,-1,132.349,4528.37)">
                    <path d="M32.282,4464.84C32.039,4464.4 37.53,4469.94 38.216,4470.85C37.734,4471.37 32.813,4476.7 32.162,4477.35C31.603,4476.93 28.876,4474.4 25.976,4471.9C26.56,4471.25 32.246,4464.91 32.282,4464.84Z" style="fill:none;stroke:white;stroke-width:1.63px;"/>
                </g>
                <g transform="matrix(-2.18464,0,0,-2.02533,135.137,9112.68)">
                    <path d="M32.282,4464.84C32.039,4464.4 37.53,4469.94 38.216,4470.85C37.734,4471.37 32.813,4476.7 32.162,4477.35C31.603,4476.93 28.876,4474.4 25.976,4471.9C26.56,4471.25 32.246,4464.91 32.282,4464.84Z" style="fill:none;stroke:white;stroke-width:0.8px;"/>
                </g>
            </g>
        </g>
    </g>
</svg>
