<?xml version="1.0" encoding="UTF-8" standalone="no"?>
<!DOCTYPE svg PUBLIC "-//W3C//DTD SVG 1.1//EN" "http://www.w3.org/Graphics/SVG/1.1/DTD/svg11.dtd">
<svg width="100%" height="100%" viewBox="0 0 129 129" version="1.1" xmlns="http://www.w3.org/2000/svg" xmlns:xlink="http://www.w3.org/1999/xlink" xml:space="preserve" xmlns:serif="http://www.serif.com/" style="fill-rule:evenodd;clip-rule:evenodd;stroke-linecap:round;stroke-linejoin:round;stroke-miterlimit:1.5;">
    <g transform="matrix(1,0,0,1,-140,-1695)">
        <g id="bitwarden" transform="matrix(1,0,0,1,140.687,1695.14)">
            <rect x="0" y="0" width="128" height="128"/>
            <g>
                <g transform="matrix(1,0,0,1,-140.687,-1695.14)">
                    <path d="M167.036,1722.68C166.625,1726.38 166.637,1728.86 168.006,1763.1C168.609,1778.17 176.529,1791.82 201.311,1804.97C211.263,1810.25 232.003,1786.88 234.649,1778.01C241.407,1755.35 238.877,1752.91 240.598,1728.82C241.164,1720.9 240.549,1720.98 241.089,1713.13C235.649,1713.39 182.599,1706.39 167.705,1713.5C167.288,1718.19 167.364,1718.08 167.036,1722.68Z" style="fill:none;stroke:white;stroke-width:2px;"/>
                </g>
                <g transform="matrix(1,6.93889e-18,0,1,-140.687,-1695.14)">
                    <path d="M206.397,1717.11C205.607,1716.14 207.66,1764.59 205.4,1798.76C207.142,1797.65 232.99,1784.71 233.646,1755.82C234.341,1725.24 235.104,1718.92 233.646,1718.8C232.109,1718.67 213.678,1716.3 206.397,1717.11Z" style="fill:none;stroke:white;stroke-width:2px;"/>
                </g>
            </g>
        </g>
    </g>
</svg>
