<?xml version="1.0" encoding="UTF-8" standalone="no"?>
<!DOCTYPE svg PUBLIC "-//W3C//DTD SVG 1.1//EN" "http://www.w3.org/Graphics/SVG/1.1/DTD/svg11.dtd">
<svg width="100%" height="100%" viewBox="0 0 129 129" version="1.1" xmlns="http://www.w3.org/2000/svg" xmlns:xlink="http://www.w3.org/1999/xlink" xml:space="preserve" xmlns:serif="http://www.serif.com/" style="fill-rule:evenodd;clip-rule:evenodd;stroke-linecap:round;stroke-linejoin:round;stroke-miterlimit:1.5;">
    <g transform="matrix(1,0,0,1,-278,-4710)">
        <g id="burgerking" transform="matrix(1,0,0,1,278.252,4710.94)">
            <rect x="0" y="0" width="128" height="128"/>
            <g transform="matrix(1,0,0,1,-3.66752,-0.243204)">
                <g transform="matrix(1.17965,0,0,1.17965,-333.846,-5563.8)">
                    <path d="M310.237,4750.91C311.752,4752.11 312.051,4750.28 334.379,4750.86C350.189,4751.28 363.95,4749.75 366.507,4749.46C373.976,4748.63 358.086,4726.18 344.323,4725.75C317.323,4724.9 309.687,4744.91 310.028,4750.35" style="fill:none;stroke:white;stroke-width:1.7px;"/>
                </g>
                <g transform="matrix(0.877122,0,0,0.877122,-240.159,-4126.54)">
                    <path d="M310.118,4757.35C310.699,4770.47 308.342,4774.71 312.832,4773.43C317.331,4772.15 324.485,4767.39 316.716,4765.2C325.44,4758.4 315.746,4755.72 311.175,4757.24" style="fill:none;stroke:white;stroke-width:2.28px;"/>
                </g>
                <g transform="matrix(0.877122,0,0,0.877122,-240.159,-4126.54)">
                    <path d="M313.821,4761.18C314.544,4761.31 314.483,4761.35 315.255,4761.19" style="fill:none;stroke:white;stroke-width:2.28px;"/>
                </g>
                <g transform="matrix(0.877122,0,0,0.877122,-240.159,-4126.54)">
                    <path d="M313.725,4768.46L314.745,4768.46" style="fill:none;stroke:white;stroke-width:2.28px;"/>
                </g>
                <g transform="matrix(0.877122,0,0,0.877122,-241.39,-4126.54)">
                    <path d="M324.934,4758.01C325.558,4769.03 325.615,4775.69 333.391,4771.8C336.645,4770.18 335.759,4757.65 335.759,4757.65L332.319,4757.74C332.319,4757.74 332.288,4763.34 331.901,4763.9C330.934,4765.3 329.201,4764.2 329.162,4764.05C329.041,4763.56 328.824,4757.81 328.824,4757.81C328.824,4757.81 326.675,4757.58 324.934,4758.01Z" style="fill:none;stroke:white;stroke-width:2.28px;"/>
                </g>
                <g transform="matrix(0.877122,0,0,0.877122,-240.159,-4126.54)">
                    <path d="M338.029,4756.8C337.947,4759.11 338.484,4762.6 338.294,4772.65C340.495,4772.56 340.063,4772.67 342.214,4772.58C342.116,4769.53 341.723,4768.74 341.774,4765.68C345.898,4770.4 346.012,4772.46 346.993,4772.19C348.653,4771.74 350.006,4772.62 349.232,4770.92C347.565,4767.25 347.456,4767.35 345.561,4763.83C349.929,4763.13 348.996,4758.39 345.841,4757.03C345.244,4756.78 342.877,4755.58 338.029,4756.8Z" style="fill:none;stroke:white;stroke-width:2.28px;"/>
                </g>
                <g transform="matrix(0.877122,0,0,0.877122,-204.93,-4126.54)">
                    <path d="M338.029,4756.8C337.947,4759.11 338.484,4762.6 338.294,4772.65C340.495,4772.56 340.063,4772.67 342.214,4772.58C342.116,4769.53 341.723,4768.74 341.774,4765.68C345.898,4770.4 346.012,4772.46 346.993,4772.19C348.653,4771.74 350.006,4772.62 349.232,4770.92C347.565,4767.25 347.456,4767.35 345.561,4763.83C349.929,4763.13 348.996,4758.39 345.841,4757.03C345.244,4756.78 342.877,4755.58 338.029,4756.8Z" style="fill:none;stroke:white;stroke-width:2.28px;"/>
                </g>
                <g transform="matrix(0.877122,0,0,0.877122,-240.159,-4126.54)">
                    <path d="M341.463,4760.53C341.38,4760.89 343.257,4760.12 343.411,4760.43" style="fill:none;stroke:white;stroke-width:2.28px;"/>
                </g>
                <g transform="matrix(0.877122,0,0,0.877122,-204.93,-4126.54)">
                    <path d="M341.463,4760.53C341.38,4760.89 343.257,4760.12 343.411,4760.43" style="fill:none;stroke:white;stroke-width:2.28px;"/>
                </g>
                <g transform="matrix(0.877122,0,0,0.877122,-240.081,-4125.96)">
                    <path d="M356.78,4756.04C353.309,4755.87 351.433,4764.71 353.454,4769.25C355.235,4773.26 367.086,4773.64 363.589,4763.15C363.522,4762.95 359.455,4762.51 358.609,4763.2C357.609,4764.03 360.414,4765.03 360.414,4765.03C360.414,4765.03 360.875,4766.13 359.754,4767.43C357.381,4770.2 351.505,4760.53 360.554,4759.4C362.117,4759.21 363.167,4759.8 362.665,4758.31C361.596,4755.16 357.631,4755.47 356.78,4756.04Z" style="fill:none;stroke:white;stroke-width:2.28px;"/>
                </g>
                <g transform="matrix(1.38787,0,0,2.35381,-401.791,-11129.9)">
                    <path d="M356.78,4756.04C353.309,4755.87 351.433,4764.71 353.454,4769.25C355.235,4773.26 367.086,4773.64 363.589,4763.15C363.522,4762.95 359.455,4762.51 358.609,4763.2C357.609,4764.03 360.414,4765.03 360.414,4765.03C360.414,4765.03 360.875,4766.13 359.754,4767.43C357.381,4770.2 351.505,4760.53 360.554,4759.4C362.117,4759.21 363.167,4759.8 362.665,4758.31C361.596,4755.16 357.631,4755.47 356.78,4756.04Z" style="fill:none;stroke:white;stroke-width:1.04px;"/>
                </g>
                <g transform="matrix(0.877122,0,0,0.877122,-240.159,-4125.4)">
                    <path d="M366.838,4754.94C366.901,4760.04 367.031,4760.64 367.224,4765.74C367.279,4767.18 367.298,4770.61 367.37,4771.23C369.909,4772.09 375.299,4771.3 375.433,4771.17C375.439,4771.16 375.861,4767.83 375.143,4767.79C373.809,4767.72 372.525,4768.24 371.33,4767.61C371.32,4767.32 371.267,4767.8 370.89,4764.67C372.939,4764.2 372.956,4764.35 375,4763.85C375.03,4761.77 375.571,4760.74 373.648,4761.01C373.422,4761.05 371.749,4761.28 370.801,4761.04C370.782,4759.9 370.915,4759.25 370.725,4758.11C370.637,4757.58 374.883,4758.06 375.047,4757.41C375.05,4757.4 375.192,4754.73 375.023,4754.65C374.92,4754.61 367.023,4754.76 366.838,4754.94Z" style="fill:none;stroke:white;stroke-width:2.28px;"/>
                </g>
                <g transform="matrix(0.769172,0,0,1.04658,-206.78,-4935.23)">
                    <path d="M314.773,4777.46C310.586,4776.93 309.478,4780.41 310.114,4803.3C310.352,4811.86 309.767,4814.97 318.289,4814.46C321.591,4814.27 318.872,4812.21 320.311,4799.26C324.539,4805.81 323.809,4806.92 327.969,4813.46C328.994,4815.07 334.136,4814.91 335.888,4814.21C339.315,4812.84 326.996,4796.36 324.794,4795.04C322.537,4793.68 329.223,4789.12 334.024,4781.68C337.534,4776.24 325.628,4775.45 324.267,4778.51C322.436,4782.63 322.645,4782.67 320.779,4786.82C320.681,4786.39 320.145,4786.15 320.047,4785.72C319.89,4785.03 320.689,4779.3 319.52,4777.55C319.069,4776.87 313.686,4777.41 313.191,4777.81" style="fill:none;stroke:white;stroke-width:2.18px;"/>
                </g>
                <g transform="matrix(0.884737,0,0,1.04658,-245.667,-4935.23)">
                    <path d="M339.575,4777.53C339.466,4778.68 340.311,4813.35 340.792,4813.67C342.805,4815.02 347.779,4813.27 348.351,4813.07C348.556,4799.98 347.372,4780.28 347.209,4779.3C346.683,4776.15 343.816,4777.35 340.001,4777.55" style="fill:none;stroke:white;stroke-width:2.06px;"/>
                </g>
                <g transform="matrix(0.884737,0,0,1.04658,-245.667,-4935.23)">
                    <path d="M351.57,4777.92C351.588,4777.9 353.129,4794.23 352.833,4812.5C353.454,4812.69 357.88,4814.08 360.921,4813.32C362.144,4813.02 355.665,4788.66 360.471,4795.07C362.825,4798.21 366.498,4812.94 369.799,4813.41C370.116,4813.45 373.728,4813.97 373.755,4812.79C374.004,4802.08 372.752,4802.23 372.085,4788.89C371.67,4780.58 371.279,4774.51 365.862,4777.22C363.455,4778.42 367.723,4797.6 363.936,4791.04C361.414,4786.68 360.793,4783.78 360.052,4780.82C359.606,4779.03 359.351,4777.43 357.039,4776.95C353.319,4776.2 351.854,4778.49 351.57,4777.92Z" style="fill:none;stroke:white;stroke-width:2.06px;"/>
                </g>
                <g transform="matrix(1,0,0,1,-278.252,-4710.94)">
                    <path d="M311.068,4819.2C311.515,4818.24 311.847,4819.85 319.67,4819.7C350.263,4819.11 350.188,4818.95 380.688,4817.53C377.734,4831.39 343.656,4828.57 328.777,4827.64C313.332,4826.67 311.316,4820.62 310.813,4819.12" style="fill:none;stroke:white;stroke-width:2px;"/>
                </g>
            </g>
        </g>
    </g>
</svg>
