<?xml version="1.0" encoding="UTF-8" standalone="no"?>
<!DOCTYPE svg PUBLIC "-//W3C//DTD SVG 1.1//EN" "http://www.w3.org/Graphics/SVG/1.1/DTD/svg11.dtd">
<svg width="100%" height="100%" viewBox="0 0 129 129" version="1.1" xmlns="http://www.w3.org/2000/svg" xmlns:xlink="http://www.w3.org/1999/xlink" xml:space="preserve" xmlns:serif="http://www.serif.com/" style="fill-rule:evenodd;clip-rule:evenodd;stroke-linecap:round;stroke-linejoin:round;stroke-miterlimit:1.5;">
    <g transform="matrix(1,0,0,1,-138,-4558)">
        <g id="caixa" transform="matrix(1,0,0,1,138.526,4558.94)">
            <rect x="0" y="0" width="128" height="128"/>
            <g transform="matrix(1.14056,0,0,1.14056,-9.82492,-8.57776)">
                <g>
                    <g transform="matrix(1,0,0,1,-138.526,-4558.94)">
                        <path d="M165.647,4659.59C168.307,4659.29 175.687,4639.83 187.48,4623.89C190.083,4624.36 203.088,4626.68 220.528,4624.62C221.158,4625.84 221.728,4625.38 230.255,4638.78C235.064,4646.34 240.071,4657.13 240.861,4658.7C238.663,4659.42 232.629,4660.28 210.439,4660.28C205.157,4652.49 205.063,4652.37 203.943,4650.89C202.83,4652.5 197.83,4658.42 196.153,4660.74C183.087,4659.28 174.843,4659.84 165.647,4659.59Z" style="fill:none;stroke:white;stroke-width:1.75px;"/>
                    </g>
                    <g transform="matrix(1,0,0,1,-138.526,-4558.94)">
                        <path d="M203.784,4651.1C203.662,4650.88 212.414,4636.23 214.452,4632.94C214.866,4632.27 218.622,4626.2 220.012,4624.81" style="fill:none;stroke:white;stroke-width:1.75px;"/>
                    </g>
                </g>
                <g transform="matrix(1,0,0,-1,0,127.267)">
                    <g transform="matrix(1,0,0,1,-138.526,-4558.94)">
                        <path d="M165.647,4659.59C168.307,4659.29 175.687,4639.83 187.48,4623.89C190.083,4624.36 203.088,4626.68 220.528,4624.62C221.158,4625.84 221.728,4625.38 230.255,4638.78C235.064,4646.34 240.071,4657.13 240.861,4658.7C238.663,4659.42 232.629,4660.28 210.439,4660.28C205.157,4652.49 205.063,4652.37 203.943,4650.89C202.83,4652.5 197.83,4658.42 196.153,4660.74C183.087,4659.28 174.843,4659.84 165.647,4659.59Z" style="fill:none;stroke:white;stroke-width:1.75px;"/>
                    </g>
                    <g transform="matrix(1,0,0,1,-138.526,-4558.94)">
                        <path d="M203.784,4651.1C203.662,4650.88 212.414,4636.23 214.452,4632.94C214.866,4632.27 218.622,4626.2 220.012,4624.81" style="fill:none;stroke:white;stroke-width:1.75px;"/>
                    </g>
                </g>
            </g>
        </g>
    </g>
</svg>
