<?xml version="1.0" encoding="UTF-8" standalone="no"?>
<!DOCTYPE svg PUBLIC "-//W3C//DTD SVG 1.1//EN" "http://www.w3.org/Graphics/SVG/1.1/DTD/svg11.dtd">
<svg width="100%" height="100%" viewBox="0 0 129 129" version="1.1" xmlns="http://www.w3.org/2000/svg" xmlns:xlink="http://www.w3.org/1999/xlink" xml:space="preserve" xmlns:serif="http://www.serif.com/" style="fill-rule:evenodd;clip-rule:evenodd;stroke-linecap:round;stroke-linejoin:round;stroke-miterlimit:1.5;">
    <g transform="matrix(1,0,0,1,-284,-2904)">
        <g id="calculator" transform="matrix(1,0,0,1,284.658,2904.92)">
            <rect x="0" y="0" width="128" height="128"/>
            <g transform="matrix(1,0,0,1,-1.69649,5.71093)">
                <g transform="matrix(1,0,0,0.939621,-284.658,-2728.65)">
                    <path d="M323.542,2922.25C317.412,2923.48 320.796,2953.65 321.394,2988.91C321.64,3003.4 319.792,3003.95 323.185,3008.62C325.434,3011.71 326.985,3013.84 370.874,3011.75C380.678,3011.28 381.916,3007.85 380.054,2984.88C375.296,2926.2 380.459,2919.71 369.083,2919.51C345.412,2919.09 326.979,2921.56 323.542,2922.25Z" style="fill:none;stroke:white;stroke-width:2.06px;"/>
                </g>
                <g transform="matrix(1,0,0,1,-284.658,-2904.92)">
                    <path d="M328.1,2934.03C328.324,2944.32 325.777,2946.64 330.35,2947.05C330.408,2947.05 368.498,2945.62 369.755,2941.22C374.283,2925.38 364.937,2928.04 348.485,2929.36C331.973,2930.68 332.008,2930.82 330.574,2930.93C328.705,2931.07 328.303,2933.62 328.1,2934.03Z" style="fill:none;stroke:white;stroke-width:2px;"/>
                </g>
                <g transform="matrix(1,0,0,1,-284.658,-2904.92)">
                    <path d="M329.23,2957.34C328.959,2957.75 328.743,2958.07 328.335,2963.39C328.242,2964.59 328.728,2965.1 336.417,2964.66C336.122,2959.78 340.934,2957.25 335.947,2956.9C332.325,2956.64 332.467,2957.15 329.902,2957.34" style="fill:none;stroke:white;stroke-width:2px;"/>
                </g>
                <g transform="matrix(1,0,0,1,-284.658,-2904.92)">
                    <path d="M328.111,2972.79C327.939,2977.77 325.532,2980.43 329.678,2979.73C334.909,2978.86 337.653,2980.91 337.29,2975.48C337.065,2972.1 337.186,2971.35 333.932,2971.23C330.873,2971.11 330.534,2969.47 328.335,2971.67" style="fill:none;stroke:white;stroke-width:2px;"/>
                </g>
                <g transform="matrix(1,0,0,1,-284.658,-2904.92)">
                    <path d="M327.743,2988.53C327.726,2988.85 327.68,2987.25 327.663,2987.57C327.614,2988.48 327.935,2995.83 328.111,2995.85C328.467,2995.89 337.395,2995.65 338.202,2995.62C337.587,2986.46 337.964,2986.04 337.066,2986C336.331,2985.97 332.184,2985.82 327.887,2986.67" style="fill:none;stroke:white;stroke-width:2px;"/>
                </g>
                <g transform="matrix(1,0,0,1,-284.658,-2904.92)">
                    <path d="M344.231,2956.67C344.414,2962.17 342.446,2964.97 348.037,2964.51C351.865,2964.19 351.75,2964.27 355.66,2963.59C354.671,2960.78 356.638,2957.47 355.649,2954.66C355.373,2953.87 355.033,2954.29 345.35,2956.22" style="fill:none;stroke:white;stroke-width:2px;"/>
                </g>
                <g transform="matrix(1,0,0,1,-284.658,-2904.92)">
                    <path d="M344.223,2973.09C344.57,2980.68 344.28,2980.95 344.903,2981.08C345.574,2981.21 355.43,2978.99 356.341,2978.79C356.281,2977.44 359.26,2967.41 344.679,2973.24" style="fill:none;stroke:white;stroke-width:2px;"/>
                </g>
                <g transform="matrix(1,0,0,1,-284.658,-2904.92)">
                    <path d="M345.292,2987.76C344.675,2987.46 344.884,2988.06 345.127,2996.33C350.515,2995.34 350.474,2996.53 355.873,2995.63C356.788,2995.48 357.389,2985.81 356.321,2985.78C351.148,2985.61 351.343,2985.95 346.246,2986.67" style="fill:none;stroke:white;stroke-width:2px;"/>
                </g>
                <g transform="matrix(1,0,0,1,-284.658,-2904.92)">
                    <path d="M361.207,2955.29C362.03,2959.13 361.633,2959.05 361.471,2962.91C366.396,2962.49 371.573,2962.09 372.452,2962.02C372.376,2959.11 372.3,2956.19 372.224,2953.28C367.165,2954.34 367.34,2954.23 362.142,2954.88" style="fill:none;stroke:white;stroke-width:2px;"/>
                </g>
                <g transform="matrix(1,0,0,1,-284.658,-2904.92)">
                    <path d="M361.89,2972.67C362.738,2984.36 361.725,2984.25 363.264,2995.91C364.173,2995.85 365.04,2995.46 365.949,2995.41C366.521,2995.37 366.48,2995.39 373.117,2995.17C373.156,2993.28 373.586,2972.28 371.77,2971.67C370.388,2971.21 363.542,2972.29 363.038,2972.79" style="fill:none;stroke:white;stroke-width:2px;"/>
                </g>
            </g>
        </g>
    </g>
</svg>
