<?xml version="1.0" encoding="UTF-8" standalone="no"?>
<!DOCTYPE svg PUBLIC "-//W3C//DTD SVG 1.1//EN" "http://www.w3.org/Graphics/SVG/1.1/DTD/svg11.dtd">
<svg width="100%" height="100%" viewBox="0 0 129 129" version="1.1" xmlns="http://www.w3.org/2000/svg" xmlns:xlink="http://www.w3.org/1999/xlink" xml:space="preserve" xmlns:serif="http://www.serif.com/" style="fill-rule:evenodd;clip-rule:evenodd;stroke-linecap:round;stroke-linejoin:round;stroke-miterlimit:1.5;">
    <g transform="matrix(1,0,0,1,-279,-923)">
        <g id="calendar" transform="matrix(1,0,0,1,279.61,923.708)">
            <rect x="0" y="0" width="128" height="128"/>
            <g transform="matrix(1,0,0,1,4.11673,1.77423)">
                <g transform="matrix(1,0,0,1,-279.61,-749.285)">
                    <path d="M311.27,768.175C292.716,772.814 300.589,795.465 302.099,834.727C302.693,850.174 304.059,854.552 334.317,857.302C335.505,857.41 354.007,854.944 355.717,854.716C370.504,852.744 378.829,854.374 379.703,828.142C381.83,764.34 369.309,767.316 366.769,766.999C336.945,763.271 310.486,768.848 310.095,768.88" style="fill:none;stroke:white;stroke-width:2px;"/>
                </g>
                <g transform="matrix(1,0,0,1,-279.61,-749.285)">
                    <path d="M299.042,792.397C303.299,792.027 303.332,793.584 352.424,790.516C365.053,789.726 364.844,789.304 377.587,789.575" style="fill:none;stroke:white;stroke-width:2px;"/>
                </g>
                <g transform="matrix(1,0,0,1,-279.61,-749.285)">
                    <path d="M318.774,816.738C320.027,816.938 320.756,817.054 328.905,804.531C328.909,824.136 329.871,823.96 330.319,843.663" style="fill:none;stroke:white;stroke-width:2px;"/>
                </g>
                <g transform="matrix(1,0,0,1,-279.61,-749.285)">
                    <path d="M356.011,805.32C357.864,797.997 337.363,811.956 352.189,820.852C369.819,831.43 356.503,845.14 351.248,837.784C344.167,827.87 363.124,807.8 355.011,805.096" style="fill:none;stroke:white;stroke-width:2px;"/>
                </g>
                <g transform="matrix(1,0,0,1,-279.61,-749.285)">
                    <path d="M325.615,775.7C316.304,777.393 322.111,787.674 325.145,785.107C330.265,780.774 329.858,775.462 324.204,777.346" style="fill:none;stroke:white;stroke-width:2px;"/>
                </g>
                <g transform="matrix(1,0,0,1,-279.61,-749.285)">
                    <path d="M339.725,775.935C335.261,777.721 329.488,784.65 340.666,786.047" style="fill:none;stroke:white;stroke-width:2px;"/>
                </g>
                <g transform="matrix(1,0,0,1,-279.61,-749.285)">
                    <path d="M347.56,775.307C356.26,774.093 357.014,774.187 357.833,774.289" style="fill:none;stroke:white;stroke-width:2px;"/>
                </g>
                <g transform="matrix(1,0,0,1,-279.61,-749.285)">
                    <path d="M353.641,775.588C352.682,776.793 353.164,776.934 353.6,786.518" style="fill:none;stroke:white;stroke-width:2px;"/>
                </g>
            </g>
        </g>
    </g>
</svg>
