<?xml version="1.0" encoding="UTF-8" standalone="no"?>
<!DOCTYPE svg PUBLIC "-//W3C//DTD SVG 1.1//EN" "http://www.w3.org/Graphics/SVG/1.1/DTD/svg11.dtd">
<svg width="100%" height="100%" viewBox="0 0 129 129" version="1.1" xmlns="http://www.w3.org/2000/svg" xmlns:xlink="http://www.w3.org/1999/xlink" xml:space="preserve" xmlns:serif="http://www.serif.com/" style="fill-rule:evenodd;clip-rule:evenodd;stroke-linecap:round;stroke-linejoin:round;stroke-miterlimit:1.5;">
    <g transform="matrix(1,0,0,1,-553,-4710)">
        <g id="capcut" transform="matrix(1,0,0,1,553.172,4710.94)">
            <rect x="0" y="0" width="128" height="128"/>
            <g transform="matrix(1,0,0,1,0.795734,-1.28583)">
                <g transform="matrix(1,0,0,1,-553.172,-4710.94)">
                    <path d="M574.403,4761.65C574.059,4755.8 574.829,4751.16 580.895,4748.04C588.812,4743.97 627.191,4744.17 629.161,4744.18C633.282,4744.19 643.579,4742.98 644.115,4750.48C644.186,4751.47 646.894,4750.37 657.172,4743.52C657.336,4743.41 657.243,4743.38 659.025,4741.9C658.986,4742.58 659.066,4742.57 658.831,4750.39C655.31,4752.82 623.171,4774.98 615.747,4782.06C617.156,4782.73 636.711,4791.61 638.535,4792.44C640.077,4793.14 654.949,4799.9 657.668,4801.51C657.792,4804.49 657.786,4804.39 657.667,4807.39C647.948,4804.27 644.283,4799.37 644.692,4805.09C645.175,4811.85 620.137,4810.41 584.789,4810.41C578.277,4810.41 576.319,4811.36 574.236,4805.11C574.168,4804.91 573.502,4803.82 573.806,4802.26" style="fill:none;stroke:white;stroke-width:2px;"/>
                </g>
                <g transform="matrix(1,0,0,1,-553.172,-4710.94)">
                    <path d="M573.806,4802.26C582.312,4795.88 581.247,4794.7 589.947,4788.62C591.007,4787.87 599.342,4782.67 601.228,4780.78" style="fill:none;stroke:white;stroke-width:2px;"/>
                </g>
                <g transform="matrix(1,0,0,1,-553.172,-4710.94)">
                    <path d="M601.283,4780.37C599.768,4779.86 579.094,4763.21 574.403,4761.65" style="fill:none;stroke:white;stroke-width:2px;"/>
                </g>
                <g transform="matrix(1,0,0,1,-553.172,-4710.94)">
                    <path d="M609.318,4785.97C607.542,4787.05 608.466,4788.14 588.678,4801.76C605.861,4799.56 615.608,4801.92 634.633,4799.37C627.244,4795.35 615.018,4791.89 609.249,4786.12" style="fill:none;stroke:white;stroke-width:2px;"/>
                </g>
                <g transform="matrix(1.09903,-0.0940648,-0.0917009,-1.07141,-173.115,5246.71)">
                    <path d="M609.318,4785.97C607.542,4787.05 608.466,4788.14 588.678,4801.76C605.861,4799.56 615.608,4801.92 634.633,4799.37C627.244,4795.35 615.018,4791.89 609.249,4786.12" style="fill:none;stroke:white;stroke-width:1.84px;"/>
                </g>
            </g>
        </g>
    </g>
</svg>
