<?xml version="1.0" encoding="UTF-8" standalone="no"?>
<!DOCTYPE svg PUBLIC "-//W3C//DTD SVG 1.1//EN" "http://www.w3.org/Graphics/SVG/1.1/DTD/svg11.dtd">
<svg width="100%" height="100%" viewBox="0 0 129 129" version="1.1" xmlns="http://www.w3.org/2000/svg" xmlns:xlink="http://www.w3.org/1999/xlink" xml:space="preserve" xmlns:serif="http://www.serif.com/" style="fill-rule:evenodd;clip-rule:evenodd;stroke-linecap:round;stroke-linejoin:round;stroke-miterlimit:1.5;">
    <g transform="matrix(1,0,0,1,-414,-4558)">
        <g id="citybank" transform="matrix(1,0,0,1,414.729,4558.94)">
            <rect x="0" y="0" width="128" height="128"/>
            <g transform="matrix(1.24209,0,0,1.24209,-8.84086,0.300027)">
                <g transform="matrix(1,0,0,1,-414.729,-4558.94)">
                    <path d="M464.204,4604.83C463.903,4606.3 464.372,4609.65 462.896,4608.42C462.658,4608.23 451.924,4607.51 451.127,4607.61C441.564,4608.8 432.145,4634.76 451.617,4636.7C456.709,4637.21 459.045,4630.8 461.425,4635.56C463.583,4639.87 443.874,4648.06 436.414,4630.65C426.357,4607.19 451.591,4598.68 463.223,4604.5C463.297,4604.54 463.714,4604.74 464.204,4604.83Z" style="fill:none;stroke:white;stroke-width:1.61px;"/>
                </g>
                <g transform="matrix(1,0,0,1,-412.703,-4558.94)">
                    <path d="M469.004,4601.78C469.281,4620.03 467.984,4621.53 468.944,4639.8C471.56,4640.14 471.405,4640.12 474.179,4640.32C473.192,4619.89 473.77,4608.02 474.013,4603.52C474.174,4600.53 471.044,4601.9 469.004,4601.78Z" style="fill:none;stroke:white;stroke-width:1.61px;"/>
                </g>
                <g transform="matrix(1,0,0,1,-380.163,-4558.94)">
                    <path d="M469.004,4601.78C469.281,4620.03 467.984,4621.53 468.944,4639.8C471.56,4640.14 471.405,4640.12 474.179,4640.32C473.192,4619.89 473.77,4608.02 474.013,4603.52C474.174,4600.53 471.044,4601.9 469.004,4601.78Z" style="fill:none;stroke:white;stroke-width:1.61px;"/>
                </g>
                <g transform="matrix(1,0,0,1,-409.92,-4558.94)">
                    <path d="M477.851,4600.83C477.851,4600.83 477.925,4602.09 478.106,4606.81L481.076,4606.46C481.776,4617.79 477.042,4644.45 490.687,4641.28C492.908,4640.77 494.12,4635.23 494.12,4635.23C488.273,4635.49 488.102,4635.32 487.744,4634.25C485.611,4627.85 487.655,4627.68 486.432,4606.64C488.568,4606.46 490.798,4606.52 490.798,4606.52L490.897,4600.46C490.897,4600.46 488.297,4600.21 486.235,4600.3C486.195,4599.51 485.752,4591.2 486.276,4590.58C486.594,4590.2 480.865,4594.17 480.865,4594.17L481.043,4600.84C481.043,4600.84 479.581,4600.95 477.851,4600.83Z" style="fill:none;stroke:white;stroke-width:1.61px;"/>
                </g>
                <g transform="matrix(1,0,0,1,-414.729,-4558.94)">
                    <path d="M468.241,4594.78C469.232,4594.46 479.785,4578.03 496.826,4586.55C503.094,4589.68 504.511,4593.36 506.417,4595.7C506.915,4595.64 512.018,4595.04 512.65,4595C508.804,4589.59 502.892,4581.9 497.817,4580.2C492.711,4578.5 470.488,4575.28 461.197,4595.11C464.34,4594.97 464.684,4595.14 468.241,4594.78Z" style="fill:none;stroke:white;stroke-width:1.61px;"/>
                </g>
            </g>
        </g>
    </g>
</svg>
