<?xml version="1.0" encoding="UTF-8" standalone="no"?>
<!DOCTYPE svg PUBLIC "-//W3C//DTD SVG 1.1//EN" "http://www.w3.org/Graphics/SVG/1.1/DTD/svg11.dtd">
<svg width="100%" height="100%" viewBox="0 0 129 129" version="1.1" xmlns="http://www.w3.org/2000/svg" xmlns:xlink="http://www.w3.org/1999/xlink" xml:space="preserve" xmlns:serif="http://www.serif.com/" style="fill-rule:evenodd;clip-rule:evenodd;stroke-linecap:round;stroke-linejoin:round;stroke-miterlimit:1.5;">
    <g transform="matrix(1,0,0,1,-553,-475)">
        <g id="cpu" transform="matrix(1,0,0,1,553.986,475.653)">
            <rect x="0" y="0" width="128" height="128"/>
            <g transform="matrix(1,0,0,1,0.089372,1.06262)">
                <g transform="matrix(1,0,0,1,-411.84,-152.144)">
                    <path d="M434.794,172.094C439.23,202.897 428.941,245.815 444.699,255.57C452.047,260.119 517.681,255.932 518.093,255.063C524.029,242.531 519.558,241.791 516.827,170.787C516.614,165.238 512.965,169.522 445.964,169.522C438.741,169.522 437.273,169.197 435.841,176.355" style="fill:none;stroke:white;stroke-width:2px;"/>
                </g>
                <g transform="matrix(1,0,0,1,-411.84,-152.144)">
                    <path d="M445.711,161.929C445.529,162.657 444.593,166.4 445.205,171.293" style="fill:none;stroke:white;stroke-width:2px;"/>
                </g>
                <g transform="matrix(1,0,0,1,-411.84,-152.144)">
                    <path d="M461.149,161.929C461.428,166.249 461.627,166.037 461.402,170.534" style="fill:none;stroke:white;stroke-width:2px;"/>
                </g>
                <g transform="matrix(1,0,0,1,-411.84,-152.144)">
                    <path d="M477.051,161.685C476.84,170.028 476.863,170.096 477.093,170.787" style="fill:none;stroke:white;stroke-width:2px;"/>
                </g>
                <g transform="matrix(1,0,0,1,-411.84,-152.144)">
                    <path d="M493.363,162.189C492.646,165.891 492.785,165.735 493.038,169.522" style="fill:none;stroke:white;stroke-width:2px;"/>
                </g>
                <g transform="matrix(1,0,0,1,-411.84,-152.144)">
                    <path d="M506.62,162.323C506.432,162.826 506.695,162.801 506.198,169.015" style="fill:none;stroke:white;stroke-width:2px;"/>
                </g>
                <g transform="matrix(1,0,0,1,-411.84,-152.144)">
                    <path d="M517.84,176.355C515.286,178.057 521.472,175.204 524.167,176.102" style="fill:none;stroke:white;stroke-width:2px;"/>
                </g>
                <g transform="matrix(1,0,0,1,-411.84,-152.144)">
                    <path d="M516.321,189.515C517.011,189.558 524.42,190.021 524.926,190.274" style="fill:none;stroke:white;stroke-width:2px;"/>
                </g>
                <g transform="matrix(1,0,0,1,-411.84,-152.144)">
                    <path d="M518.346,205.712C518.915,205.764 519.862,206.979 524.926,204.447" style="fill:none;stroke:white;stroke-width:2px;"/>
                </g>
                <g transform="matrix(1,0,0,1,-411.84,-152.144)">
                    <path d="M520.371,222.669C521.558,221.481 526.023,219.97 527.204,222.922" style="fill:none;stroke:white;stroke-width:2px;"/>
                </g>
                <g transform="matrix(1,0,0,1,-411.84,-152.144)">
                    <path d="M521.153,235.415C522.593,235.333 526.694,234.411 528.722,234.817" style="fill:none;stroke:white;stroke-width:2px;"/>
                </g>
                <g transform="matrix(1,0,0,1,-411.84,-152.144)">
                    <path d="M519.611,248.483C522.793,248.938 522.488,248.586 526.445,247.977" style="fill:none;stroke:white;stroke-width:2px;"/>
                </g>
                <g transform="matrix(1,0,0,1,-411.84,-152.144)">
                    <path d="M510.5,258.1C511.449,259.049 511.024,259.045 511.26,264.934" style="fill:none;stroke:white;stroke-width:2px;"/>
                </g>
                <g transform="matrix(1,0,0,1,-411.84,-152.144)">
                    <path d="M499.871,257.341L499.871,266.705" style="fill:none;stroke:white;stroke-width:2px;"/>
                </g>
                <g transform="matrix(1,0,0,1,-411.84,-152.144)">
                    <path d="M488.429,257.876C487.976,266.452 487.986,266.442 487.47,266.958" style="fill:none;stroke:white;stroke-width:2px;"/>
                </g>
                <g transform="matrix(1,0,0,1,-411.84,-152.144)">
                    <path d="M475.977,258.279L476.334,267.464" style="fill:none;stroke:white;stroke-width:2px;"/>
                </g>
                <g transform="matrix(1,0,0,1,-411.84,-152.144)">
                    <path d="M466.982,259.421C467.236,258.829 466.455,260.645 466.717,267.464" style="fill:none;stroke:white;stroke-width:2px;"/>
                </g>
                <g transform="matrix(1,0,0,1,-411.84,-152.144)">
                    <path d="M453.623,259.924C453.304,260.378 452.84,267.791 452.798,268.477" style="fill:none;stroke:white;stroke-width:2px;"/>
                </g>
                <g transform="matrix(1,0,0,1,-411.84,-152.144)">
                    <path d="M437.714,247.703C427.78,245.435 427.722,245.883 427.236,245.952" style="fill:none;stroke:white;stroke-width:2px;"/>
                </g>
                <g transform="matrix(1,0,0,1,-411.84,-152.144)">
                    <path d="M434.829,237.095C430.02,236.841 427.135,236.223 426.477,236.082" style="fill:none;stroke:white;stroke-width:2px;"/>
                </g>
                <g transform="matrix(1,0,0,1,-411.84,-152.144)">
                    <path d="M436.64,222.052C431.397,222.214 431.677,222.275 426.73,221.657" style="fill:none;stroke:white;stroke-width:2px;"/>
                </g>
                <g transform="matrix(1,0,0,1,-411.84,-152.144)">
                    <path d="M436.094,209.002C428.333,209.973 426.945,210.667 426.224,211.027" style="fill:none;stroke:white;stroke-width:2px;"/>
                </g>
                <g transform="matrix(1,0,0,1,-411.84,-152.144)">
                    <path d="M435.768,195.999C428.969,200.363 417.831,193.417 425.212,197.108" style="fill:none;stroke:white;stroke-width:2px;"/>
                </g>
                <g transform="matrix(1,0,0,1,-411.84,-152.144)">
                    <path d="M436.472,182.938C432.972,183.359 429.471,183.78 425.971,184.2" style="fill:none;stroke:white;stroke-width:2px;"/>
                </g>
            </g>
        </g>
    </g>
</svg>
