<?xml version="1.0" encoding="UTF-8" standalone="no"?>
<!DOCTYPE svg PUBLIC "-//W3C//DTD SVG 1.1//EN" "http://www.w3.org/Graphics/SVG/1.1/DTD/svg11.dtd">
<svg width="100%" height="100%" viewBox="0 0 129 129" version="1.1" xmlns="http://www.w3.org/2000/svg" xmlns:xlink="http://www.w3.org/1999/xlink" xml:space="preserve" xmlns:serif="http://www.serif.com/" style="fill-rule:evenodd;clip-rule:evenodd;stroke-linecap:round;stroke-linejoin:round;stroke-miterlimit:1.5;">
    <g transform="matrix(1,0,0,1,-140,-1388)">
        <g id="twitch" transform="matrix(1,0,0,1,140.212,1388.99)">
            <rect x="0" y="0" width="128" height="128"/>
            <g transform="matrix(1,0,0,1,1.13262,8.1863)">
                <g transform="matrix(1,0,0,1,-140.212,-1214.57)">
                    <path d="M165.336,1240.44C152.445,1260.34 157.058,1262.06 152.279,1281.17C151.227,1285.38 168.979,1295.53 170.639,1296.47C176.788,1299.99 177.149,1298.73 183.58,1301.47C185.014,1298.82 186.448,1296.16 187.882,1293.51C183.515,1290.09 183.624,1290.21 179.832,1286.01C183.432,1287.15 210.029,1295.52 226.993,1287.04" style="fill:none;stroke:white;stroke-width:2px;"/>
                </g>
                <g transform="matrix(1,0,0,1,-140.212,-1214.57)">
                    <path d="M166.182,1240.68C166.761,1236.81 177.936,1234.95 179.054,1234.77C188.47,1233.19 189.701,1232.73 195.076,1240.65C196.763,1239.85 206.499,1235.28 218.379,1240.65C223.23,1233.87 224.729,1236.75 233.113,1237.06C237.244,1237.21 243.253,1240.22 244.078,1240.63" style="fill:none;stroke:white;stroke-width:2px;"/>
                </g>
                <g transform="matrix(1,0,0,1,-140.212,-1214.57)">
                    <path d="M244.132,1241.05C250.771,1245.17 256.756,1281.83 252.493,1290.35C252.226,1290.89 239.18,1305.37 228.268,1306.93C227.384,1307.06 228.589,1306.08 224.472,1296.43C227.848,1291.72 227.966,1291.93 230.126,1286.38C229.833,1286.51 226.582,1287.96 226.483,1288.06" style="fill:none;stroke:white;stroke-width:2px;"/>
                </g>
                <g transform="matrix(1,0,0,1,-140.212,-1214.57)">
                    <path d="M189.753,1261.14C185.051,1255.66 176.694,1274.33 189.253,1272.76C198.77,1271.57 195.037,1255.46 186.449,1259.75" style="fill:none;stroke:white;stroke-width:2px;"/>
                </g>
                <g transform="matrix(1,0,0,1,-140.212,-1214.57)">
                    <path d="M216.028,1261.28C204.735,1263.54 212.677,1277.12 218.833,1272.5C222.646,1269.64 220.42,1255.36 213.478,1262.3" style="fill:none;stroke:white;stroke-width:2px;"/>
                </g>
            </g>
        </g>
    </g>
</svg>
