<?xml version="1.0" encoding="UTF-8" standalone="no"?>
<!DOCTYPE svg PUBLIC "-//W3C//DTD SVG 1.1//EN" "http://www.w3.org/Graphics/SVG/1.1/DTD/svg11.dtd">
<svg width="100%" height="100%" viewBox="0 0 129 129" version="1.1" xmlns="http://www.w3.org/2000/svg" xmlns:xlink="http://www.w3.org/1999/xlink" xml:space="preserve" xmlns:serif="http://www.serif.com/" style="fill-rule:evenodd;clip-rule:evenodd;stroke-linecap:round;stroke-linejoin:round;stroke-miterlimit:1.5;">
    <g transform="matrix(1,0,0,1,-1,-2315)">
        <g id="dropbox" transform="matrix(1,0,0,1,1.59335,2315.45)">
            <rect x="0" y="0" width="128" height="128"/>
            <g transform="matrix(1,0,0,1,0.871395,0.101716)">
                <g transform="matrix(1.10596,0,0,1,-4.43505,-2315.45)">
                    <path d="M46.04,2365.87C47.535,2365.05 49.501,2363.98 61.333,2351.07C67.034,2358.23 76.603,2367.45 77.737,2368.78C65.904,2380.67 67.294,2381.81 61.999,2386.53C48.881,2370.83 48.725,2370.92 48.219,2369.65C47.517,2367.9 47.527,2368.09 46.25,2366.81" style="fill:none;stroke:white;stroke-width:1.9px;"/>
                </g>
                <g transform="matrix(1.10596,0,0,1,-4.43505,-2315.45)">
                    <path d="M77.722,2368.97C85.135,2363.14 93.713,2354.57 95.036,2353.24C96.42,2351.86 93.931,2352.61 77.095,2336.62C65.978,2347.75 65.721,2349.53 61.346,2351.71" style="fill:none;stroke:white;stroke-width:1.9px;"/>
                </g>
                <g transform="matrix(1.10596,0,0,1,-4.43505,-2315.45)">
                    <path d="M78.041,2368.8C78.067,2368.94 78.036,2368.84 91.973,2382.78C94.073,2384.88 88.524,2395.67 77.572,2402.28C69.067,2395.31 62.854,2387.69 61.598,2386.43" style="fill:none;stroke:white;stroke-width:1.9px;"/>
                </g>
                <g transform="matrix(1.10596,0,0,1,-4.43505,-2315.45)">
                    <path d="M62.31,2386C61.409,2387.18 57.559,2390.07 47.563,2400.06C41.731,2405.89 41.785,2399.7 36.406,2393.5C25.826,2381.29 26.195,2379.97 27.436,2379.5C31.645,2377.88 42.797,2368.22 45.802,2366.21" style="fill:none;stroke:white;stroke-width:1.9px;"/>
                </g>
                <g transform="matrix(1,0,0,1,-1.59335,-2315.45)">
                    <path d="M64.519,2391.97C64.049,2391.28 59.659,2397.18 52.32,2403.48C49.544,2405.86 49.36,2405.53 47.875,2406.55C48.832,2407.68 55.035,2414.97 60.286,2420.22C61.563,2421.5 61.612,2422.57 63.98,2424.58C73.085,2413.22 77.452,2409.9 79.802,2405.72C75.547,2403.21 69.692,2397.29 67.293,2394.62C64.997,2392.07 65.143,2391.96 64.933,2391.75" style="fill:none;stroke:white;stroke-width:2px;"/>
                </g>
                <g transform="matrix(1.10596,0,0,1,-4.43505,-2315.45)">
                    <path d="M61.742,2351.31C54.758,2345.33 53.795,2341.64 45.338,2334.12C36.366,2345.24 29.637,2345.34 32.906,2351.06C34.924,2354.59 44.583,2365.59 44.719,2365.93" style="fill:none;stroke:white;stroke-width:1.9px;"/>
                </g>
            </g>
        </g>
    </g>
</svg>
