<?xml version="1.0" encoding="UTF-8" standalone="no"?>
<!DOCTYPE svg PUBLIC "-//W3C//DTD SVG 1.1//EN" "http://www.w3.org/Graphics/SVG/1.1/DTD/svg11.dtd">
<svg width="100%" height="100%" viewBox="0 0 129 129" version="1.1" xmlns="http://www.w3.org/2000/svg" xmlns:xlink="http://www.w3.org/1999/xlink" xml:space="preserve" xmlns:serif="http://www.serif.com/" style="fill-rule:evenodd;clip-rule:evenodd;stroke-linecap:round;stroke-linejoin:round;stroke-miterlimit:1.5;">
    <g transform="matrix(1,0,0,1,-562,-3652)">
        <g id="duckduckgo" transform="matrix(1,0,0,1,562.755,3652.22)">
            <rect x="0" y="0" width="128" height="128"/>
            <g transform="matrix(1,0,0,1,-0.860074,3.52915)">
                <g transform="matrix(1,0,0,1,-562.755,-3652.22)">
                    <path d="M605.15,3675.84C601.834,3677.5 562.601,3721.38 604.363,3749.22C605.932,3750.27 658.523,3777.84 668.299,3728.96C671.954,3710.68 671.266,3676.39 649.02,3669.55C632.768,3664.55 618.308,3669.79 610.834,3672.53C608.094,3673.54 605.543,3675.65 605.15,3675.84Z" style="fill:none;stroke:white;stroke-width:2px;"/>
                </g>
                <g transform="matrix(1,0,0,1,-562.755,-3652.22)">
                    <path d="M606.619,3684.86C597.297,3692.81 586.752,3718.49 603.379,3734.07C607.285,3737.74 608.203,3742.8 628.363,3747.45C660.903,3754.96 670.689,3713.36 655.118,3686.66C646.337,3671.61 616.794,3674.63 605.74,3685.68" style="fill:none;stroke:white;stroke-width:2px;"/>
                </g>
                <g transform="matrix(1.10624,0.113966,-0.115463,1.12077,-202.649,-4178.58)">
                    <path d="M624.16,3746.63C621.297,3732.75 619.759,3734.33 615.97,3715.39C613.529,3703.18 615.682,3701.7 625.195,3697.43C621.047,3696.21 621.2,3696.19 616.865,3695.5C617.769,3695.09 622.886,3690.7 628.954,3694.34C631.781,3696.03 635.98,3692.1 638.987,3698.86C639.754,3700.59 640.539,3705.07 641.973,3709.37" style="fill:none;stroke:white;stroke-width:1.79px;"/>
                </g>
                <g transform="matrix(1.10624,0.113966,-0.115463,1.12077,-202.649,-4178.58)">
                    <path d="M636.779,3714.06C638.43,3713.12 638.112,3710.72 642.331,3709.88C646.496,3709.04 646.277,3708.63 650.593,3707.91C660.145,3706.32 649.097,3714.62 644.101,3716.76C639.622,3718.68 639.002,3723.45 644.495,3722.07C645.072,3721.93 651.837,3717.31 652.561,3721.29C653.981,3729.1 623.249,3734.35 636.779,3714.06Z" style="fill:none;stroke:white;stroke-width:1.79px;"/>
                </g>
                <g transform="matrix(1.10624,0.113966,-0.115463,1.12077,-202.649,-4178.58)">
                    <path d="M637.64,3729.14C637.12,3730.07 636.618,3735.15 637.059,3737.35" style="fill:none;stroke:white;stroke-width:1.79px;"/>
                </g>
                <g transform="matrix(1.10624,0.113966,-0.115463,1.12077,-202.649,-4178.58)">
                    <path d="M637.196,3737.84C632.037,3736.25 635.971,3744.5 637.413,3743.32C641.121,3740.29 638.683,3736.74 637.019,3738.4" style="fill:none;stroke:white;stroke-width:1.79px;"/>
                </g>
                <g transform="matrix(1.10624,0.113966,-0.115463,1.12077,-202.649,-4178.58)">
                    <path d="M638.892,3738.25C639.007,3738.91 643.764,3734.06 645.085,3736.04C647.71,3739.98 640.453,3741.46 640.364,3741.55" style="fill:none;stroke:white;stroke-width:1.79px;"/>
                </g>
                <g transform="matrix(1.10624,0.113966,-0.115463,1.12077,-202.649,-4178.58)">
                    <path d="M634.744,3740.08C629.591,3738.64 627.372,3744.67 632.495,3744.3C633.243,3744.25 634.417,3742.38 634.659,3742.14" style="fill:none;stroke:white;stroke-width:1.79px;"/>
                </g>
                <g transform="matrix(1.10624,0.113966,-0.115463,1.12077,-202.649,-4178.58)">
                    <path d="M637.525,3743.8C637.758,3745.76 638.424,3747.68 638.52,3747.97" style="fill:none;stroke:white;stroke-width:1.79px;"/>
                </g>
                <g transform="matrix(1.10624,0.113966,-0.115463,1.12077,-202.649,-4178.58)">
                    <path d="M623.178,3709C619.525,3710.32 621.853,3713.11 623.593,3712.53C625.074,3712.04 625.505,3708.15 623.178,3709Z" style="fill:none;stroke:white;stroke-width:1.79px;"/>
                </g>
                <g transform="matrix(1.10624,0.113966,-0.115463,1.12077,-202.649,-4178.58)">
                    <path d="M634.196,3706.5C632.407,3707.32 634.149,3710.77 635.964,3708.79C638.38,3706.15 635.922,3705.72 634.196,3706.5Z" style="fill:none;stroke:white;stroke-width:1.79px;"/>
                </g>
                <g transform="matrix(1.10624,0.113966,-0.115463,1.12077,-202.649,-4178.58)">
                    <path d="M619.963,3707.17C620.146,3706.95 621.922,3704.78 623.074,3705.36" style="fill:none;stroke:white;stroke-width:1.79px;"/>
                </g>
                <g transform="matrix(1.10624,0.113966,-0.115463,1.12077,-202.649,-4178.58)">
                    <path d="M631.02,3703.14C631.398,3702.75 634.606,3700.68 634.924,3700.47" style="fill:none;stroke:white;stroke-width:1.79px;"/>
                </g>
            </g>
        </g>
    </g>
</svg>
