<?xml version="1.0" encoding="UTF-8" standalone="no"?>
<!DOCTYPE svg PUBLIC "-//W3C//DTD SVG 1.1//EN" "http://www.w3.org/Graphics/SVG/1.1/DTD/svg11.dtd">
<svg width="100%" height="100%" viewBox="0 0 129 129" version="1.1" xmlns="http://www.w3.org/2000/svg" xmlns:xlink="http://www.w3.org/1999/xlink" xml:space="preserve" xmlns:serif="http://www.serif.com/" style="fill-rule:evenodd;clip-rule:evenodd;stroke-linecap:round;stroke-linejoin:round;stroke-miterlimit:1.5;">
    <g transform="matrix(1,0,0,1,-141,-2904)">
        <g id="explorer" transform="matrix(1,0,0,1,141.632,2904.92)">
            <rect x="0" y="0" width="128" height="128"/>
            <g transform="matrix(1,0,0,1,3.86032,2.22894)">
                <g transform="matrix(1,0,0,1,-141.632,-2904.92)">
                    <path d="M158.013,2945.84C157.208,2982.07 156.969,3002.78 166.688,3003.1C227.707,3005.07 234.715,3002.73 240.305,3000.87C252.711,2996.73 239.938,2955.17 244.054,2933.68C223.47,2937.14 212.862,2935.01 206.137,2934.85C201.178,2940.88 200.161,2939.61 193.229,2944.64C186.745,2943.83 164.075,2946.8 158.013,2945.84Z" style="fill:none;stroke:white;stroke-width:2px;"/>
                </g>
                <g transform="matrix(1,0,0,1,-141.632,-2904.92)">
                    <path d="M206.269,2935.47C202.586,2930.09 202.825,2929.89 201.813,2929.63C200.897,2929.41 168.384,2929.51 161.425,2930.91C157.297,2931.73 158.161,2945.42 158.086,2946.33" style="fill:none;stroke:white;stroke-width:2px;"/>
                </g>
                <g transform="matrix(1,0,0,0.729518,-141.632,-2092.64)">
                    <path d="M184.64,3002.94C184.487,3003.24 181.633,2990.09 185.594,2984.81C191.816,2976.51 211.928,2979.53 214.534,2980.84C221.106,2984.12 219.781,3000.6 219.781,3003.1" style="fill:none;stroke:white;stroke-width:2.29px;"/>
                </g>
                <g transform="matrix(1,0,0,1,-141.632,-2904.92)">
                    <path d="M193.067,3003.73C192.939,2999.36 192.478,2999.44 192.746,2994.51C200.792,2994.99 200.777,2993.29 208.631,2994.69C209.161,2996.7 209.321,3001.45 209.763,3002.78" style="fill:none;stroke:white;stroke-width:2px;"/>
                </g>
            </g>
        </g>
    </g>
</svg>
