<?xml version="1.0" encoding="UTF-8" standalone="no"?>
<!DOCTYPE svg PUBLIC "-//W3C//DTD SVG 1.1//EN" "http://www.w3.org/Graphics/SVG/1.1/DTD/svg11.dtd">
<svg width="100%" height="100%" viewBox="0 0 129 129" version="1.1" xmlns="http://www.w3.org/2000/svg" xmlns:xlink="http://www.w3.org/1999/xlink" xml:space="preserve" xmlns:serif="http://www.serif.com/" style="fill-rule:evenodd;clip-rule:evenodd;stroke-linecap:round;stroke-linejoin:round;stroke-miterlimit:1.5;">
    <g transform="matrix(1,0,0,1,-557,-3198)">
        <g id="facebook" transform="matrix(1,0,0,1,557.528,3198.77)">
            <rect x="0" y="0" width="128" height="128"/>
            <g transform="matrix(1,0,0,1,3.51616,4.82884)">
                <g transform="matrix(1,0,0,1,-557.528,-3198.77)">
                    <path d="M597.057,3216.71C596.457,3216.41 579.11,3216.05 578.001,3239.33C577.67,3246.29 578.123,3281.18 578.931,3283.95C585.372,3306.03 628.111,3300.22 635.944,3299.44C648.922,3298.14 659.699,3297.3 657.944,3253.43C656.564,3218.91 647.847,3217.17 644.775,3216.55C629.915,3213.58 598.876,3216.25 597.057,3216.71Z" style="fill:none;stroke:white;stroke-width:2px;"/>
                </g>
                <g transform="matrix(1.19931,0,0,1.14805,-682.661,-3688)">
                    <path d="M614.145,3300.9C614.595,3298.86 613.801,3298.86 613.356,3274.86C608.878,3275.18 608.962,3275.52 604.448,3275.33C604.233,3270.38 604.276,3270.45 604.061,3265.5C607.05,3265.17 607.062,3265.47 609.83,3264.28C611.329,3263.64 613.083,3265.05 612.801,3261.96C612.488,3258.51 609.559,3249.47 622.737,3243.48C626.243,3241.89 626.647,3242.1 629.33,3244.78C629.34,3244.79 630.315,3245.16 629.511,3252.2C624.21,3252.63 623.568,3253.84 622.34,3261.62C625.477,3260.75 625.425,3260.68 628.675,3260.94C628.75,3264.39 629.166,3271.7 629.241,3272.62C625.687,3273.18 625.743,3273.21 622.267,3274.15C623.99,3292.35 624.157,3297.53 624.222,3299.57" style="fill:none;stroke:white;stroke-width:1.7px;"/>
                </g>
            </g>
        </g>
    </g>
</svg>
