<?xml version="1.0" encoding="UTF-8" standalone="no"?>
<!DOCTYPE svg PUBLIC "-//W3C//DTD SVG 1.1//EN" "http://www.w3.org/Graphics/SVG/1.1/DTD/svg11.dtd">
<svg width="100%" height="100%" viewBox="0 0 128 129" version="1.1" xmlns="http://www.w3.org/2000/svg" xmlns:xlink="http://www.w3.org/1999/xlink" xml:space="preserve" xmlns:serif="http://www.serif.com/" style="fill-rule:evenodd;clip-rule:evenodd;stroke-linecap:round;stroke-linejoin:round;stroke-miterlimit:1.5;">
    <g transform="matrix(1,0,0,1,0,-623)">
        <g id="figma" transform="matrix(1,0,0,1,0,623.843)">
            <rect x="0" y="0" width="128" height="128"/>
            <g transform="matrix(1,0,0,1,1.74424,6.87827)">
                <g transform="matrix(1,0,0,1,0,-449.42)">
                    <path d="M39.137,468.066C37.106,468.391 29.514,471.08 31.369,481.839C32.846,490.408 81.333,497.996 91.538,480.988C97.789,470.57 90.578,459.835 39.137,468.066Z" style="fill:none;stroke:white;stroke-width:2px;"/>
                </g>
                <g transform="matrix(1,0,0,1,0,-449.42)">
                    <path d="M60.953,466.875C61.543,471.774 61.388,471.567 62.41,490.981" style="fill:none;stroke:white;stroke-width:2px;"/>
                </g>
                <g transform="matrix(1,0,0,1,0,-449.42)">
                    <path d="M61.77,492.034C61.615,492.826 63.327,507.691 61.134,517.557C60.333,521.164 22.629,519.105 33.92,499.911C36.941,494.775 48.707,489.036 61.347,490.981" style="fill:none;stroke:white;stroke-width:2px;"/>
                </g>
                <g transform="matrix(1,0,0,1,0,-449.42)">
                    <path d="M61.094,519.055C60.697,541.619 60.591,541.914 57.733,544.772C52.12,550.384 26.65,550.403 35.196,529.038C38.606,520.512 56.859,519.222 59.859,519.684" style="fill:none;stroke:white;stroke-width:2px;"/>
                </g>
                <g transform="matrix(1,0,0,1,0,-449.42)">
                    <path d="M76.348,491.921C48.641,500.501 72.358,529 87.711,512.88C91.659,508.735 92.758,490.231 74.529,492.257" style="fill:none;stroke:white;stroke-width:2px;"/>
                </g>
            </g>
        </g>
    </g>
</svg>
