<?xml version="1.0" encoding="UTF-8" standalone="no"?>
<!DOCTYPE svg PUBLIC "-//W3C//DTD SVG 1.1//EN" "http://www.w3.org/Graphics/SVG/1.1/DTD/svg11.dtd">
<svg width="100%" height="100%" viewBox="0 0 129 129" version="1.1" xmlns="http://www.w3.org/2000/svg" xmlns:xlink="http://www.w3.org/1999/xlink" xml:space="preserve" xmlns:serif="http://www.serif.com/" style="fill-rule:evenodd;clip-rule:evenodd;stroke-linecap:round;stroke-linejoin:round;stroke-miterlimit:1.5;">
    <g transform="matrix(1,0,0,1,-1,-2004)">
        <g id="files" transform="matrix(1,0,0,1,1.59335,2004.52)">
            <rect x="0" y="0" width="128" height="128"/>
            <g transform="matrix(1,0,0,1,3.55241,5.02529)">
                <g transform="matrix(1,0,0,1,-1.59335,-2004.52)">
                    <path d="M20.897,2025.7C15.536,2030.17 17.393,2032.91 19.022,2091.57C19.404,2105.3 25.378,2101.19 38.568,2104.95C56.198,2109.99 99.747,2108.17 103.897,2099.87C107.923,2091.82 108.773,2029.35 99.078,2028.38C94.386,2027.91 94.42,2028.77 40.174,2030.52C28.699,2030.89 28.763,2030.61 25.18,2031.32" style="fill:none;stroke:white;stroke-width:2px;"/>
                </g>
                <g transform="matrix(1,0,0,1,-1.59335,-2004.52)">
                    <path d="M19.826,2026.24C21.834,2022.22 37.841,2021.93 45.261,2020.08C57.143,2017.11 55.385,2022.65 58.113,2028.11" style="fill:none;stroke:white;stroke-width:2px;"/>
                </g>
                <g transform="matrix(1,0,0,1,-1.59335,-2004.52)">
                    <path d="M17.982,2055.82C18.427,2047.52 19.14,2047.77 23.557,2039.64C27.704,2039.52 94.824,2032.04 100.417,2040.43C104.684,2046.83 104.772,2046.67 104.968,2047.66" style="fill:none;stroke:white;stroke-width:2px;"/>
                </g>
            </g>
        </g>
    </g>
</svg>
