<?xml version="1.0" encoding="UTF-8" standalone="no"?>
<!DOCTYPE svg PUBLIC "-//W3C//DTD SVG 1.1//EN" "http://www.w3.org/Graphics/SVG/1.1/DTD/svg11.dtd">
<svg width="100%" height="100%" viewBox="0 0 129 129" version="1.1" xmlns="http://www.w3.org/2000/svg" xmlns:xlink="http://www.w3.org/1999/xlink" xml:space="preserve" xmlns:serif="http://www.serif.com/" style="fill-rule:evenodd;clip-rule:evenodd;stroke-linecap:round;stroke-linejoin:round;stroke-miterlimit:1.5;">
    <g transform="matrix(1,0,0,1,0,-3652)">
        <g id="firefox" transform="matrix(1,0,0,1,0.476909,3652.22)">
            <rect x="0" y="0" width="128" height="128"/>
            <g transform="matrix(1,0,0,1,-0.0677504,2.37596)">
                <g transform="matrix(1,0,0,1,-0.476909,-3652.22)">
                    <path d="M33.95,3696.72C19.427,3714.59 22.889,3744.35 52.866,3752.91C56.561,3753.97 83.969,3755.59 93.817,3735.89C99.703,3724.12 108.228,3705.44 100.102,3688.35C99.147,3696.33 99.414,3696.26 96.037,3703.58C97.065,3689.18 87.41,3688.72 79.824,3674.21C77.435,3678.4 77.752,3680.55 68.631,3688.55C74.642,3692.83 78.739,3701.35 79.509,3704.81C78.996,3704.3 79.915,3703.05 69.531,3698.32C70.659,3699.88 82.324,3713.59 74.082,3721.83C65.624,3730.29 59.582,3721.95 49.814,3719.06C54.056,3707.41 60.151,3713.76 60.514,3711.22C61.654,3703.24 57.815,3705 49.906,3704.56C44.1,3704.24 44.532,3703.02 38.855,3701.53C37.883,3697.98 38.225,3695.75 36.857,3692.38C35.293,3695.72 35.265,3695.11 33.95,3696.72Z" style="fill:none;stroke:white;stroke-width:2px;"/>
                </g>
                <g transform="matrix(1,0,0,1,-0.476909,-3652.22)">
                    <path d="M39.414,3701.58C40.809,3698.99 41.218,3699.28 43.519,3694.67C43.924,3693.86 43.871,3693.89 44.43,3693.23C47.708,3702.46 47.673,3702.51 48.272,3703.11" style="fill:none;stroke:white;stroke-width:2px;"/>
                </g>
                <g transform="matrix(1,0,0,1,-0.476909,-3652.22)">
                    <path d="M51.879,3704.36C52.612,3703.4 57.121,3697.51 64.363,3695.9C70.976,3694.43 74.849,3697.15 75.155,3697.27" style="fill:none;stroke:white;stroke-width:2px;"/>
                </g>
                <g transform="matrix(1,0,0,1,-0.476909,-3652.22)">
                    <path d="M51.667,3714.62C38.522,3715.64 36.211,3713.7 35.195,3712.85C40.455,3720.92 39.078,3722.93 47.223,3725.21C48.572,3725.58 61.143,3730.86 66.48,3725.52" style="fill:none;stroke:white;stroke-width:2px;"/>
                </g>
                <g transform="matrix(1,0,0,1,-0.476909,-3652.22)">
                    <path d="M80.153,3706.07L80.234,3706.06" style="fill:none;stroke:white;stroke-width:2px;"/>
                </g>
                <g transform="matrix(1,0,0,1,-0.476909,-3652.22)">
                    <path d="M80.448,3706.24C85.061,3710.02 86.572,3723.85 84.889,3727.22C84.607,3727.78 84.325,3728.35 84.043,3728.91C85.037,3726.92 95.805,3705.39 95.999,3703.83" style="fill:none;stroke:white;stroke-width:2px;"/>
                </g>
            </g>
        </g>
    </g>
</svg>
