<?xml version="1.0" encoding="UTF-8" standalone="no"?>
<!DOCTYPE svg PUBLIC "-//W3C//DTD SVG 1.1//EN" "http://www.w3.org/Graphics/SVG/1.1/DTD/svg11.dtd">
<svg width="100%" height="100%" viewBox="0 0 129 129" version="1.1" xmlns="http://www.w3.org/2000/svg" xmlns:xlink="http://www.w3.org/1999/xlink" xml:space="preserve" xmlns:serif="http://www.serif.com/" style="fill-rule:evenodd;clip-rule:evenodd;stroke-linecap:round;stroke-linejoin:round;stroke-miterlimit:1.5;">
    <g transform="matrix(1,0,0,1,-283,-2618)">
        <g id="github" transform="matrix(1,0,0,1,283.26,2618.58)">
            <rect x="0" y="0" width="128" height="128"/>
            <g transform="matrix(1,0,0,1,-7.24307,5.81975)">
                <g>
                    <g transform="matrix(1,0,0,1,-283.26,-2618.58)">
                        <path d="M369.31,2722.01C378.583,2718.7 384.191,2717.84 393.125,2700.93C400.838,2686.33 411.554,2634.22 353.557,2631.09C319.664,2629.27 313.373,2655.57 311.509,2666.57C308.066,2686.88 309.876,2691.51 314.486,2703.03C314.577,2703.26 324.46,2713.89 325.897,2714.69C328.614,2716.2 331.656,2719.17 343.34,2722.52" style="fill:none;stroke:white;stroke-width:2px;"/>
                    </g>
                    <g transform="matrix(1,0,0,1,-283.26,-2618.58)">
                        <path d="M369.31,2722.01C370.459,2719.93 370.797,2702.54 368.424,2697.72C387.267,2684.97 380.967,2666.99 374.758,2663.75C375.376,2659.26 374.963,2656.88 375.059,2656.14C364.535,2660.27 367.584,2660.86 364.969,2660.49C358.639,2659.59 349.503,2655.56 338.166,2662.36C334.678,2657.95 334.618,2657.91 334.208,2657.64C331.417,2655.78 332.1,2660.4 332.224,2664.74C329.519,2666.68 322.088,2674.83 328.254,2687.16C330.804,2692.26 339.179,2696.23 344.337,2697.95C343.428,2700.68 342.858,2703.27 342.525,2705.68" style="fill:none;stroke:white;stroke-width:2px;"/>
                    </g>
                    <g transform="matrix(1,0,0,1,-283.26,-2618.58)">
                        <path d="M342.525,2705.68C342.238,2706.04 342.127,2705.87 341.343,2706.07C338.08,2706.88 335.072,2704.5 334.495,2704.4C331.308,2703.87 329.154,2697.91 324.079,2698.92C328.05,2701.13 327.312,2707.19 334.31,2709.52C336.549,2710.27 341.125,2712.83 342.154,2713.17" style="fill:none;stroke:white;stroke-width:2px;"/>
                    </g>
                    <g transform="matrix(1,0,0,1,-283.26,-2618.58)">
                        <path d="M342.154,2713.17C342.332,2717.92 343.227,2721.27 343.34,2722.52" style="fill:none;stroke:white;stroke-width:2px;"/>
                    </g>
                </g>
            </g>
        </g>
    </g>
</svg>
