<?xml version="1.0" encoding="UTF-8" standalone="no"?>
<!DOCTYPE svg PUBLIC "-//W3C//DTD SVG 1.1//EN" "http://www.w3.org/Graphics/SVG/1.1/DTD/svg11.dtd">
<svg width="100%" height="100%" viewBox="0 0 129 129" version="1.1" xmlns="http://www.w3.org/2000/svg" xmlns:xlink="http://www.w3.org/1999/xlink" xml:space="preserve" xmlns:serif="http://www.serif.com/" style="fill-rule:evenodd;clip-rule:evenodd;stroke-linecap:round;stroke-linejoin:round;stroke-miterlimit:1.5;">
    <g transform="matrix(1,0,0,1,-557,-3052)">
        <g id="gmail" transform="matrix(1,0,0,1,557.514,3052.18)">
            <rect x="0" y="0" width="128" height="128"/>
            <g transform="matrix(1,0,0,1,1.28295,8.45219)">
                <g transform="matrix(1,0,0,1,-557.514,-3052.18)">
                    <path d="M579.493,3077.64C579.702,3082.66 578.328,3082.58 579.935,3140.44C580.058,3144.84 589.502,3143.15 596.599,3142.94C596.265,3125.4 595.834,3125.49 596.151,3107.88C607.977,3118.97 609.953,3116.35 621.798,3127.47C623.567,3129.13 622.138,3128.75 632.481,3121.75C640.838,3116.1 642.292,3113.96 647.028,3111.55C646.75,3113.88 646.026,3135.79 647.381,3139.86C647.672,3140.73 650.536,3139.07 661.295,3140.16C661.469,3138.53 660.598,3073.63 660.271,3073.22C655.611,3067.4 641.282,3084.38 632.158,3091.22C631.578,3091.66 630.573,3093.62 624.017,3098.87C622.752,3099.88 622.422,3101.39 621.217,3099.46C618.658,3095.36 600.438,3083.98 593.915,3077.45C591.696,3075.24 583.297,3076.7 579.641,3078.53" style="fill:none;stroke:white;stroke-width:2px;"/>
                </g>
                <g transform="matrix(1,0,0,1,-557.514,-3052.18)">
                    <path d="M596.218,3108.23C596.092,3107.78 586.844,3097.56 580.172,3093.11" style="fill:none;stroke:white;stroke-width:2px;"/>
                </g>
                <g transform="matrix(1,0,0,1,-557.514,-3052.18)">
                    <path d="M645.972,3112.76C646.382,3112.26 659.221,3099.42 660.377,3098.27" style="fill:none;stroke:white;stroke-width:2px;"/>
                </g>
                <g transform="matrix(1,0,0,1,-557.514,-3052.18)">
                    <path d="M596.175,3109.64C596.871,3106.74 595.826,3101.37 596.295,3090.57C596.519,3085.43 596.842,3085.47 596.541,3080.34" style="fill:none;stroke:white;stroke-width:2px;"/>
                </g>
                <g transform="matrix(1,0,0,1,-557.514,-3052.18)">
                    <path d="M646.699,3113.21C646.108,3099.91 646.009,3099.97 646.955,3086.73C647.275,3082.25 647.047,3080.16 648.019,3077.72" style="fill:none;stroke:white;stroke-width:2px;"/>
                </g>
            </g>
        </g>
    </g>
</svg>
