<?xml version="1.0" encoding="UTF-8" standalone="no"?>
<!DOCTYPE svg PUBLIC "-//W3C//DTD SVG 1.1//EN" "http://www.w3.org/Graphics/SVG/1.1/DTD/svg11.dtd">
<svg width="100%" height="100%" viewBox="0 0 129 129" version="1.1" xmlns="http://www.w3.org/2000/svg" xmlns:xlink="http://www.w3.org/1999/xlink" xml:space="preserve" xmlns:serif="http://www.serif.com/" style="fill-rule:evenodd;clip-rule:evenodd;stroke-linecap:round;stroke-linejoin:round;stroke-miterlimit:1.5;">
    <g transform="matrix(1,0,0,1,-420,-3052)">
        <g id="google-drive" transform="matrix(1,0,0,1,420.052,3052.18)">
            <rect x="0" y="0" width="128" height="128"/>
            <g transform="matrix(1.12947,0,0,1.12947,1.71666,3.20739)">
                <g transform="matrix(1,0,0,1,-420.052,-3052.18)">
                    <path d="M466.238,3073.28C466.108,3072.56 439.642,3116.67 437.366,3120.46C434.54,3125.17 432.259,3126.03 436.415,3129.49C437.156,3130.11 438.157,3133 441.802,3135.67C444.964,3137.99 445.654,3141.81 447.665,3141.85C477.693,3142.47 477.61,3141.95 507.557,3139.95C509.627,3139.81 515.601,3123.5 516.252,3122.21C504.2,3104.18 505.535,3106.59 495.832,3087.19C495.092,3085.71 489.387,3074.3 484.411,3069.92C472.198,3071.67 470.402,3069.05 466.678,3072.77" style="fill:none;stroke:white;stroke-width:1.77px;"/>
                </g>
                <g transform="matrix(1.24362,0,0,1.01176,-536.326,-3087.39)">
                    <path d="M476.185,3089.25C475.096,3091.29 476.064,3091.71 464.143,3115.55C462.815,3118.21 463.922,3118.76 461.166,3122.07C463.473,3121.92 489.077,3120.27 489.97,3119.67C490.061,3119.61 486.134,3109.58 481.414,3100.82C478.623,3095.63 479.401,3095.34 476.185,3090.52" style="fill:none;stroke:white;stroke-width:1.56px;"/>
                </g>
                <g transform="matrix(1,0,0,1,-420.052,-3052.18)">
                    <path d="M465.892,3074.48C465.933,3074.64 474.701,3089.27 474.838,3089.75C474.894,3089.95 475.151,3089.76 476.226,3091.91" style="fill:none;stroke:white;stroke-width:1.77px;"/>
                </g>
                <g transform="matrix(1,0,0,1,-420.052,-3052.18)">
                    <path d="M475.894,3091.56C485.747,3071.87 485.326,3073.55 486.097,3072.78" style="fill:none;stroke:white;stroke-width:1.77px;"/>
                </g>
                <g transform="matrix(1,0,0,1,-420.052,-3052.18)">
                    <path d="M457.424,3123.2C456.497,3122.92 450.762,3122.76 444.76,3124.76C439.779,3126.42 439.694,3125.34 434.889,3126.3" style="fill:none;stroke:white;stroke-width:1.77px;"/>
                </g>
                <g transform="matrix(1,0,0,1,-420.052,-3052.18)">
                    <path d="M457.606,3123.61C451.694,3131.52 452.386,3133.37 446.92,3141.57" style="fill:none;stroke:white;stroke-width:1.77px;"/>
                </g>
                <g transform="matrix(1,0,0,1,-420.052,-3052.18)">
                    <path d="M493.192,3122.29C496.441,3125.54 506.591,3137.95 506.766,3138.64" style="fill:none;stroke:white;stroke-width:1.77px;"/>
                </g>
                <g transform="matrix(1,0,0,1,-420.041,-3053.59)">
                    <path d="M493.387,3122.72C495.01,3122.28 494.967,3123.1 515.403,3123.68" style="fill:none;stroke:white;stroke-width:1.77px;"/>
                </g>
            </g>
        </g>
    </g>
</svg>
