<?xml version="1.0" encoding="UTF-8" standalone="no"?>
<!DOCTYPE svg PUBLIC "-//W3C//DTD SVG 1.1//EN" "http://www.w3.org/Graphics/SVG/1.1/DTD/svg11.dtd">
<svg width="100%" height="100%" viewBox="0 0 129 129" version="1.1" xmlns="http://www.w3.org/2000/svg" xmlns:xlink="http://www.w3.org/1999/xlink" xml:space="preserve" xmlns:serif="http://www.serif.com/" style="fill-rule:evenodd;clip-rule:evenodd;stroke-linecap:round;stroke-linejoin:round;stroke-miterlimit:1.5;">
    <g transform="matrix(1,0,0,1,-281,-2466)">
        <g id="google-photos" transform="matrix(1,0,0,1,281.239,2466.14)">
            <rect x="0" y="0" width="128" height="128"/>
            <g transform="matrix(1,0,0,1,7.28118,0.623006)">
                <g transform="matrix(1,0,0,1,-286.286,-2466.14)">
                    <path d="M344.948,2484.16C342.377,2524.99 341.93,2524.93 341.707,2528.48C373.918,2504.96 356.122,2483.93 354.02,2482.25C348.162,2477.56 344.956,2478.27 344.371,2485.87" style="fill:none;stroke:white;stroke-width:2px;"/>
                </g>
                <g transform="matrix(1,0,0,1,-286.286,-2466.14)">
                    <path d="M342.261,2529.67C346.082,2528.89 346.127,2530.04 390.956,2527.83C389.309,2555.85 353.018,2551.35 341.236,2530.73" style="fill:none;stroke:white;stroke-width:2px;"/>
                </g>
                <g transform="matrix(1.1768,0,0,1.22245,-346.494,-3028.99)">
                    <path d="M340.405,2530.43C340.819,2527.86 340.257,2568.39 339.788,2569.09C338.248,2571.4 323.243,2574.29 324.109,2554.37C324.469,2546.09 338.582,2530.61 338.582,2530.25" style="fill:none;stroke:white;stroke-width:1.67px;"/>
                </g>
                <g transform="matrix(1,0,0,1,-286.286,-2466.14)">
                    <path d="M339.765,2529.57C336.545,2528.27 336.425,2531.78 296.368,2530.49C290.192,2530.29 306.71,2507.2 326.28,2516.99C337.902,2522.8 339.189,2527.48 340.512,2528.8" style="fill:none;stroke:white;stroke-width:2px;"/>
                </g>
            </g>
        </g>
    </g>
</svg>
