<?xml version="1.0" encoding="UTF-8" standalone="no"?>
<!DOCTYPE svg PUBLIC "-//W3C//DTD SVG 1.1//EN" "http://www.w3.org/Graphics/SVG/1.1/DTD/svg11.dtd">
<svg width="100%" height="100%" viewBox="0 0 129 129" version="1.1" xmlns="http://www.w3.org/2000/svg" xmlns:xlink="http://www.w3.org/1999/xlink" xml:space="preserve" xmlns:serif="http://www.serif.com/" style="fill-rule:evenodd;clip-rule:evenodd;stroke-linecap:round;stroke-linejoin:round;stroke-miterlimit:1.5;">
    <g transform="matrix(1,0,0,1,-282,-3052)">
        <g id="google-maps" transform="matrix(1,0,0,1,282.315,3052.18)">
            <rect x="0" y="0" width="128" height="128"/>
            <g transform="matrix(1,0,0,1.03521,3.20325,1.60672)">
                <g transform="matrix(1,0,0,0.96599,-282.315,-2948.38)">
                    <path d="M326.64,3071.61C311.289,3080.72 304.518,3108.32 320.349,3122.25C320.535,3122.41 335.083,3137.42 338.025,3141.97C345.514,3153.54 343.714,3154.47 351.069,3166.11C353.253,3128.25 381.991,3125.69 373.282,3084.36C368.061,3059.58 331.571,3068.69 326.64,3071.61Z" style="fill:none;stroke:white;stroke-width:2px;"/>
                </g>
                <g transform="matrix(1.1354,0,0,0.96599,-327.67,-2948.38)">
                    <path d="M341.973,3086.76C332.966,3085.4 330.731,3112.49 346.956,3106.46C349.699,3105.45 358.343,3088.94 341.973,3086.76Z" style="fill:none;stroke:white;stroke-width:1.87px;"/>
                </g>
                <g transform="matrix(1,0,0,0.96599,-282.315,-2948.38)">
                    <path d="M314.239,3112.92C316.49,3107.85 329.149,3097.59 343.942,3080.53C352.337,3070.84 353.692,3069.48 354.597,3068.58" style="fill:none;stroke:white;stroke-width:2px;"/>
                </g>
                <g transform="matrix(1,0,0,0.96599,-282.315,-2948.38)">
                    <path d="M322.046,3076.56C322.209,3075.37 331.941,3086.09 336.193,3088.92" style="fill:none;stroke:white;stroke-width:2px;"/>
                </g>
                <g transform="matrix(1,0,0,0.96599,-282.315,-2948.38)">
                    <path d="M330.568,3134.19C333.889,3128.32 369.545,3080.96 371.495,3079.99" style="fill:none;stroke:white;stroke-width:2px;"/>
                </g>
            </g>
        </g>
    </g>
</svg>
