<?xml version="1.0" encoding="UTF-8" standalone="no"?>
<!DOCTYPE svg PUBLIC "-//W3C//DTD SVG 1.1//EN" "http://www.w3.org/Graphics/SVG/1.1/DTD/svg11.dtd">
<svg width="100%" height="100%" viewBox="0 0 129 129" version="1.1" xmlns="http://www.w3.org/2000/svg" xmlns:xlink="http://www.w3.org/1999/xlink" xml:space="preserve" xmlns:serif="http://www.serif.com/" style="fill-rule:evenodd;clip-rule:evenodd;stroke-linecap:round;stroke-linejoin:round;stroke-miterlimit:1.5;">
    <g transform="matrix(1,0,0,1,-279,-3498)">
        <g id="grok" transform="matrix(1,0,0,1,279.22,3498.59)">
            <rect x="0" y="0" width="128" height="128"/>
            <g transform="matrix(0.848317,0,0,0.848317,15.051,8.48708)">
                <g transform="matrix(1,0,0,1,-279.22,-3498.59)">
                    <path d="M353.298,3537.67C354.093,3537.08 360.314,3530.87 360.127,3530.21C360.04,3529.91 351.116,3525.09 346.216,3524.14C339.228,3522.8 321.116,3517.69 306.888,3546.15C296.67,3566.58 308.099,3583.97 305.75,3587.63C304.93,3588.9 301.425,3594.35 293.609,3602.17C293.609,3602.17 293.144,3602.4 293.104,3602.42" style="fill:none;stroke:white;stroke-width:2.36px;"/>
                </g>
                <g transform="matrix(1,0,0,1,-279.22,-3498.59)">
                    <path d="M293.384,3603.22C293.69,3601.93 297.047,3601.81 309.67,3591.29C310.541,3590.57 312.13,3588.66 313.423,3587.66C313.057,3586.86 305.807,3553.82 326.236,3536.54C339.478,3525.33 351.348,3533.9 352.539,3536.28C352.591,3536.39 352.591,3536.46 352.666,3536.54" style="fill:none;stroke:white;stroke-width:2.36px;"/>
                </g>
                <g transform="matrix(1,0,0,1,-279.22,-3498.59)">
                    <path d="M319.228,3593.15C318.414,3593.83 343.136,3605.26 352.666,3598.37C359.737,3593.27 373.156,3583.98 368.094,3558.67C366.376,3550.08 358.102,3554.45 337.111,3571.95C335.487,3573.3 335.514,3573.16 334.076,3574.6C335.395,3573.08 349.258,3558.88 365.059,3538.56C367.42,3535.52 379.479,3523.03 380.74,3521.61C362.116,3547.69 381.861,3558.52 373.658,3585.48C372.215,3590.22 364.137,3603.89 353.804,3605.96C346.936,3607.34 324.07,3606.07 315.36,3597.36C315.283,3597.28 315.36,3597.36 314.274,3596.53C314.648,3596.32 317.199,3594.89 318.648,3593.44" style="fill:none;stroke:white;stroke-width:2.36px;"/>
                </g>
            </g>
        </g>
    </g>
</svg>
