<?xml version="1.0" encoding="UTF-8" standalone="no"?>
<!DOCTYPE svg PUBLIC "-//W3C//DTD SVG 1.1//EN" "http://www.w3.org/Graphics/SVG/1.1/DTD/svg11.dtd">
<svg width="100%" height="100%" viewBox="0 0 128 128" version="1.1" xmlns="http://www.w3.org/2000/svg" xmlns:xlink="http://www.w3.org/1999/xlink" xml:space="preserve" xmlns:serif="http://www.serif.com/" style="fill-rule:evenodd;clip-rule:evenodd;stroke-linecap:round;stroke-linejoin:round;stroke-miterlimit:1.5;">
    <g transform="matrix(1,0,0,1,-0.476909,-4107.25)">
        <g id="hdr" transform="matrix(1,0,0,1,0.476909,4107.25)">
            <rect x="0" y="0" width="128" height="128"/>
            <g>
                <g transform="matrix(1.28008,0,0,1.28008,-3.87498,-0.258354)">
                    <g transform="matrix(1,0,0,1,-0.476909,-4107.25)">
                        <path d="M16.34,4129.93C14.899,4168.99 13.371,4170.86 18.013,4172.41C22.63,4173.95 22.687,4171.28 78.72,4168.48C82.744,4159.42 81.889,4129.04 79.548,4127.87C79.046,4127.61 31.925,4127.45 15.942,4129.73" style="fill:none;stroke:white;stroke-width:1.56px;"/>
                    </g>
                    <g transform="matrix(1,0,0,1,-0.476909,-4107.25)">
                        <path d="M25.38,4173.11C25.665,4173.23 24.393,4180.46 25.265,4180.49C73.202,4182.15 81.159,4177.4 85.302,4174.94C87.963,4139.36 88.425,4139.34 87.629,4136.15C86.713,4132.49 85.512,4133.57 81.828,4133.88" style="fill:none;stroke:white;stroke-width:1.56px;"/>
                    </g>
                    <g transform="matrix(1,0,0,1,-0.476909,-4107.25)">
                        <path d="M34.75,4181.68C33.36,4178.57 34.133,4186.69 34.174,4187.12C34.202,4187.42 74.442,4186.18 74.783,4186.09C82.242,4183.95 82.265,4184.63 89.642,4182.48C91.714,4173.27 92.425,4143.26 91.98,4142.37C91.765,4141.94 90.078,4141.81 89.908,4141.75C88.56,4141.3 88.566,4141.39 88.458,4141.33" style="fill:none;stroke:white;stroke-width:1.56px;"/>
                    </g>
                </g>
                <g transform="matrix(1,0,0,1,3.76512,-2.66128)">
                    <g transform="matrix(1,0,0,1,-0.476909,-4107.25)">
                        <path d="M26.315,4151.12C26.313,4152.97 26.293,4173.02 26.923,4174.28C28.727,4177.89 30.561,4175.41 31.507,4175.12C31.683,4169.67 31.1,4169.12 32.309,4168.89C32.722,4168.81 32.692,4168.82 37.474,4167.94C37.897,4173.56 37.708,4176.17 43.083,4174.28C45.264,4173.51 43.498,4152.32 43.498,4152.32L39.253,4152.02C39.253,4152.02 38.931,4159.98 38.927,4160.18C32.635,4160.65 32.658,4160.59 32.113,4160.63C31.92,4153.81 32.065,4153.82 31.688,4152.32C31.398,4151.16 30.994,4151.63 26.923,4151.28" style="fill:none;stroke:white;stroke-width:2px;"/>
                    </g>
                    <g transform="matrix(1,0,0,1,-0.476909,-4107.25)">
                        <path d="M48.841,4152.05C49.12,4158.66 48.727,4163.69 48.648,4164.7C48.449,4167.26 48.642,4171.48 48.44,4174.01C49.574,4173.92 49.567,4173.99 49.84,4173.82C52.431,4172.17 58.828,4176.16 61.341,4166.61C61.358,4166.55 64.597,4148.17 48.804,4151.33" style="fill:none;stroke:white;stroke-width:2px;"/>
                    </g>
                    <g transform="matrix(1,0,0,1,0.665126,-4107.09)">
                        <path d="M52.496,4157.91C52.519,4158.58 52.64,4162.17 52.429,4166.3C52.562,4166.32 53.934,4167.5 55.435,4163.82C56.999,4159.98 52.959,4158.19 52.496,4157.91Z" style="fill:none;stroke:white;stroke-width:2px;"/>
                    </g>
                    <g transform="matrix(1,0,0,1,-0.476909,-4107.25)">
                        <path d="M66.182,4151.55C66.659,4151.79 66.314,4157.98 66.626,4172.67C67.069,4172.69 69.358,4172.76 72.167,4172.36C72.212,4169.33 72.135,4169.37 72.222,4166.31C75.114,4170.64 75.06,4172.47 79.421,4171.74C80.834,4171.51 81.674,4171.87 81.13,4170.97C78.316,4166.28 78.506,4166.19 75.328,4161.74C84.29,4162.49 81.123,4150.23 73.515,4149.73C72.915,4149.69 67.395,4149.32 66.055,4150.66" style="fill:none;stroke:white;stroke-width:2px;"/>
                    </g>
                    <g transform="matrix(1,0,0,1,-0.476909,-4107.25)">
                        <path d="M71.339,4154.96C71.228,4155.23 69.893,4158.57 74.654,4156.67C76.673,4155.86 72.206,4152.79 71.339,4154.96Z" style="fill:none;stroke:white;stroke-width:2px;"/>
                    </g>
                </g>
            </g>
        </g>
    </g>
</svg>
