<?xml version="1.0" encoding="UTF-8" standalone="no"?>
<!DOCTYPE svg PUBLIC "-//W3C//DTD SVG 1.1//EN" "http://www.w3.org/Graphics/SVG/1.1/DTD/svg11.dtd">
<svg width="100%" height="100%" viewBox="0 0 129 129" version="1.1" xmlns="http://www.w3.org/2000/svg" xmlns:xlink="http://www.w3.org/1999/xlink" xml:space="preserve" xmlns:serif="http://www.serif.com/" style="fill-rule:evenodd;clip-rule:evenodd;stroke-linecap:round;stroke-linejoin:round;stroke-miterlimit:1.5;">
    <g transform="matrix(1,0,0,1,-415,-1388)">
        <g id="icue" transform="matrix(1,0,0,1,415.848,1388.99)">
            <rect x="0" y="0" width="128" height="128"/>
            <g transform="matrix(1.08429,0,0,1.03897,-455.087,-1258.9)">
                <path d="M472.39,1233.57C470.384,1235 451.682,1247.82 448.266,1251.23C447.865,1251.63 447.535,1251.03 441.954,1254.48C441.586,1264.92 442.276,1267.48 443.145,1295.08C465.126,1307.1 481.518,1319.85 484.451,1316.92C504.167,1297.2 514.325,1296.86 514.408,1292.17C514.509,1286.55 514.919,1264.31 515.591,1256.91C515.616,1256.64 515.686,1255.87 515.273,1253.53C512.452,1251.8 486.195,1236.78 479.488,1230.08C479.344,1229.93 477.849,1228.43 476.966,1229.76C476.473,1230.5 472.599,1232.95 472.39,1233.57Z" style="fill:none;stroke:white;stroke-width:1.88px;"/>
            </g>
            <g transform="matrix(1,0,0,1,-2.15204,-1.07684)">
                <g transform="matrix(1,0,0,1,-415.848,-1214.57)">
                    <path d="M477.082,1272.07C477.51,1278.93 477.174,1278.86 478.151,1285.7C478.721,1289.69 480.665,1286.62 486.837,1286.22C486.882,1284.99 486.982,1282.25 486.034,1270.87C485.978,1270.19 485.654,1269.79 477.616,1271.13" style="fill:none;stroke:white;stroke-width:2px;"/>
                </g>
                <g transform="matrix(1,0,0,1,-415.848,-1214.57)">
                    <path d="M476.681,1261.11C476.819,1263.12 476.956,1265.13 477.094,1267.15C481.658,1266.32 481.574,1266.26 484.417,1265.9C484.478,1265.38 485.106,1260.05 483.762,1259.38C482.025,1258.51 477.478,1259.64 476.948,1259.78" style="fill:none;stroke:white;stroke-width:2px;"/>
                </g>
                <g transform="matrix(1,0,0,1,-415.848,-1214.57)">
                    <path d="M471.946,1269.65C458.638,1287.86 484.905,1302.91 492.313,1289.57C497.967,1279.39 495.975,1273.99 491.371,1268.72C494.043,1266.26 493.836,1266.22 496.218,1263.33C519.611,1302.11 468.705,1311.78 462.117,1285.43C459.957,1276.79 466.4,1266.62 467.293,1265.2C469.158,1267.41 469.253,1267.18 471.337,1269.26" style="fill:none;stroke:white;stroke-width:2px;"/>
                </g>
            </g>
        </g>
    </g>
</svg>
