<?xml version="1.0" encoding="UTF-8" standalone="no"?>
<!DOCTYPE svg PUBLIC "-//W3C//DTD SVG 1.1//EN" "http://www.w3.org/Graphics/SVG/1.1/DTD/svg11.dtd">
<svg width="100%" height="100%" viewBox="0 0 129 129" version="1.1" xmlns="http://www.w3.org/2000/svg" xmlns:xlink="http://www.w3.org/1999/xlink" xml:space="preserve" xmlns:serif="http://www.serif.com/" style="fill-rule:evenodd;clip-rule:evenodd;stroke-linecap:round;stroke-linejoin:round;stroke-miterlimit:1.5;">
    <g transform="matrix(1,0,0,1,-278,-4412)">
        <g id="ifood" transform="matrix(1,0,0,1,278.512,4412.71)">
            <rect x="0" y="0" width="128" height="128"/>
            <g transform="matrix(1,0,0,1,3.19251,-6.25577)">
                <g transform="matrix(1,0,0,1,-278.512,-4412.71)">
                    <path d="M329.442,4462.64C319.567,4466.75 319.769,4496.71 336.145,4488.37C342.46,4485.16 347.127,4471.59 338.06,4464.43C334.93,4461.96 329.727,4462.07 329.442,4462.64Z" style="fill:none;stroke:white;stroke-width:2px;"/>
                </g>
                <g transform="matrix(1,0,0,1,-254.519,-4412.71)">
                    <path d="M329.442,4462.64C319.567,4466.75 319.769,4496.71 336.145,4488.37C342.46,4485.16 347.127,4471.59 338.06,4464.43C334.93,4461.96 329.727,4462.07 329.442,4462.64Z" style="fill:none;stroke:white;stroke-width:2px;"/>
                </g>
                <g transform="matrix(1,0,0,1,-278.512,-4412.71)">
                    <path d="M382.029,4464.08C380.234,4462.86 369.748,4468.02 371.409,4483.8C371.74,4486.95 373.054,4487.54 374.884,4487.77C379.003,4488.28 379.538,4488.42 383.054,4486.35C383.084,4486.49 383.09,4486.48 383.531,4488.06C385.537,4487.65 385.505,4487.79 387.736,4487.69C389.251,4474.9 388.466,4469.67 388.437,4467.96C388.352,4462.86 388.801,4461.99 388.646,4454.33C388.172,4454.39 385.154,4454.78 382.672,4454.61C382.648,4455.33 382.43,4461.79 381.834,4463.58" style="fill:none;stroke:white;stroke-width:2px;"/>
                </g>
                <g transform="matrix(1,0,0,1,-278.512,-4412.71)">
                    <path d="M320.672,4452.8C320.809,4452.91 320.673,4454.12 320.743,4456.99C317.18,4456.16 314.982,4456.38 313.985,4463.65C319.348,4463.45 319.633,4463.41 319.559,4463.86C319.348,4465.12 319.744,4467.52 319.281,4467.54C316.378,4467.65 316.436,4467.69 313.581,4468.26C313.616,4468.88 313.899,4496.71 313.151,4500.7C310.048,4500.68 310.447,4500.72 307.585,4500.75C307.172,4498.51 307.649,4488.24 307.474,4468.64C305.408,4468.98 305.405,4468.49 303.644,4468.79C303.572,4466.37 303.58,4466.4 303.501,4464C305.006,4463.78 304.969,4463.77 306.49,4463.71C306.521,4463 305.879,4453.76 316.432,4452.25C316.77,4452.2 320.129,4451.72 320.672,4452.8Z" style="fill:none;stroke:white;stroke-width:2px;"/>
                </g>
                <g transform="matrix(1,0,0,1,-278.512,-4412.71)">
                    <path d="M297.274,4490.73C296.657,4492.69 297.147,4489.77 296.622,4465.03C290.627,4465.48 290.675,4465.14 290.161,4465.19C290.397,4478.08 289.608,4478.04 290.161,4490.94C294.778,4491.69 296.618,4490.65 297.179,4491.59" style="fill:none;stroke:white;stroke-width:2px;"/>
                </g>
                <g transform="matrix(1,0,0,1,-278.512,-4412.71)">
                    <path d="M290.361,4457.5C290.3,4457.87 290.398,4457.82 290.226,4462.19C296.348,4461.94 296.369,4461.99 296.836,4461.74C296.802,4461.25 296.415,4455.68 296.411,4455.58C291.45,4456.02 290.714,4456.14 290.223,4456.22C290.265,4456.56 290.256,4456.91 290.299,4457.25C290.313,4457.37 290.338,4457.38 290.361,4457.5Z" style="fill:none;stroke:white;stroke-width:2px;"/>
                </g>
                <g transform="matrix(1,0,0,1,-278.512,-4412.71)">
                    <path d="M356.359,4499.09C357.076,4499.09 363.752,4498.85 365.922,4498.48C365.56,4504.18 366.001,4504.14 365.806,4509.8C364.325,4508.33 364.366,4508.31 362.653,4507.11C355.075,4516.97 330.564,4517.07 321.986,4499.92C330.063,4507.14 330.744,4506.12 338.233,4508.26C343.035,4509.63 353.307,4507.84 359.408,4502.75C356.745,4500.08 357.085,4499.82 356.359,4499.09Z" style="fill:none;stroke:white;stroke-width:2px;"/>
                </g>
            </g>
        </g>
    </g>
</svg>
