<?xml version="1.0" encoding="UTF-8" standalone="no"?>
<!DOCTYPE svg PUBLIC "-//W3C//DTD SVG 1.1//EN" "http://www.w3.org/Graphics/SVG/1.1/DTD/svg11.dtd">
<svg width="100%" height="100%" viewBox="0 0 129 129" version="1.1" xmlns="http://www.w3.org/2000/svg" xmlns:xlink="http://www.w3.org/1999/xlink" xml:space="preserve" xmlns:serif="http://www.serif.com/" style="fill-rule:evenodd;clip-rule:evenodd;stroke-linecap:round;stroke-linejoin:round;stroke-miterlimit:1.5;">
    <g transform="matrix(1,0,0,1,-550,-1233)">
        <g id="inkscape" transform="matrix(1,0,0,1,550.116,1233.62)">
            <rect x="0" y="0" width="128" height="128"/>
            <g transform="matrix(1,0,0,1,-1.2501,0.628972)">
                <g transform="matrix(1,0,0,1,-550.116,-1059.2)">
                    <path d="M608.247,1078.53C607.23,1078.56 604.902,1077.95 601.747,1084.26C591.538,1104.68 584.423,1108.1 578.984,1120.79C575.17,1129.69 578.908,1130.66 588.512,1131.73C593.151,1132.24 596.582,1131.22 594.159,1135.26C592.752,1137.6 588.849,1137.47 591.159,1142.67C591.652,1143.78 613.819,1138.91 604.746,1153.43C600.064,1160.92 616.122,1156.04 616.922,1160.84C618.005,1167.34 619.7,1167.7 626.098,1165.78C626.31,1165.72 631.652,1163 629.627,1161.2C621.453,1153.93 632.127,1153.12 636.509,1146.55C641.754,1138.68 632.374,1140.49 632.097,1137.73C631.305,1129.81 651.152,1135.31 646.768,1124.35C641.632,1111.51 617.2,1080.71 617.105,1080.78C613.69,1077.52 610.925,1078.44 608.247,1078.53Z" style="fill:none;stroke:white;stroke-width:2px;"/>
                </g>
                <g transform="matrix(1,0,0,1,-550.116,-1059.2)">
                    <path d="M592.02,1101.07C592.615,1101.02 596.915,1100.62 599.489,1101.05C600.386,1101.2 602.779,1095.92 603.035,1096.17C603.302,1096.44 604.629,1102.96 606.315,1103.8C606.654,1103.97 606.52,1103.01 610.95,1102.81C612.025,1104.6 614.156,1109.27 615.801,1104.33C616.797,1101.34 617.764,1102.4 620.93,1102.57C621.031,1100.08 621.028,1100.13 621.498,1097.67C623.578,1099 623.074,1099.72 625.464,1100.52C625.823,1100.64 625.76,1100.37 629.985,1099.1" style="fill:none;stroke:white;stroke-width:2px;"/>
                </g>
                <g transform="matrix(1,0,0,1,-550.116,-1059.2)">
                    <path d="M595.442,1150.42C594.728,1150.23 589.963,1152.32 589.648,1156.1C589.091,1162.79 593.874,1158.56 594.081,1157.52C594.578,1155.04 595.027,1151.61 595.765,1150.87" style="fill:none;stroke:white;stroke-width:2px;"/>
                </g>
                <g transform="matrix(1,0,0,1,-550.116,-1059.2)">
                    <path d="M644.08,1145.13C643.376,1142.17 652.894,1138.26 653.211,1145.55C653.474,1151.59 648.971,1146.04 644.346,1145.11" style="fill:none;stroke:white;stroke-width:2px;"/>
                </g>
                <g transform="matrix(1,0,0,1,-550.116,-1059.2)">
                    <path d="M639.293,1150.52C636.383,1155.98 638.658,1159.04 640.091,1157.61C641.597,1156.11 641.396,1154.36 640.18,1150.25" style="fill:none;stroke:white;stroke-width:2px;"/>
                </g>
            </g>
        </g>
    </g>
</svg>
