<?xml version="1.0" encoding="UTF-8" standalone="no"?>
<!DOCTYPE svg PUBLIC "-//W3C//DTD SVG 1.1//EN" "http://www.w3.org/Graphics/SVG/1.1/DTD/svg11.dtd">
<svg width="100%" height="100%" viewBox="0 0 129 129" version="1.1" xmlns="http://www.w3.org/2000/svg" xmlns:xlink="http://www.w3.org/1999/xlink" xml:space="preserve" xmlns:serif="http://www.serif.com/" style="fill-rule:evenodd;clip-rule:evenodd;stroke-linecap:round;stroke-linejoin:round;stroke-miterlimit:1.5;">
    <g transform="matrix(1,0,0,1,-553,-1695)">
        <g id="instagram" transform="matrix(1,0,0,1,553.745,1695.14)">
            <rect x="0" y="0" width="128" height="128"/>
            <g>
                <g transform="matrix(1,0,0,1,4.61026,1.47187)">
                    <g transform="matrix(1,0,0,1,-553.745,-1695.14)">
                        <path d="M584.359,1716.12C576.949,1719.13 572.625,1728.83 574.553,1785.69C574.682,1789.49 575.229,1805.62 618.914,1802.51C646.519,1800.53 647.662,1798.36 648.8,1796.2C654.256,1785.83 652.478,1783.25 647.866,1718.69C647.323,1711.09 630.537,1712.48 628.954,1712.62C624.156,1713.02 592.369,1712.86 584.359,1716.12Z" style="fill:none;stroke:white;stroke-width:2px;"/>
                    </g>
                    <g transform="matrix(1,0,0,1,-553.745,-1695.14)">
                        <path d="M607.684,1740.07C601.067,1741.74 586.561,1763.15 598.835,1775.42C613.374,1789.96 626.468,1775.53 627.553,1764.68C629.884,1741.37 615.279,1738.16 607.684,1740.07Z" style="fill:none;stroke:white;stroke-width:2px;"/>
                    </g>
                    <g transform="matrix(1,0,0,1,-553.745,-1695.14)">
                        <path d="M634.864,1727.31C633.515,1725.31 633.952,1731.09 635.725,1730.13C638.671,1728.52 636.492,1722.43 634.791,1726.86C633.79,1729.46 638.169,1727.63 636.659,1726.62C634.581,1725.24 633.015,1729.43 635.491,1728.73C636.153,1728.54 636.632,1725.69 635.725,1725.69C632.933,1725.69 633.046,1726.59 633.857,1729.43" style="fill:none;stroke:white;stroke-width:2px;"/>
                    </g>
                </g>
                <g transform="matrix(1,0,0,1,-553.745,-1695.14)">
                    <path d="M592.587,1721.85C589.009,1722.73 585.805,1723.51 584.062,1767.1C583.016,1793.25 591.627,1795.26 606.936,1796.65C617.715,1797.63 633.341,1795.85 642.167,1795.65C654.746,1795.37 648.845,1772.69 648.845,1749.4C648.845,1748.17 648.718,1748.19 648.01,1734.04C647.28,1719.44 640.006,1719.92 638.66,1720.01C636.071,1720.18 595.805,1720.24 591.909,1722.18" style="fill:none;stroke:white;stroke-width:2px;"/>
                </g>
                <g transform="matrix(1,0,0,1,-553.745,-1695.14)">
                    <path d="M610.944,1749.07C609.93,1749.4 600.533,1758.8 605.267,1768.27C606.432,1770.6 607.527,1778.88 618.958,1777.45C620.933,1777.2 629.637,1766.24 626.305,1754.57C625.994,1753.49 623.466,1744.64 614.45,1746.89C611.556,1747.62 609.612,1749.56 609.274,1749.9" style="fill:none;stroke:white;stroke-width:2px;"/>
                </g>
            </g>
        </g>
    </g>
</svg>
