<?xml version="1.0" encoding="UTF-8" standalone="no"?>
<!DOCTYPE svg PUBLIC "-//W3C//DTD SVG 1.1//EN" "http://www.w3.org/Graphics/SVG/1.1/DTD/svg11.dtd">
<svg width="100%" height="100%" viewBox="0 0 129 129" version="1.1" xmlns="http://www.w3.org/2000/svg" xmlns:xlink="http://www.w3.org/1999/xlink" xml:space="preserve" xmlns:serif="http://www.serif.com/" style="fill-rule:evenodd;clip-rule:evenodd;stroke-linecap:round;stroke-linejoin:round;stroke-miterlimit:1.5;">
    <g transform="matrix(1,0,0,1,-560,-4259)">
        <g id="itau" transform="matrix(1,0,0,1,560.981,4259.57)">
            <rect x="0" y="0" width="128" height="128"/>
            <g>
                <g transform="matrix(1,0,0,1,-556.136,-4257.78)">
                    <path d="M587.866,4287.91C588.318,4289.14 588.342,4286.71 603.015,4281.58C624.587,4274.03 656.391,4282.38 658.991,4290.18C664.829,4307.69 667.792,4308.86 662.561,4348.1C661.153,4358.66 658.832,4357.74 650.879,4360.92C630.532,4369.06 589.428,4364.13 582.247,4352.64C568.399,4330.49 576.863,4298.48 587.114,4288.23" style="fill:none;stroke:white;stroke-width:2px;"/>
                </g>
                <g transform="matrix(1,0,0,1,4.62743,-4.6934)">
                    <g transform="matrix(1,0,0,1,-560.981,-4259.57)">
                        <path d="M590.405,4322.26C589.404,4332.85 589.434,4332.71 589.222,4343.27C592.484,4342.52 592.426,4342.78 595.708,4342.91C596.038,4331.72 596.038,4327.83 596.038,4326.52C596.038,4324.57 596.184,4322.33 596.207,4321.97C593.531,4322.39 593.028,4322.91 590.405,4322.26Z" style="fill:none;stroke:white;stroke-width:2px;"/>
                    </g>
                    <g transform="matrix(1,0,0,1,-560.981,-4259.57)">
                        <path d="M591.982,4313.7C587.205,4316.69 591.134,4318.59 592.469,4317.92C595.556,4316.38 595.675,4312.23 591.982,4313.7Z" style="fill:none;stroke:white;stroke-width:2px;"/>
                    </g>
                    <g transform="matrix(1,0,0,1,-560.981,-4259.57)">
                        <path d="M599.746,4322.23C601.116,4322.15 602.973,4322.09 602.973,4322.09C602.973,4322.09 603.054,4318.72 603.177,4317.11C603.21,4316.68 603.645,4317.81 608.611,4316.82C609.005,4316.74 609.22,4316.92 608.684,4321.8C610.693,4321.89 613.119,4322.11 613.119,4322.11L613.165,4326.97C613.165,4326.97 612.504,4327.01 609.671,4327.2C609.665,4330.55 609.267,4332.64 609.508,4338.37C622.374,4338.37 611.504,4343.64 611.05,4343.66C600.251,4344.03 603.016,4339.19 603.008,4328.3C602.842,4328.33 602.811,4327.58 599.74,4327.92C599.793,4326.94 599.595,4324.34 599.746,4322.23Z" style="fill:none;stroke:white;stroke-width:2px;"/>
                    </g>
                    <g transform="matrix(1,0,0,1,-560.981,-4259.57)">
                        <path d="M619.112,4320.97C619.103,4323.65 619.438,4323.82 619.282,4326.52C621.889,4326.22 626.503,4325.45 628.889,4329.5C622.231,4330.47 617.833,4335.28 619.915,4339.97C621.054,4342.53 628.026,4344.44 631.056,4341.41C631.126,4341.83 631.133,4341.81 631.341,4342.69C634.24,4342.54 634.674,4342.63 634.958,4342.68C634.73,4327.6 635.572,4322.96 628.986,4320.98C628.918,4320.96 623.268,4320.26 621.372,4320.64C620.583,4320.79 619.925,4320.87 619.112,4320.97Z" style="fill:none;stroke:white;stroke-width:2px;"/>
                    </g>
                    <g transform="matrix(1,0,0,1,-560.981,-4259.57)">
                        <path d="M628.19,4334.67C627.495,4334.8 625.233,4334.8 624.955,4337.31C624.719,4339.44 627.764,4337.86 627.96,4337.84C629.657,4337.7 628.155,4334.84 628.19,4334.67Z" style="fill:none;stroke:white;stroke-width:2px;"/>
                    </g>
                    <g transform="matrix(1,0,0,1,-560.981,-4259.57)">
                        <path d="M638.807,4321.32C639.077,4326.59 637.928,4337.98 639.536,4340.59C640.422,4342.03 645.149,4343.88 647.976,4340.65C648.208,4342.17 648.229,4342.18 648.345,4342.23C648.933,4342.53 651.241,4341.89 651.485,4341.82C650.746,4333.95 651.065,4322.75 650.013,4320.63C648.241,4320.93 648.292,4321.08 646.502,4321.19C646.66,4326.36 647.302,4337.19 644.414,4335.27C643.086,4334.38 643.644,4326.58 642.814,4320.9C641.083,4320.63 640.484,4320.76 638.807,4321.32Z" style="fill:none;stroke:white;stroke-width:2px;"/>
                    </g>
                    <g transform="matrix(1,0,0,1,-560.981,-4259.57)">
                        <path d="M641.691,4315.54C641.786,4315.4 641.727,4316.18 641.674,4318.15C644.291,4317.64 647.671,4317.56 648.096,4317.45C648.454,4317.36 648.654,4317.24 648.391,4312.85C644.26,4315.09 643.794,4314.48 641.691,4315.54Z" style="fill:none;stroke:white;stroke-width:2px;"/>
                    </g>
                </g>
            </g>
        </g>
    </g>
</svg>
