<?xml version="1.0" encoding="UTF-8" standalone="no"?>
<!DOCTYPE svg PUBLIC "-//W3C//DTD SVG 1.1//EN" "http://www.w3.org/Graphics/SVG/1.1/DTD/svg11.dtd">
<svg width="100%" height="100%" viewBox="0 0 129 129" version="1.1" xmlns="http://www.w3.org/2000/svg" xmlns:xlink="http://www.w3.org/1999/xlink" xml:space="preserve" xmlns:serif="http://www.serif.com/" style="fill-rule:evenodd;clip-rule:evenodd;stroke-linecap:round;stroke-linejoin:round;stroke-miterlimit:1.5;">
    <g transform="matrix(1,0,0,1,-140,-475)">
        <g id="Lights-on" transform="matrix(1,0,0,1,140.307,475.653)">
            <rect x="0" y="0" width="128" height="128"/>
            <g transform="matrix(1,0,0,1,0.146387,12.0028)">
                <g transform="matrix(1,0,0,1,0,-152.144)">
                    <path d="M63.836,175.147C57.578,166.759 23.224,189.938 39.611,209.399C44.85,215.62 51.543,211.812 56.619,237.07C58.904,237.255 61.211,236.919 63.495,237.104C64.565,237.191 64.485,237.196 76.853,238.337C77.547,205.922 96.367,201.427 85.947,183.365C80.685,174.244 64.527,171.875 57.285,174.289" style="fill:none;stroke:white;stroke-width:2px;"/>
                </g>
                <g transform="matrix(1,0,0,1,0,-152.144)">
                    <path d="M59.435,239.254C58.441,249.195 71.156,252.913 74.482,238.776" style="fill:none;stroke:white;stroke-width:2px;"/>
                </g>
                <g transform="matrix(1,0,0,1,0,-152.144)">
                    <path d="M89.683,226.604C96.904,227.994 96.872,227.46 103.86,230.178" style="fill:none;stroke:white;stroke-width:2px;"/>
                </g>
                <g transform="matrix(1,0,0,1,0,-152.144)">
                    <path d="M95.5,210.115C96.589,210.159 107.442,210.593 109.114,210.354" style="fill:none;stroke:white;stroke-width:2px;"/>
                </g>
                <g transform="matrix(1,0,0,1,0,-152.144)">
                    <path d="M97.38,188.264C101.635,183.62 101.648,183.927 106.965,180.737" style="fill:none;stroke:white;stroke-width:2px;"/>
                </g>
                <g transform="matrix(1,0,0,1,0,-152.144)">
                    <path d="M64.628,169.475C64.672,168.733 65.167,160.436 65.167,160.197" style="fill:none;stroke:white;stroke-width:2px;"/>
                </g>
                <g transform="matrix(1,0,0,1,0,-152.144)">
                    <path d="M33.269,180.628C29.35,177.74 29.318,178.239 25.28,175.244" style="fill:none;stroke:white;stroke-width:2px;"/>
                </g>
                <g transform="matrix(1,0,0,1,0,-152.144)">
                    <path d="M29.627,201.382C28.723,201.132 28.385,201.039 18.593,205.338" style="fill:none;stroke:white;stroke-width:2px;"/>
                </g>
                <g transform="matrix(1,0,0,1,0,-152.144)">
                    <path d="M37.461,223.252C36.576,223.783 35.073,224.685 27.43,231.372" style="fill:none;stroke:white;stroke-width:2px;"/>
                </g>
            </g>
        </g>
    </g>
</svg>
