<?xml version="1.0" encoding="UTF-8" standalone="no"?>
<!DOCTYPE svg PUBLIC "-//W3C//DTD SVG 1.1//EN" "http://www.w3.org/Graphics/SVG/1.1/DTD/svg11.dtd">
<svg width="100%" height="100%" viewBox="0 0 129 129" version="1.1" xmlns="http://www.w3.org/2000/svg" xmlns:xlink="http://www.w3.org/1999/xlink" xml:space="preserve" xmlns:serif="http://www.serif.com/" style="fill-rule:evenodd;clip-rule:evenodd;stroke-linecap:round;stroke-linejoin:round;stroke-miterlimit:1.5;">
    <g transform="matrix(1,0,0,1,-421,-3652)">
        <g id="linustechtips" transform="matrix(1,0,0,1,421.539,3652.22)">
            <rect x="0" y="0" width="128" height="128"/>
            <g transform="matrix(1,0,0,1,-1.15209,6.86548)">
                <g transform="matrix(1,0,0,1,-421.539,-3652.22)">
                    <path d="M450.665,3684.34C444.741,3694.21 444.325,3705.1 444.194,3706.15C442.18,3722.26 445.366,3731.4 466.749,3747.75C474.682,3753.82 496.397,3757.94 506.314,3754.22C517.358,3750.08 523.196,3753.33 528.87,3727.23C530.952,3717.65 529.864,3682.56 517.037,3672.14C510.992,3667.22 471.856,3649.02 450.665,3684.34Z" style="fill:none;stroke:white;stroke-width:2px;"/>
                </g>
                <g transform="matrix(1,0,0,1,-421.539,-3652.22)">
                    <path d="M457.278,3677.49C460.634,3735.37 458.972,3735.39 459.474,3740.4" style="fill:none;stroke:white;stroke-width:2px;"/>
                </g>
                <g transform="matrix(1,0,0,1,-421.539,-3652.22)">
                    <path d="M465.984,3747.45C475.162,3740.93 487.001,3740.51 492.67,3736.51C497.689,3732.97 497.879,3733.45 503.759,3731.82C502.915,3727.72 502.98,3727.82 501.901,3723.75C500.552,3724.43 478.025,3734.59 472.932,3735.66C473.385,3725.54 465.706,3671.47 465.604,3671.17" style="fill:none;stroke:white;stroke-width:2px;"/>
                </g>
                <g transform="matrix(1,0,0,1,-421.539,-3652.22)">
                    <path d="M496.168,3706.51C501.192,3705.54 500.954,3705.03 505.769,3703.23C506.767,3706.93 514.786,3736.69 516.447,3749.97" style="fill:none;stroke:white;stroke-width:2px;"/>
                </g>
                <g transform="matrix(1,0,0,1,-421.539,-3652.22)">
                    <path d="M526.034,3737.02C523.649,3734.03 515.553,3704.42 514.768,3701.55C515.865,3701.46 521.913,3700.99 527.213,3695.69" style="fill:none;stroke:white;stroke-width:2px;"/>
                </g>
                <g transform="matrix(1,0,0,1,-421.539,-3652.22)">
                    <path d="M496.743,3706.85C496.031,3706.65 496.852,3706.2 494.142,3697.99C496.593,3697.06 524.392,3686.39 524.671,3685.97" style="fill:none;stroke:white;stroke-width:2px;"/>
                </g>
                <g transform="matrix(1,0,0,1,-421.539,-3652.22)">
                    <path d="M487.138,3693.89C490.722,3707.34 491.457,3707.06 494.484,3720.59C490.753,3722.25 490.842,3722.11 487.135,3723.94C477.977,3700.64 479.706,3700.19 478.865,3698.2C474.391,3699.7 474.307,3699.9 474.128,3699.58C474.009,3699.36 473.007,3689.58 472.918,3688.71C478.191,3687.77 501.953,3674.52 511.662,3669.67" style="fill:none;stroke:white;stroke-width:2px;"/>
                </g>
                <g transform="matrix(1,0,0,1,-421.539,-3652.22)">
                    <path d="M486.689,3694.19C489.41,3693.29 513.361,3677.92 520.634,3676.1" style="fill:none;stroke:white;stroke-width:2px;"/>
                </g>
            </g>
        </g>
    </g>
</svg>
