<?xml version="1.0" encoding="UTF-8" standalone="no"?>
<!DOCTYPE svg PUBLIC "-//W3C//DTD SVG 1.1//EN" "http://www.w3.org/Graphics/SVG/1.1/DTD/svg11.dtd">
<svg width="100%" height="100%" viewBox="0 0 129 129" version="1.1" xmlns="http://www.w3.org/2000/svg" xmlns:xlink="http://www.w3.org/1999/xlink" xml:space="preserve" xmlns:serif="http://www.serif.com/" style="fill-rule:evenodd;clip-rule:evenodd;stroke-linecap:round;stroke-linejoin:round;stroke-miterlimit:1.5;">
    <g transform="matrix(1,0,0,1,-279,-1388)">
        <g id="logitechg" transform="matrix(1,0,0,1,279.318,1388.99)">
            <rect x="0" y="0" width="128" height="128"/>
            <g transform="matrix(1,0,0,1,2.30354,6.34136)">
                <g transform="matrix(1,0,0,1,-279.318,-1214.57)">
                    <path d="M333,1229.74C310.942,1232.89 276.173,1285.81 319.279,1311.17C335.595,1320.77 386.047,1327.17 383.159,1267.98C383.081,1266.38 378.96,1222.25 342.222,1227.49C331.265,1229.06 330.936,1228.27 324.677,1232.44" style="fill:none;stroke:white;stroke-width:2px;"/>
                </g>
                <g transform="matrix(1,0,0,1,-279.318,-1214.57)">
                    <path d="M332.55,1247.96C317.522,1250.28 301.203,1290.72 335.699,1295.65C348.845,1297.53 344.83,1289.98 344.921,1286.88C314.629,1288.14 325.448,1259.11 337.977,1255.5C338.941,1255.22 339.761,1255.04 339.761,1255.04C339.761,1255.04 340.036,1247.02 339.523,1247.06C339.157,1247.09 338.487,1247.15 338.487,1247.15C338.487,1247.15 332.926,1247.59 332.55,1247.96Z" style="fill:none;stroke:white;stroke-width:2px;"/>
                </g>
                <g transform="matrix(1,0,0,1,-279.318,-1214.57)">
                    <path d="M343.787,1267.01C344.202,1271.44 343.891,1274.53 343.866,1275.07C351.046,1274.53 351.049,1275.21 358.151,1274.32C361.013,1273.96 358.932,1286.29 360.724,1285.69C364.754,1284.35 364.823,1285.19 369.034,1284.95C368.374,1279.16 368.876,1278.68 368.28,1274.9C367.67,1271.04 367.771,1271.1 367.866,1267.18C362.818,1266.88 362.867,1267.35 357.819,1267.1C356.697,1267.04 348.426,1266.63 343.787,1267.01Z" style="fill:none;stroke:white;stroke-width:2px;"/>
                </g>
            </g>
        </g>
    </g>
</svg>
