<?xml version="1.0" encoding="UTF-8" standalone="no"?>
<!DOCTYPE svg PUBLIC "-//W3C//DTD SVG 1.1//EN" "http://www.w3.org/Graphics/SVG/1.1/DTD/svg11.dtd">
<svg width="100%" height="100%" viewBox="0 0 685 128" version="1.1" xmlns="http://www.w3.org/2000/svg" xmlns:xlink="http://www.w3.org/1999/xlink" xml:space="preserve" xmlns:serif="http://www.serif.com/" style="fill-rule:evenodd;clip-rule:evenodd;stroke-linecap:round;stroke-linejoin:round;stroke-miterlimit:1.5;">
    <g id="logo-design" transform="matrix(5.34672,0,0,1,0,0)">
        <rect x="0" y="0" width="128" height="128"/>
        <g transform="matrix(1,0,0,1,5.80785,-4.24423)">
            <g transform="matrix(0.18703,0,0,1,0,0)">
                <path d="M22.933,33.676C23.466,46.73 26.677,76.831 24.453,105.252C62.209,109.226 78.905,77.088 52.658,72.414C82.009,51.449 78.834,25.82 43.122,31.772C33.078,33.446 32.856,32.37 25.599,36.724" style="fill:none;stroke:white;stroke-width:2px;"/>
            </g>
            <g transform="matrix(0.18703,0,0,1,0,0)">
                <path d="M33.141,47.047C32.946,47.754 33.02,64.772 35.504,64.151C45.168,61.735 51.184,53.796 50.36,49.676C48.951,42.63 33.121,47.695 31.694,48.152" style="fill:none;stroke:white;stroke-width:2px;"/>
            </g>
            <g transform="matrix(0.18703,0,0,1,0,0)">
                <path d="M35.123,83.198C34.776,89.085 32.618,103.904 44.265,91.198C44.93,90.472 47.741,80.636 32.456,87.769" style="fill:none;stroke:white;stroke-width:2px;"/>
            </g>
            <g transform="matrix(0.18703,0,0,1,0,0)">
                <path d="M77.548,99.857C72.054,84.889 87.821,52.888 98.358,66.437C103.82,73.459 109.959,123.658 93.787,89.293C87.93,76.848 90.617,102.391 78.93,100.721" style="fill:none;stroke:white;stroke-width:2px;"/>
            </g>
            <g transform="matrix(0.18703,0,0,1,0,0)">
                <path d="M91.087,76.156C86.667,76.593 84.481,78.529 88.454,80.912C95.416,85.09 92.436,74.659 92.263,74.055" style="fill:none;stroke:white;stroke-width:2px;"/>
            </g>
            <g transform="matrix(0.18703,0,0,1,0,0)">
                <path d="M125.405,65.675C107.863,63.482 105.574,109.977 136.833,95.769C157.746,86.263 137.983,7.707 132.262,59.199C131.433,66.658 128.266,63.894 125.024,66.056" style="fill:none;stroke:white;stroke-width:2px;"/>
            </g>
            <g transform="matrix(0.18703,0,0,1,0,0)">
                <path d="M127.69,78.246C118.321,76.684 123.569,94.567 131.5,87.769C135.096,84.687 133.194,67.856 124.643,81.293" style="fill:none;stroke:white;stroke-width:2px;"/>
            </g>
            <g transform="matrix(0.18703,0,0,1,0,0)">
                <path d="M189.783,34.438C189.207,38.47 192.192,96.251 192.469,101.623C242.629,95.353 224.318,47.129 222.163,42.819C215.845,30.183 191.861,35.789 191.688,35.962" style="fill:none;stroke:white;stroke-width:2px;"/>
            </g>
            <g transform="matrix(0.18703,0,0,1,0,0)">
                <path d="M200.83,55.009C200.905,55.682 200.941,97.996 213.782,69.103C218.998,57.368 207.345,46.589 200.068,53.866" style="fill:none;stroke:white;stroke-width:2px;"/>
            </g>
            <g transform="matrix(0.18703,0,0,1,0,0)">
                <path d="M236.583,62.511C237.419,62.003 237.315,94.033 239.686,94.626C253.525,98.086 248.429,89.302 247.672,74.978C248.804,74.547 261.701,69.643 261.78,69.484C263.601,65.843 262.213,65.803 260.112,57.789C253.536,60.353 253.843,60.31 247.685,63.389C246.977,63.744 247.057,62.676 237.781,63.389" style="fill:none;stroke:white;stroke-width:2px;"/>
            </g>
            <g transform="matrix(0.18703,0,0,1,0,0)">
                <path d="M269.78,92.34C267.57,76.874 272.406,57.833 279.303,56.913C298.29,54.382 291.241,124.603 283.493,85.865C280.954,73.167 278.615,89.541 278.541,90.055C278.455,90.661 273.372,106.437 270.923,89.293" style="fill:none;stroke:white;stroke-width:2px;"/>
            </g>
            <g transform="matrix(0.18703,0,0,1,0,0)">
                <path d="M278.922,69.103C276.312,71.714 279.284,75.286 280.065,74.817C280.947,74.288 283.55,68.56 281.589,67.58" style="fill:none;stroke:white;stroke-width:2px;"/>
            </g>
            <g transform="matrix(0.18703,0,0,1,0,0)">
                <path d="M295.683,59.199C297.177,68.755 298.439,78.073 303.99,96.353C310.606,87.585 308.981,86.85 314.328,77.189C320.387,96.439 321.785,95.811 322.097,96.407C329.839,72.379 332.149,53.953 332.621,50.191C326.408,61.602 326.479,61.458 322.086,73.556C321.593,72.563 319.682,68.722 316.694,60.794C314.624,64.458 312.555,68.122 310.485,71.786C303.869,52.289 304.048,52.139 303.302,51.58C302.491,50.972 300.026,49.714 296.445,62.246" style="fill:none;stroke:white;stroke-width:2px;"/>
            </g>
            <g transform="matrix(0.18703,0,0,1,0,0)">
                <path d="M344.443,55.009C344.255,55.009 339.11,101.674 350.157,96.15C360.108,91.175 355.711,44.503 345.586,54.628" style="fill:none;stroke:white;stroke-width:2px;"/>
            </g>
            <g transform="matrix(0.18703,0,0,1,0,0)">
                <path d="M349.015,37.486C338.704,38.774 342.352,50.074 347.491,48.533C354.336,46.479 352.035,30.098 344.824,40.914" style="fill:none;stroke:white;stroke-width:2px;"/>
            </g>
            <g transform="matrix(0.18703,0,0,1,0,0)">
                <path d="M366.924,57.66L366.145,54.586C366.614,86.509 366.114,86.333 367.313,95.799C370.105,94.597 372.897,93.395 375.688,92.192C373.462,69.076 376.087,69.095 377.204,68.722C380.637,67.578 384.654,67.753 386.004,94.583C387.483,93.998 398.757,96.571 391.299,63.008C387.788,47.211 375.291,60.345 374.21,61.229L373.797,53.692C371.25,54.004 368.704,54.316 366.157,54.628" style="fill:none;stroke:white;stroke-width:2px;"/>
            </g>
            <g transform="matrix(0.18703,0,0,1,0,0)">
                <path d="M417.494,61.501C426.732,53.698 392.601,62.812 407.298,88.531C410.681,94.452 421.325,85.24 422.154,84.722C421.264,97.184 416.417,93.711 410.726,96.15C405.262,98.492 422.45,109.357 429.773,87.388C433.297,76.816 430.578,76.851 427.107,66.437C424.951,59.969 423.36,61.001 416.44,61.866" style="fill:none;stroke:white;stroke-width:2px;"/>
            </g>
            <g transform="matrix(0.18703,0,0,1,0,0)">
                <path d="M415.574,71.507C416.025,71.043 407.909,79.389 413.774,79.389C417.536,79.389 422.416,71.835 417.583,70.627" style="fill:none;stroke:white;stroke-width:2px;"/>
            </g>
            <g transform="matrix(0.18703,0,0,1,0,0)">
                <path d="M463.366,36.94C462.058,34.105 462.225,38.331 464.438,75.96C465.161,88.245 461.008,96.277 472.819,92.34C476.9,90.98 477.374,89.605 475.486,38.628C475.093,28.031 464.827,35.578 463.676,35.962" style="fill:none;stroke:white;stroke-width:2px;"/>
            </g>
            <g transform="matrix(0.18703,0,0,1,0,0)">
                <path d="M498.629,59.833C504.574,47.13 476.88,69.961 488.818,88.531C491.299,92.39 502.761,96.683 505.732,78.855C497.214,81.089 490.951,85.561 493.77,77.103C496.429,69.127 497.552,69.23 505.734,68.782C502.737,59.824 501.723,53.913 494.913,60.723" style="fill:none;stroke:white;stroke-width:2px;"/>
            </g>
            <g transform="matrix(0.18703,0,0,1,0,0)">
                <path d="M521.579,63.389C513.208,60.599 511.583,103.965 529.198,82.436C541.116,67.87 521.164,51.337 517.389,66.437" style="fill:none;stroke:white;stroke-width:2px;"/>
            </g>
            <g transform="matrix(0.18703,0,0,1,0,0)">
                <path d="M523.585,73.427C521.43,72.831 522.08,80.346 523.864,79.008C528.57,75.479 528.269,74.237 524.626,69.865" style="fill:none;stroke:white;stroke-width:2px;"/>
            </g>
            <g transform="matrix(0.18703,0,0,1,0,0)">
                <path d="M538.721,62.627C540.122,76.64 540.292,76.394 539.833,90.619C544.767,88.174 544.554,88.194 549.756,87.315C549.887,80.99 550.018,74.666 550.149,68.341C568.418,72.401 554.713,85.101 560.815,86.626C574.108,89.95 571.755,43.707 549.387,61.104C548.131,56.08 546.493,57.099 541.769,59.199C536.214,61.668 538.775,65.104 538.721,65.294" style="fill:none;stroke:white;stroke-width:2px;"/>
            </g>
            <g transform="matrix(0.18703,0,0,1,0,0)">
                <path d="M587.481,53.485C571.71,56.99 577.291,68.152 577.958,69.484C579.156,71.881 589.727,68.37 587.862,78.627C587.366,81.354 576.336,74.523 580.243,86.245C580.279,86.352 602.56,89.472 597.004,69.103C595.567,63.832 586.422,68.471 588.243,63.008C589.813,58.296 591.542,60.646 599.342,60.307L598.506,52.275C589.24,53.367 586.173,54.901 585.195,55.39" style="fill:none;stroke:white;stroke-width:2px;"/>
            </g>
        </g>
    </g>
</svg>
