<?xml version="1.0" encoding="UTF-8" standalone="no"?>
<!DOCTYPE svg PUBLIC "-//W3C//DTD SVG 1.1//EN" "http://www.w3.org/Graphics/SVG/1.1/DTD/svg11.dtd">
<svg width="100%" height="100%" viewBox="0 0 129 129" version="1.1" xmlns="http://www.w3.org/2000/svg" xmlns:xlink="http://www.w3.org/1999/xlink" xml:space="preserve" xmlns:serif="http://www.serif.com/" style="fill-rule:evenodd;clip-rule:evenodd;stroke-linecap:round;stroke-linejoin:round;stroke-miterlimit:1.5;">
    <g transform="matrix(1,0,0,1,-138,-3345)">
        <g id="mastodon" transform="matrix(1,0,0,1,138.716,3345.01)">
            <rect x="0" y="0" width="128" height="128"/>
            <g transform="matrix(1,0,0,1,0.996279,2.93348)">
                <g transform="matrix(1,0,0,1,-138.716,-3345.01)">
                    <path d="M167.372,3371.06C158.884,3374.91 152.059,3428.16 174.231,3441.47C177.584,3443.48 184.504,3451.01 207.114,3450.35C211.533,3450.22 217.556,3447.26 218.405,3446.84C218.613,3440.46 218.915,3438.84 219.043,3438.16C217.477,3438.74 210.256,3441.45 198.439,3434.61C192.539,3431.19 191.951,3431.16 191.135,3424.29C194.442,3424.58 220.683,3426.88 232.533,3421.5C251.9,3412.69 242.267,3367.86 237.375,3365.82C226.1,3361.12 199.098,3360.6 183.107,3363.8C176.19,3365.18 168.525,3370.29 167.372,3371.06Z" style="fill:none;stroke:white;stroke-width:2px;"/>
                </g>
                <g transform="matrix(1,0,0,1,-138.716,-3345.01)">
                    <path d="M183.007,3407.98C182.98,3407.67 182.125,3408.28 182.099,3407.98C179.181,3374.94 198.567,3374.55 203.111,3388.08C209.624,3375.32 218.285,3380.73 218.613,3381.55C219.405,3383.53 223.772,3391.37 221.617,3407.02C215.828,3408.68 215.079,3407.51 215.124,3407.01C215.845,3399.08 211.281,3379.61 205.904,3401.12C205.55,3402.54 205.708,3403.04 204.693,3402.53C202.424,3401.4 199.021,3402.42 198.55,3402.56C198.386,3401.52 196.561,3389.98 190.975,3391.84C189.716,3392.26 188.838,3392.55 187.933,3408.15C185.679,3408.5 185.828,3408.67 183.511,3408.38" style="fill:none;stroke:white;stroke-width:2px;"/>
                </g>
            </g>
        </g>
    </g>
</svg>
