<?xml version="1.0" encoding="UTF-8" standalone="no"?>
<!DOCTYPE svg PUBLIC "-//W3C//DTD SVG 1.1//EN" "http://www.w3.org/Graphics/SVG/1.1/DTD/svg11.dtd">
<svg width="100%" height="100%" viewBox="0 0 129 129" version="1.1" xmlns="http://www.w3.org/2000/svg" xmlns:xlink="http://www.w3.org/1999/xlink" xml:space="preserve" xmlns:serif="http://www.serif.com/" style="fill-rule:evenodd;clip-rule:evenodd;stroke-linecap:round;stroke-linejoin:round;stroke-miterlimit:1.5;">
    <g transform="matrix(1,0,0,1,-277,-4107)">
        <g id="mercadolibre" transform="matrix(1,0,0,1,277.887,4107.25)">
            <rect x="0" y="0" width="128" height="128"/>
            <g transform="matrix(1,0,0,1,-1.0132,-0.17112)">
                <g transform="matrix(1,0,0,1,-277.887,-4107.25)">
                    <path d="M336.209,4136.03C332.444,4136.4 309.811,4138.67 294.33,4158.02C271.404,4186.68 318.65,4216.26 373.69,4205.25C377.7,4204.45 391.371,4196.49 393.386,4192.06C401.081,4175.13 399.292,4154.58 373.772,4141.14C359.744,4133.75 343.074,4135.2 340.416,4135.65C340.054,4135.71 340.135,4135.55 335.827,4135.84C335.778,4135.84 335.827,4135.84 335.253,4136.03" style="fill:none;stroke:white;stroke-width:2px;"/>
                </g>
                <g transform="matrix(1,0,0,1,-277.887,-4107.25)">
                    <path d="M288.794,4175.03C288.794,4175.03 299.441,4196.38 333.149,4202C337.248,4202.69 381.489,4208.48 396.528,4182.67" style="fill:none;stroke:white;stroke-width:2px;"/>
                </g>
                <g transform="matrix(1,0,0,1,-277.887,-4107.25)">
                    <path d="M384.815,4150.52C383.036,4148.74 365.557,4165.08 355.541,4161.32C342.516,4156.44 341.482,4158.69 331.602,4168.57C330.392,4169.78 335.674,4172.49 340.904,4168.3C347.54,4162.99 348.02,4168.13 366.355,4179.76C376.289,4171.03 392.222,4168 396.579,4167.62" style="fill:none;stroke:white;stroke-width:2px;"/>
                </g>
                <g transform="matrix(1,0,0,1,-277.887,-4107.25)">
                    <path d="M365.479,4180.33C368.598,4179.46 373.322,4190.97 363.201,4186.63C362.627,4186.39 355.268,4181.48 354.583,4181.02" style="fill:none;stroke:white;stroke-width:2px;"/>
                </g>
                <g transform="matrix(1,0,0,1,-277.887,-4107.25)">
                    <path d="M363.084,4188.3C362.558,4187.3 362.631,4190.82 358.277,4190.46C356.516,4190.32 353.845,4186.34 349.932,4185.95" style="fill:none;stroke:white;stroke-width:2px;"/>
                </g>
                <g transform="matrix(1,0,0,1,-277.887,-4107.25)">
                    <path d="M356.952,4190.77C357.043,4191 356.006,4193.27 352.258,4193.61C349.269,4193.88 345.121,4188.89 344.871,4188.68" style="fill:none;stroke:white;stroke-width:2px;"/>
                </g>
                <g transform="matrix(1,0,0,1,-277.887,-4107.25)">
                    <path d="M348.226,4193.27C348.472,4193 346.277,4195.43 343.913,4194.84C342.516,4194.49 342.79,4194.14 341.451,4193.47" style="fill:none;stroke:white;stroke-width:2px;"/>
                </g>
                <g transform="matrix(1,0,0,1,-277.887,-4107.25)">
                    <path d="M335.706,4193.47C339.535,4195.86 341.798,4191.42 339.536,4189.91C337.896,4188.82 335.708,4189.79 335.406,4189.92C336.384,4183.77 332.769,4181.24 329.231,4186.35C328.112,4181.81 327.058,4180.68 323.137,4183.13C323.113,4182.69 322.872,4178.31 320.658,4178.15C316.938,4177.89 312.525,4186.56 319.954,4185.21C319.203,4193.08 325.328,4191.11 326.404,4188.96C327.156,4194.73 328.592,4195.15 334.201,4193.74" style="fill:none;stroke:white;stroke-width:2px;"/>
                </g>
                <g transform="matrix(1,0,0,1,-277.887,-4107.25)">
                    <path d="M316.828,4180.61C311.044,4179.46 312.479,4175.89 302.054,4174.05C301.068,4173.87 292.355,4172.34 289.606,4172.68" style="fill:none;stroke:white;stroke-width:2px;"/>
                </g>
                <g transform="matrix(1,0,0,1,-277.887,-4107.25)">
                    <path d="M338.538,4161.46C331.116,4156.63 321.624,4163.55 318.606,4161.46C313.317,4157.8 297.133,4155.33 296.839,4155.23" style="fill:none;stroke:white;stroke-width:2px;"/>
                </g>
            </g>
        </g>
    </g>
</svg>
