<?xml version="1.0" encoding="UTF-8" standalone="no"?>
<!DOCTYPE svg PUBLIC "-//W3C//DTD SVG 1.1//EN" "http://www.w3.org/Graphics/SVG/1.1/DTD/svg11.dtd">
<svg width="100%" height="100%" viewBox="0 0 129 129" version="1.1" xmlns="http://www.w3.org/2000/svg" xmlns:xlink="http://www.w3.org/1999/xlink" xml:space="preserve" xmlns:serif="http://www.serif.com/" style="fill-rule:evenodd;clip-rule:evenodd;stroke-linecap:round;stroke-linejoin:round;stroke-miterlimit:1.5;">
    <g transform="matrix(1,0,0,1,-140,-1545)">
        <g id="microsoft-excel" transform="matrix(1,0,0,1,140.425,1545.03)">
            <rect x="0" y="0" width="128" height="128"/>
            <g transform="matrix(1,0,0,1,5.05704,4.88317)">
                <g transform="matrix(1,0,0,1,-1.59335,-1545.03)">
                    <path d="M18.501,1587.19C18.265,1590.03 16.846,1621.56 19.468,1622.73C23.165,1624.37 50.521,1625.48 52.103,1624.42C53.463,1623.52 57.02,1584.67 50.411,1585.5C24.645,1588.72 19.657,1583.72 18.501,1587.19Z" style="fill:none;stroke:white;stroke-width:2px;"/>
                </g>
                <g transform="matrix(1,0,0,1,-1.59335,-1545.03)">
                    <path d="M38.261,1586.54C38.676,1584.04 38.205,1586.44 39.536,1561.88C42.078,1561.64 54.852,1560.45 71.443,1562.29C97.612,1565.2 103.837,1556.98 103.111,1565.68C102.219,1576.39 101.318,1636.56 97.848,1644.45C73.638,1646.89 73.565,1647.69 69.509,1646.42C66.346,1645.43 41.27,1644.91 40.5,1643.76C39.794,1642.7 39.334,1627.53 39.291,1626.11" style="fill:none;stroke:white;stroke-width:2px;"/>
                </g>
                <g transform="matrix(1,0,0,1,-140.425,-1545.03)">
                    <path d="M167.692,1597.03C168.963,1597.87 168.401,1598.39 179.982,1611.63C180.084,1611.75 181.196,1613.02 180.849,1613.36" style="fill:none;stroke:white;stroke-width:2px;"/>
                </g>
                <g transform="matrix(1,0,0,1,-140.425,-1545.03)">
                    <path d="M166.777,1614.65C167.573,1612.1 167.868,1612.25 174.632,1601.94C178.13,1596.61 178.095,1596.6 178.391,1596.3" style="fill:none;stroke:white;stroke-width:2px;"/>
                </g>
                <g transform="matrix(1,0,0,1,-140.425,-1545.03)">
                    <path d="M205.139,1562.62C203.024,1583.77 204.413,1583.76 204.706,1593.99C204.983,1603.7 201.62,1606.88 202.978,1621.18C214.291,1620.74 214.141,1619.81 225.526,1619.29C238.758,1618.69 237.833,1618.93 239.188,1618.48" style="fill:none;stroke:white;stroke-width:2px;"/>
                </g>
                <g transform="matrix(1,0,0,1,-140.425,-1545.03)">
                    <path d="M193.066,1602.93C203.078,1601.67 204.505,1604.59 214.682,1602.95C217.859,1602.44 240.026,1600.54 240.273,1600.79" style="fill:none;stroke:white;stroke-width:2px;"/>
                </g>
                <g transform="matrix(1,0,0,1,-140.425,-1545.03)">
                    <path d="M178.09,1580.18C210.219,1580.77 210.162,1581.93 231.309,1579.82C235.16,1579.44 233.874,1579.76 241.344,1579.02" style="fill:none;stroke:white;stroke-width:2px;"/>
                </g>
            </g>
        </g>
    </g>
</svg>
