<?xml version="1.0" encoding="UTF-8" standalone="no"?>
<!DOCTYPE svg PUBLIC "-//W3C//DTD SVG 1.1//EN" "http://www.w3.org/Graphics/SVG/1.1/DTD/svg11.dtd">
<svg width="100%" height="100%" viewBox="0 0 129 129" version="1.1" xmlns="http://www.w3.org/2000/svg" xmlns:xlink="http://www.w3.org/1999/xlink" xml:space="preserve" xmlns:serif="http://www.serif.com/" style="fill-rule:evenodd;clip-rule:evenodd;stroke-linecap:round;stroke-linejoin:round;stroke-miterlimit:1.5;">
    <g transform="matrix(1,0,0,1,-1,-1545)">
        <g id="microsoft-word" transform="matrix(1,0,0,1,1.59335,1545.03)">
            <rect x="0" y="0" width="128" height="128"/>
            <g transform="matrix(1,0,0,1,5.05704,4.88317)">
                <g transform="matrix(1,0,0,1,-1.59335,-1545.03)">
                    <path d="M18.501,1587.19C18.265,1590.03 16.846,1621.56 19.468,1622.73C23.165,1624.37 50.521,1625.48 52.103,1624.42C53.463,1623.52 57.02,1584.67 50.411,1585.5C24.645,1588.72 19.657,1583.72 18.501,1587.19Z" style="fill:none;stroke:white;stroke-width:2px;"/>
                </g>
                <g transform="matrix(1,0,0,1,-1.59335,-1545.03)">
                    <path d="M38.261,1586.54C38.676,1584.04 38.205,1586.44 39.536,1561.88C42.078,1561.64 54.852,1560.45 71.443,1562.29C97.612,1565.2 103.837,1556.98 103.111,1565.68C102.219,1576.39 101.318,1636.56 97.848,1644.45C73.638,1646.89 73.565,1647.69 69.509,1646.42C66.346,1645.43 41.27,1644.91 40.5,1643.76C39.794,1642.7 39.334,1627.53 39.291,1626.11" style="fill:none;stroke:white;stroke-width:2px;"/>
                </g>
                <g transform="matrix(1,0,0,1,-1.59335,-1545.03)">
                    <path d="M39.929,1629.95C64.363,1629.32 64.12,1632.47 88.365,1631.19C94.105,1630.89 93.866,1630.01 99.485,1629.5" style="fill:none;stroke:white;stroke-width:2px;"/>
                </g>
                <g transform="matrix(1,0,0,1,-1.59335,-1545.03)">
                    <path d="M54.037,1611.61C54.295,1611.64 93.877,1611.01 100.211,1610.64" style="fill:none;stroke:white;stroke-width:2px;"/>
                </g>
                <g transform="matrix(1,0,0,1,-1.59335,-1545.03)">
                    <path d="M54.526,1595.81C56.458,1596.78 55.725,1594.13 80.629,1595.65C82.325,1595.76 96.498,1596.62 101.661,1592.75" style="fill:none;stroke:white;stroke-width:2px;"/>
                </g>
                <g transform="matrix(1,0,0,1,-1.59335,-1545.03)">
                    <path d="M38.967,1579.87C39.315,1576.96 74.048,1581.08 102.628,1576.31" style="fill:none;stroke:white;stroke-width:2px;"/>
                </g>
                <g transform="matrix(1,0,0,1,-1.59335,-1545.03)">
                    <path d="M25.533,1596.81C27.962,1602.27 26.181,1602.74 30.565,1613.7C31.74,1616.64 32.742,1608.95 34.845,1604.81C36.629,1610.32 36.087,1610.57 40.196,1614.74C43.391,1599.3 44.088,1597.21 44.582,1595.73" style="fill:none;stroke:white;stroke-width:2px;"/>
                </g>
            </g>
        </g>
    </g>
</svg>
