<?xml version="1.0" encoding="UTF-8" standalone="no"?>
<!DOCTYPE svg PUBLIC "-//W3C//DTD SVG 1.1//EN" "http://www.w3.org/Graphics/SVG/1.1/DTD/svg11.dtd">
<svg width="100%" height="100%" viewBox="0 0 129 129" version="1.1" xmlns="http://www.w3.org/2000/svg" xmlns:xlink="http://www.w3.org/1999/xlink" xml:space="preserve" xmlns:serif="http://www.serif.com/" style="fill-rule:evenodd;clip-rule:evenodd;stroke-linecap:round;stroke-linejoin:round;stroke-miterlimit:1.5;">
    <g transform="matrix(1,0,0,1,-415,-1545)">
        <g id="microsoft-outlook" transform="matrix(1,0,0,1,415.868,1545.03)">
            <rect x="0" y="0" width="128" height="128"/>
            <g transform="matrix(1,0,0,1,4.57278,6.3667)">
                <g transform="matrix(1,0,0,1,3.46369,-1540.15)">
                    <path d="M18.501,1587.19C18.265,1590.03 16.846,1621.56 19.468,1622.73C23.165,1624.37 50.521,1625.48 52.103,1624.42C53.463,1623.52 57.02,1584.67 50.411,1585.5C24.645,1588.72 19.657,1583.72 18.501,1587.19Z" style="fill:none;stroke:white;stroke-width:2px;"/>
                </g>
                <g transform="matrix(1,0,0,1,-415.868,-1545.03)">
                    <path d="M456.384,1591.16C456.705,1569.98 452.545,1561.84 473.795,1560.65C503.348,1559.01 504.045,1558.93 505.167,1561.17C510.204,1571.25 507.405,1608.81 507.405,1608.81" style="fill:none;stroke:white;stroke-width:2px;"/>
                </g>
                <g transform="matrix(1,0,0,1,-415.868,-1545.03)">
                    <path d="M512.77,1605C512.928,1604.02 489.321,1624.51 487.394,1625.66C481.581,1629.15 477.214,1624.66 473.795,1621.32" style="fill:none;stroke:white;stroke-width:2px;"/>
                </g>
                <g transform="matrix(1,0,0,1,-415.868,-1545.03)">
                    <path d="M492.567,1575.2C491.751,1605.4 492.569,1616.23 491.316,1621.24" style="fill:none;stroke:white;stroke-width:2px;"/>
                </g>
                <g transform="matrix(1,0,0,1,-415.868,-1545.03)">
                    <path d="M470.683,1576.61C470.727,1577.65 471.066,1585.8 470.292,1589.66" style="fill:none;stroke:white;stroke-width:2px;"/>
                </g>
                <g transform="matrix(1,0,0,1,-415.868,-1545.03)">
                    <path d="M473.283,1596.42C474.523,1596.12 482.716,1597.56 494.208,1596.46C500.578,1595.86 500.539,1596.17 506.948,1595.37" style="fill:none;stroke:white;stroke-width:2px;"/>
                </g>
                <g transform="matrix(1,0,0,1,-415.868,-1545.03)">
                    <path d="M474.309,1612.24C478.198,1611.93 495.723,1612.7 498.038,1612.02C501.497,1611 503.593,1611.23 503.9,1610.92" style="fill:none;stroke:white;stroke-width:2px;"/>
                </g>
                <g transform="matrix(1,0,0,1,-415.868,-1545.03)">
                    <path d="M478.88,1625.42C478.965,1625.61 490.964,1632.01 492.02,1632.57C510.962,1642.67 511.139,1642.27 511.637,1642.34" style="fill:none;stroke:white;stroke-width:2px;"/>
                </g>
                <g transform="matrix(1,0,0,1,-415.868,-1545.03)">
                    <path d="M513.229,1605.48C511.723,1612.41 515.288,1634.42 511.654,1643.21C509.712,1647.91 465.005,1644.82 456.663,1645.51C448.745,1646.17 451.405,1630.65 451.263,1630.51" style="fill:none;stroke:white;stroke-width:2px;"/>
                </g>
                <g transform="matrix(1,0,0,1,-415.868,-1545.03)">
                    <path d="M512.377,1604.91C511.705,1605.11 509.376,1601.82 508.501,1601.38" style="fill:none;stroke:white;stroke-width:2px;"/>
                </g>
                <g transform="matrix(1,0,0,1,-415.868,-1545.03)">
                    <path d="M453.567,1601.54C448.876,1603.5 444.717,1622.88 456.693,1619.75C460.297,1618.81 463.221,1610.52 459.663,1604.83C459.368,1604.35 456.667,1600.03 453.489,1601.62" style="fill:none;stroke:white;stroke-width:2px;"/>
                </g>
                <g transform="matrix(1,0,0,1,-415.868,-1545.03)">
                    <path d="M457.798,1576.44C460.596,1576.08 460.588,1576.75 493.036,1575.2C494.169,1575.15 503.767,1574.69 507.182,1574.27" style="fill:none;stroke:white;stroke-width:2px;"/>
                </g>
            </g>
        </g>
    </g>
</svg>
