<?xml version="1.0" encoding="UTF-8" standalone="no"?>
<!DOCTYPE svg PUBLIC "-//W3C//DTD SVG 1.1//EN" "http://www.w3.org/Graphics/SVG/1.1/DTD/svg11.dtd">
<svg width="100%" height="100%" viewBox="0 0 129 129" version="1.1" xmlns="http://www.w3.org/2000/svg" xmlns:xlink="http://www.w3.org/1999/xlink" xml:space="preserve" xmlns:serif="http://www.serif.com/" style="fill-rule:evenodd;clip-rule:evenodd;stroke-linecap:round;stroke-linejoin:round;stroke-miterlimit:1.5;">
    <g transform="matrix(1,0,0,1,-278,-1545)">
        <g id="microsoft-powerpoint" transform="matrix(1,0,0,1,278.974,1545.03)">
            <rect x="0" y="0" width="128" height="128"/>
            <g transform="matrix(1,0,0,1,0.966293,3.08988)">
                <g transform="matrix(1,0,0,1,3.46369,-1540.15)">
                    <path d="M18.501,1587.19C18.265,1590.03 16.846,1621.56 19.468,1622.73C23.165,1624.37 50.521,1625.48 52.103,1624.42C53.463,1623.52 57.02,1584.67 50.411,1585.5C24.645,1588.72 19.657,1583.72 18.501,1587.19Z" style="fill:none;stroke:white;stroke-width:2px;"/>
                </g>
                <g transform="matrix(1,0,0,1,-278.974,-1545.03)">
                    <path d="M312.642,1590.64C313.043,1586.34 317.525,1575.54 327.251,1567.9C345.109,1553.87 379.115,1561.97 382.097,1591.79C382.396,1594.78 395.129,1646.26 342.818,1650.62C331.757,1651.54 315.563,1640.25 313.132,1630.53" style="fill:none;stroke:white;stroke-width:2px;"/>
                </g>
                <g transform="matrix(1,0,0,1,-278.974,-1545.03)">
                    <path d="M337.051,1606.82C340.341,1606.83 341.52,1608.09 383.546,1602.83" style="fill:none;stroke:white;stroke-width:2px;"/>
                </g>
                <g transform="matrix(1,0,0,1,-278.974,-1545.03)">
                    <path d="M343.779,1561.84C343.991,1564.59 343.723,1563.74 343.723,1595.59C343.723,1600.46 342.584,1605.84 342.456,1606.09" style="fill:none;stroke:white;stroke-width:2px;"/>
                </g>
                <g transform="matrix(1,0,0,1,-278.974,-1545.03)">
                    <path d="M312.466,1600.86C312.583,1602.16 313.126,1612.65 312.046,1619.12" style="fill:none;stroke:white;stroke-width:2px;"/>
                </g>
                <g transform="matrix(1,0,0,1,-278.974,-1545.03)">
                    <path d="M312.77,1601.2C321.25,1601.77 322.836,1600.09 323.269,1603.56C323.633,1606.47 319.775,1612.45 313.132,1610.98" style="fill:none;stroke:white;stroke-width:2px;"/>
                </g>
            </g>
        </g>
    </g>
</svg>
