<?xml version="1.0" encoding="UTF-8" standalone="no"?>
<!DOCTYPE svg PUBLIC "-//W3C//DTD SVG 1.1//EN" "http://www.w3.org/Graphics/SVG/1.1/DTD/svg11.dtd">
<svg width="100%" height="100%" viewBox="0 0 129 129" version="1.1" xmlns="http://www.w3.org/2000/svg" xmlns:xlink="http://www.w3.org/1999/xlink" xml:space="preserve" xmlns:serif="http://www.serif.com/" style="fill-rule:evenodd;clip-rule:evenodd;stroke-linecap:round;stroke-linejoin:round;stroke-miterlimit:1.5;">
    <g transform="matrix(1,0,0,1,-143,-2315)">
        <g id="miro" transform="matrix(1,0,0,1,143.423,2315.45)">
            <rect x="0" y="0" width="128" height="128"/>
            <g transform="matrix(1,0,0,1,2.26548,2.35484)">
                <g transform="matrix(1,0,0,1,-143.423,-2315.45)">
                    <path d="M229.543,2336.55C232.401,2339.07 251.736,2353.3 252.064,2355.98C252.44,2359.04 232.624,2394.38 225.881,2416.66C225.136,2416.68 225.207,2416.74 216.62,2417.65C217.806,2412.88 227.483,2373.97 234.982,2358.99C233.44,2357.44 228.802,2352.77 218.4,2337.23C223.593,2337.04 224.644,2336.48 229.543,2336.55Z" style="fill:none;stroke:white;stroke-width:2px;"/>
                </g>
                <g transform="matrix(1,0,0,1,-171.74,-2315.45)">
                    <path d="M229.543,2336.55C232.401,2339.07 251.736,2353.3 252.064,2355.98C252.44,2359.04 232.624,2394.38 225.881,2416.66C225.136,2416.68 225.207,2416.74 216.62,2417.65C217.806,2412.88 227.483,2373.97 234.982,2358.99C233.44,2357.44 228.802,2352.77 218.4,2337.23C223.593,2337.04 224.644,2336.48 229.543,2336.55Z" style="fill:none;stroke:white;stroke-width:2px;"/>
                </g>
                <g transform="matrix(1,0,0,1,-201.797,-2315.45)">
                    <path d="M229.543,2336.55C232.401,2339.07 251.736,2353.3 252.064,2355.98C252.44,2359.04 232.624,2394.38 225.881,2416.66C225.136,2416.68 225.207,2416.74 216.62,2417.65C217.806,2412.88 227.483,2373.97 234.982,2358.99C233.44,2357.44 228.802,2352.77 218.4,2337.23C223.593,2337.04 224.644,2336.48 229.543,2336.55Z" style="fill:none;stroke:white;stroke-width:2px;"/>
                </g>
            </g>
        </g>
    </g>
</svg>
