<?xml version="1.0" encoding="UTF-8" standalone="no"?>
<!DOCTYPE svg PUBLIC "-//W3C//DTD SVG 1.1//EN" "http://www.w3.org/Graphics/SVG/1.1/DTD/svg11.dtd">
<svg width="100%" height="100%" viewBox="0 0 129 129" version="1.1" xmlns="http://www.w3.org/2000/svg" xmlns:xlink="http://www.w3.org/1999/xlink" xml:space="preserve" xmlns:serif="http://www.serif.com/" style="fill-rule:evenodd;clip-rule:evenodd;stroke-linecap:round;stroke-linejoin:round;stroke-miterlimit:1.5;">
    <g transform="matrix(1,0,0,1,-141,-2004)">
        <g id="newnewswire" transform="matrix(1,0,0,1,141.73,2004.52)">
            <rect x="0" y="0" width="128" height="128"/>
            <g transform="matrix(1,0,0,1,0.28262,0)">
                <g transform="matrix(1.31321,0,0,1.21159,-200.229,-2440.12)">
                    <path d="M209.367,2031.46C200.777,2036.55 210.987,2073.25 232.798,2062.35C235.669,2060.91 213.99,2029.83 209.367,2031.46Z" style="fill:none;stroke:white;stroke-width:1.58px;"/>
                </g>
                <g transform="matrix(1.31321,0,0,1.21159,-200.229,-2440.12)">
                    <path d="M224.491,2038.91C233.345,2032.37 230.305,2041.04 230.029,2041.47C227.267,2045.81 224.895,2040.6 224.491,2038.91Z" style="fill:none;stroke:white;stroke-width:1.58px;"/>
                </g>
                <g transform="matrix(1.31321,0,0,1.21159,-196.357,-2434.67)">
                    <path d="M199.719,2049.65C198.252,2048.89 174.916,2071.69 172.731,2072.78C166.758,2075.77 172.152,2082.45 171.027,2083.86C161.106,2096.26 172.643,2094.8 172.731,2094.72C176.63,2091.18 176.404,2089.79 176.591,2089.42C180.947,2093.78 182.154,2093.26 185.724,2089.4C209.693,2063.43 211.313,2062.54 208.941,2059.58C208.256,2058.72 201.841,2050.7 199.569,2049.57" style="fill:none;stroke:white;stroke-width:1.58px;"/>
                </g>
                <g transform="matrix(1.31321,0,0,1.21159,-196.357,-2434.67)">
                    <path d="M181.81,2056.72C182.831,2055.89 190.111,2050.01 193.918,2045.64C193.169,2043.37 175.678,2020.21 171.027,2024.86C163.892,2031.99 160.277,2033.55 167.192,2041.05C174.969,2049.47 179.189,2054.46 181.81,2056.72Z" style="fill:none;stroke:white;stroke-width:1.58px;"/>
                </g>
                <g transform="matrix(1.31321,0,0,1.21159,-196.357,-2434.67)">
                    <path d="M203.307,2080C203.116,2079.69 203.624,2079.93 209.58,2072.78C213.066,2068.6 213.765,2068.98 213.996,2068.83C230.564,2089.29 232.21,2088.21 232.585,2090.46C233.033,2093.15 225.433,2097.52 224.278,2099.84C222.535,2103.32 204.941,2089.25 203.403,2080.03C203.377,2079.87 203.261,2079.74 203.19,2079.6" style="fill:none;stroke:white;stroke-width:1.58px;"/>
                </g>
            </g>
        </g>
    </g>
</svg>
