<?xml version="1.0" encoding="UTF-8" standalone="no"?>
<!DOCTYPE svg PUBLIC "-//W3C//DTD SVG 1.1//EN" "http://www.w3.org/Graphics/SVG/1.1/DTD/svg11.dtd">
<svg width="100%" height="100%" viewBox="0 0 129 129" version="1.1" xmlns="http://www.w3.org/2000/svg" xmlns:xlink="http://www.w3.org/1999/xlink" xml:space="preserve" xmlns:serif="http://www.serif.com/" style="fill-rule:evenodd;clip-rule:evenodd;stroke-linecap:round;stroke-linejoin:round;stroke-miterlimit:1.5;">
    <g transform="matrix(1,0,0,1,-555,-2466)">
        <g id="nintendo-switch" transform="matrix(1,0,0,1,555.781,2466.14)">
            <rect x="0" y="0" width="128" height="128"/>
            <g transform="matrix(1,0,0,1,3.46398,4.45235)">
                <g transform="matrix(1,0,0,1,-555.781,-2466.14)">
                    <path d="M621.059,2481.7C621.865,2500.51 622.098,2505.07 621.376,2523.84C620.706,2541.26 621.849,2554.35 621.177,2570.17C630.39,2571.59 642.479,2566.55 646.324,2556.45C649.111,2549.14 651.955,2494.26 642.985,2487.11C633.415,2479.48 624.768,2480.87 621.059,2481.7Z" style="fill:none;stroke:white;stroke-width:2px;"/>
                </g>
                <g transform="matrix(1,0,0,1,-555.781,-2466.14)">
                    <path d="M632.573,2537.79C628.064,2538.92 630.038,2549.76 636.306,2545.06C637.547,2544.13 638.676,2536.24 632.573,2537.59" style="fill:none;stroke:white;stroke-width:2px;"/>
                </g>
                <g transform="matrix(1.12644,0,0,1,-633.448,-2466.14)">
                    <path d="M614.108,2487.89C613.445,2504.35 616.136,2568.78 611.358,2569.42C606.704,2570.04 592.076,2563.24 590.731,2559.2C589.532,2555.6 579.46,2488.72 598.589,2482.98C606.068,2480.74 605.996,2480.76 613.906,2481.22C613.97,2482.46 613.848,2483.71 613.912,2484.95C613.924,2485.18 613.926,2485.17 614.108,2487.89Z" style="fill:none;stroke:white;stroke-width:1.88px;"/>
                </g>
                <g transform="matrix(1.24499,0,0,1,-703.701,-2466.14)">
                    <path d="M598.559,2490.45C596.123,2493.07 593.24,2491.07 592.696,2515C591.83,2553.12 593.507,2558.43 607.623,2563.13C607.628,2537.89 608.483,2490.41 608.413,2488.52C603.025,2488.1 603.359,2488.07 598.559,2490.45Z" style="fill:none;stroke:white;stroke-width:1.77px;"/>
                </g>
                <g transform="matrix(1,0,0,1,-555.781,-2466.14)">
                    <path d="M599.551,2500.13C596.71,2499.78 594.993,2507.2 599.633,2507.49C602.049,2507.64 606.622,2500.66 599.387,2500.21" style="fill:none;stroke:white;stroke-width:2px;"/>
                </g>
            </g>
        </g>
    </g>
</svg>
