<?xml version="1.0" encoding="UTF-8" standalone="no"?>
<!DOCTYPE svg PUBLIC "-//W3C//DTD SVG 1.1//EN" "http://www.w3.org/Graphics/SVG/1.1/DTD/svg11.dtd">
<svg width="100%" height="100%" viewBox="0 0 129 129" version="1.1" xmlns="http://www.w3.org/2000/svg" xmlns:xlink="http://www.w3.org/1999/xlink" xml:space="preserve" xmlns:serif="http://www.serif.com/" style="fill-rule:evenodd;clip-rule:evenodd;stroke-linecap:round;stroke-linejoin:round;stroke-miterlimit:1.5;">
    <g transform="matrix(1,0,0,1,-281,-2315)">
        <g id="notes" transform="matrix(1,0,0,1,281.981,2315.45)">
            <rect x="0" y="0" width="128" height="128"/>
            <g transform="matrix(1,0,0,1,4.9467,3.07356)">
                <g transform="matrix(1,0,0,1,-281.981,-2315.45)">
                    <path d="M312.061,2334.43C304.947,2335.2 301.484,2343.7 300.871,2355.97C300.749,2358.4 301.606,2401.32 302.349,2404.74C306.659,2424.56 319.688,2420.88 350.274,2421.63C381.176,2422.38 378.059,2413.32 380.887,2403.89C381.678,2401.26 380.894,2401.36 379.831,2369.48C378.814,2338.97 375.836,2336.33 373.709,2334.43C366.234,2327.79 355.955,2333.18 338.451,2332.53C336.336,2332.45 319.83,2331.84 312.061,2334.43Z" style="fill:none;stroke:white;stroke-width:2px;"/>
                </g>
                <g transform="matrix(1,0,0,1,-281.981,-2315.45)">
                    <path d="M300.878,2353.06C313.453,2349.23 315.152,2351.12 329.584,2350.27C369.192,2347.94 373.867,2348.06 377.72,2348.16" style="fill:none;stroke:white;stroke-width:2px;"/>
                </g>
                <g transform="matrix(1,0,0,1,-281.981,-2315.45)">
                    <path d="M306.786,2357.06C306.644,2357.26 306.502,2357.46 306.36,2357.66" style="fill:none;stroke:white;stroke-width:2px;"/>
                </g>
                <g transform="matrix(1,0,0,1,-281.981,-2315.45)">
                    <path d="M316.194,2356.67C316.153,2356.65 316.112,2356.62 316.072,2356.6" style="fill:none;stroke:white;stroke-width:2px;"/>
                </g>
                <g transform="matrix(1,0,0,1,-281.981,-2315.45)">
                    <path d="M326.021,2356.16L326.417,2356.18" style="fill:none;stroke:white;stroke-width:2px;"/>
                </g>
                <g transform="matrix(1,0,0,1,-281.981,-2315.45)">
                    <path d="M337.697,2355.58L337.607,2355.34" style="fill:none;stroke:white;stroke-width:2px;"/>
                </g>
                <g transform="matrix(1,0,0,1,-281.981,-2315.45)">
                    <path d="M346.965,2355.49L347.318,2355.55" style="fill:none;stroke:white;stroke-width:2px;"/>
                </g>
                <g transform="matrix(1,0,0,1,-281.981,-2315.45)">
                    <path d="M358.416,2355.35C358.428,2355.41 358.512,2355.35 358.719,2355.97" style="fill:none;stroke:white;stroke-width:2px;"/>
                </g>
                <g transform="matrix(1,0,0,1,-281.981,-2315.45)">
                    <path d="M369.952,2354.79C369.995,2354.82 369.888,2354.89 370.331,2355.34" style="fill:none;stroke:white;stroke-width:2px;"/>
                </g>
                <g transform="matrix(1,0,0,1,-281.981,-2315.45)">
                    <path d="M312.806,2377.12C315.559,2377.78 315.566,2376.52 348.163,2375.39C357.225,2375.08 356.89,2373.61 365.897,2372.86" style="fill:none;stroke:white;stroke-width:2px;"/>
                </g>
                <g transform="matrix(1,0,0,1,-281.981,-2315.45)">
                    <path d="M315.354,2401.2C313.941,2402.15 358.978,2400.36 366.108,2397.98" style="fill:none;stroke:white;stroke-width:2px;"/>
                </g>
            </g>
        </g>
    </g>
</svg>
