<?xml version="1.0" encoding="UTF-8" standalone="no"?>
<!DOCTYPE svg PUBLIC "-//W3C//DTD SVG 1.1//EN" "http://www.w3.org/Graphics/SVG/1.1/DTD/svg11.dtd">
<svg width="100%" height="100%" viewBox="0 0 129 129" version="1.1" xmlns="http://www.w3.org/2000/svg" xmlns:xlink="http://www.w3.org/1999/xlink" xml:space="preserve" xmlns:serif="http://www.serif.com/" style="fill-rule:evenodd;clip-rule:evenodd;stroke-linecap:round;stroke-linejoin:round;stroke-miterlimit:1.5;">
    <g transform="matrix(1,0,0,1,-137,-323)">
        <g id="notion" transform="matrix(1,0,0,1,137.723,323.509)">
            <rect x="0" y="0" width="128" height="128"/>
            <g transform="matrix(1,0,0,1,-142.085,6.09606)">
                <path d="M177.745,26.691C178.098,48.7 176.58,48.566 176.872,70.459C177.167,92.543 179.119,96.187 180.173,98.154C183.104,103.626 241.13,99.181 247.043,99.876C249.954,100.219 249.791,95.997 250.057,76.629C250.204,65.911 247.322,66.077 248.622,43.338C249.903,20.924 245.165,21.797 243.312,21.669C237.385,21.26 179.78,21.177 178.451,25.831C178.282,26.42 178.413,26.336 178.164,26.835C178.132,26.898 178.22,26.896 178.02,27.696" style="fill:none;stroke:white;stroke-width:2px;"/>
            </g>
            <g transform="matrix(1,0,0,1,-142.085,6.09606)">
                <path d="M179.886,98.728C178.513,97.699 163.814,86.674 163.814,84.522C163.814,52.566 161.553,52.735 162.235,20.665C162.408,12.554 169.181,23.186 178.307,26.548" style="fill:none;stroke:white;stroke-width:2px;"/>
            </g>
            <g transform="matrix(1,0,0,1,-142.085,6.09606)">
                <path d="M162.666,18.512C165.829,18.629 211.7,15.416 214.038,15.642C232.713,17.449 239.594,9.343 246.461,23.076" style="fill:none;stroke:white;stroke-width:2px;"/>
            </g>
            <g transform="matrix(1,0,0,1,-142.085,6.09606)">
                <path d="M195.404,38.503C195.819,38.391 196.193,38.298 196.537,38.233C197.334,38.084 198.01,38.074 198.678,38.255C198.795,38.287 198.912,38.325 199.03,38.37C199.699,38.344 200.423,38.314 201.207,38.28C201.708,38.259 202.148,38.612 202.235,39.106C202.322,39.6 202.029,40.082 201.551,40.233C201.541,40.236 201.532,40.239 201.522,40.242C201.729,40.461 201.944,40.702 202.17,40.965C202.509,41.361 214.84,52.412 220.955,59.123C220.846,50.75 221.071,45.589 221.347,42.253C221.352,42.029 221.357,41.817 221.362,41.616C221.383,40.642 221.383,39.846 221.382,39.588C221.207,39.205 221.111,38.872 221.071,38.585C220.737,38.575 220.354,38.561 219.905,38.538C219.404,38.512 218.999,38.12 218.959,37.619C218.918,37.119 219.255,36.666 219.746,36.561C222.383,35.996 222.276,35.963 224.949,36.696L225.349,36.748L225.325,37.162C225.641,37.258 225.998,37.373 226.409,37.51C226.904,37.675 227.189,38.193 227.063,38.7C226.937,39.206 226.443,39.531 225.928,39.445C225.192,39.322 224.628,39.28 224.195,39.316C224.102,39.324 224.019,39.333 223.945,39.346C224.169,46.749 224.928,72.085 224.831,79.509C224.843,79.508 224.855,79.507 224.868,79.507L224.894,79.505C225.441,79.478 225.908,79.895 225.942,80.441C225.944,80.46 225.944,80.479 225.944,80.498L226.09,80.518C226.602,80.591 226.973,81.042 226.948,81.558C226.922,82.073 226.508,82.485 225.992,82.507C220.383,82.751 220.472,82.615 219.993,82.649C219.526,82.683 219.099,82.388 218.964,81.94C218.83,81.491 219.024,81.01 219.432,80.78C219.97,80.477 220.395,80.256 220.757,80.093C216.515,67.7 209.004,61.608 205.766,57.125C201.813,51.652 199.032,47.977 197.156,45.535C197.32,50.861 197.107,61.577 197.101,81.238L199.311,81.658C199.8,81.751 200.147,82.189 200.124,82.686C200.101,83.184 199.716,83.588 199.22,83.636C195.146,84.026 195.294,83.879 191.279,83.456C190.798,83.405 190.422,83.017 190.387,82.534C190.352,82.051 190.668,81.612 191.137,81.492L192.97,81.025C193.161,75.493 193.998,49.486 192.597,41.119C192.36,41.031 192.164,40.856 192.05,40.629C191.844,40.646 191.669,40.666 191.558,40.68C191.267,41.027 190.767,41.143 190.344,40.931C189.851,40.685 189.65,40.083 189.897,39.59L190.089,39.282L190.341,39.034L190.648,38.856C190.762,38.806 190.905,38.759 191.094,38.722C191.607,38.622 192.726,38.594 195.404,38.503Z" style="fill:white;"/>
            </g>
        </g>
    </g>
</svg>
