<?xml version="1.0" encoding="UTF-8" standalone="no"?>
<!DOCTYPE svg PUBLIC "-//W3C//DTD SVG 1.1//EN" "http://www.w3.org/Graphics/SVG/1.1/DTD/svg11.dtd">
<svg width="100%" height="100%" viewBox="0 0 129 129" version="1.1" xmlns="http://www.w3.org/2000/svg" xmlns:xlink="http://www.w3.org/1999/xlink" xml:space="preserve" xmlns:serif="http://www.serif.com/" style="fill-rule:evenodd;clip-rule:evenodd;stroke-linecap:round;stroke-linejoin:round;stroke-miterlimit:1.5;">
    <g transform="matrix(1,0,0,1,-137,-4107)">
        <g id="nubank" transform="matrix(1,0,0,1,137.57,4107.25)">
            <rect x="0" y="0" width="128" height="128"/>
            <g transform="matrix(1.19439,0,0,1.19439,-7.79173,0.0457866)">
                <g transform="matrix(1,0,0,1,-137.57,-4107.25)">
                    <path d="M155.793,4188.13C155.776,4186.98 155.659,4186.18 155.63,4185.02C155.161,4166.02 154.364,4135.74 170.831,4138.56C172.421,4138.83 171.196,4136.19 177.574,4134.07C196.909,4127.62 195.472,4174.6 195.865,4185.84C191.311,4186.24 191.189,4186 186.772,4186.73C186.044,4160.79 179.702,4144.14 173.364,4141.44C171.601,4140.69 170.319,4143.12 169.919,4143.45C166.663,4146.08 163.446,4153.96 165.211,4174.98C166.203,4186.78 165.077,4187.26 164.087,4187.34C156.46,4187.98 155.862,4188.06 155.793,4188.13Z" style="fill:none;stroke:white;stroke-width:1.67px;"/>
                </g>
                <g transform="matrix(-1,0,0,-1,257.784,4214.34)">
                    <path d="M155.793,4188.13C155.776,4186.98 155.659,4186.18 155.63,4185.02C155.161,4166.02 154.364,4135.74 170.831,4138.56C172.421,4138.83 171.196,4136.19 177.574,4134.07C196.909,4127.62 195.472,4174.6 195.865,4185.84C191.311,4186.24 191.189,4186 186.772,4186.73C186.044,4160.79 179.702,4144.14 173.364,4141.44C171.601,4140.69 170.319,4143.12 169.919,4143.45C166.663,4146.08 163.446,4153.96 165.211,4174.98C166.203,4186.78 165.077,4187.26 164.087,4187.34C156.46,4187.98 155.862,4188.06 155.793,4188.13Z" style="fill:none;stroke:white;stroke-width:1.67px;"/>
                </g>
            </g>
        </g>
    </g>
</svg>
