<?xml version="1.0" encoding="UTF-8" standalone="no"?>
<!DOCTYPE svg PUBLIC "-//W3C//DTD SVG 1.1//EN" "http://www.w3.org/Graphics/SVG/1.1/DTD/svg11.dtd">
<svg width="100%" height="100%" viewBox="0 0 129 129" version="1.1" xmlns="http://www.w3.org/2000/svg" xmlns:xlink="http://www.w3.org/1999/xlink" xml:space="preserve" xmlns:serif="http://www.serif.com/" style="fill-rule:evenodd;clip-rule:evenodd;stroke-linecap:round;stroke-linejoin:round;stroke-miterlimit:1.5;">
    <g transform="matrix(1,0,0,1,-274,-323)">
        <g id="OBS" transform="matrix(1,0,0,1,274.87,323.509)">
            <rect x="0" y="0" width="128" height="128"/>
            <g transform="matrix(1,0,0,1,-0.138426,2.63363)">
                <g transform="matrix(1,0,0,1,-274.87,0)">
                    <path d="M328.059,21.659C327.055,17.642 304.297,27.993 301.322,53.778C298.776,75.846 296.387,90.765 336.045,101.869C367.209,110.595 391.174,82.589 369.727,34.159C360.86,14.137 329.1,19.577 328.059,21.138" style="fill:none;stroke:white;stroke-width:2px;"/>
                </g>
                <g transform="matrix(1,0,0,1,-274.87,0)">
                    <path d="M340.033,55.658C339.776,67.631 342.071,69.236 332.747,76.695C318.256,88.288 315.242,81.903 313.649,81.903" style="fill:none;stroke:white;stroke-width:2px;"/>
                </g>
                <g transform="matrix(1,0,0,1,-274.87,0)">
                    <path d="M339.642,57.569C340.847,56.148 352.478,45.097 358.095,45.097C364.444,45.097 369.247,51.821 369.9,52.736" style="fill:none;stroke:white;stroke-width:2px;"/>
                </g>
                <g transform="matrix(1,0,0,1,-274.87,0)">
                    <path d="M340.212,57.25C336.43,58.511 323.407,53.936 321.288,44.402C318.944,33.856 322.157,34.155 323.545,28.603" style="fill:none;stroke:white;stroke-width:2px;"/>
                </g>
            </g>
        </g>
    </g>
</svg>
