<?xml version="1.0" encoding="UTF-8" standalone="no"?>
<!DOCTYPE svg PUBLIC "-//W3C//DTD SVG 1.1//EN" "http://www.w3.org/Graphics/SVG/1.1/DTD/svg11.dtd">
<svg width="100%" height="100%" viewBox="0 0 129 129" version="1.1" xmlns="http://www.w3.org/2000/svg" xmlns:xlink="http://www.w3.org/1999/xlink" xml:space="preserve" xmlns:serif="http://www.serif.com/" style="fill-rule:evenodd;clip-rule:evenodd;stroke-linecap:round;stroke-linejoin:round;stroke-miterlimit:1.5;">
    <g transform="matrix(1,0,0,1,-278,-3955)">
        <g id="orion-browser" transform="matrix(1,0,0,1,278.141,3955.56)">
            <rect x="0" y="0" width="128" height="128"/>
            <g>
                <g transform="matrix(1,0,0,1,-276.654,-3952.74)">
                    <path d="M329.982,3972.03C311.536,3976.15 261.119,4033.62 330.508,4062.19C333.077,4063.25 342.335,4063.86 343.371,4063.93C348.668,4064.29 371.886,4061.09 378.471,4046.27C385.619,4030.19 386.009,4030.14 386.319,4012.48C387.329,3954.92 332.849,3971.75 329.982,3972.03Z" style="fill:none;stroke:white;stroke-width:2px;"/>
                </g>
                <g transform="matrix(1.22796,0,0,1.31198,-355.812,-5201.31)">
                    <path d="M340.215,4000.14C339.86,4003.63 339.939,4007.81 333.727,4011.18C329.517,4013.47 329.303,4012.82 324.824,4014.32C338.686,4015.11 339.376,4019.55 342.9,4029.75C344.291,4024.9 344.725,4017.75 349.276,4015.32C354.151,4012.72 358.021,4012.73 358.928,4012.85C355.565,4011.17 346.582,4012.13 343.363,4005.69C342.943,4004.85 342.037,4002.29 342.029,4000.1C342.014,3996.39 340.742,3994.98 340.215,4000.14Z" style="fill:none;stroke:white;stroke-width:1.57px;"/>
                </g>
                <g transform="matrix(1,0,0,1,-278.141,-3955.56)">
                    <path d="M351.095,4009.19C352.306,4008.79 352.002,4008.53 353.248,4006.48C354.102,4007.91 354.12,4007.85 355.528,4008.7C354.327,4009.92 354.44,4009.89 353.524,4011.41C351.824,4009.72 351.61,4009.62 351.407,4009.52" style="fill:none;stroke:white;stroke-width:2px;"/>
                </g>
                <g transform="matrix(1,0,0,1,-278.141,-3955.56)">
                    <path d="M348.623,3990.78C349.457,3989.44 349.286,3989.46 349.72,3987.91C350.704,3988.99 350.519,3989.16 351.835,3989.82C352.102,3989.95 352.305,3990.05 350.651,3993.36C349.717,3992.3 349.759,3992.36 348.837,3991.21" style="fill:none;stroke:white;stroke-width:2px;"/>
                </g>
                <g transform="matrix(1,0,0,1,-278.141,-3955.56)">
                    <path d="M323.832,3984.93C325.33,3984.16 324.974,3983.92 325.603,3982.43C326.252,3983.16 326.901,3983.9 327.55,3984.64C326.939,3985.75 326.329,3986.86 325.718,3987.97C325.59,3987.78 325.627,3987.8 324.211,3985.53" style="fill:none;stroke:white;stroke-width:2px;"/>
                </g>
                <g transform="matrix(1,0,0,1,-278.141,-3955.56)">
                    <path d="M330.207,4032C330.778,4031.43 330.668,4031.4 331.813,4029.11C332.773,4031.35 332.541,4032.14 333.419,4031.57C333.271,4031.82 331.57,4034.73 331.57,4034.73C331.08,4033.75 330.59,4032.77 330.1,4031.79" style="fill:none;stroke:white;stroke-width:2px;"/>
                </g>
                <g transform="matrix(1,0,0,1,-278.141,-3955.56)">
                    <path d="M332.412,4053.67L332.556,4054.97C333.136,4053.75 333.716,4052.54 334.295,4051.33C334.878,4052.2 335.46,4053.08 336.042,4053.95C334.723,4056.98 334.485,4056.91 334.222,4056.84C333.736,4056.7 331.812,4053.15 332.402,4054.06" style="fill:none;stroke:white;stroke-width:2px;"/>
                </g>
                <g transform="matrix(1,0,0,1,-278.141,-3955.56)">
                    <path d="M361.733,4048.64C362.899,4048.52 362.511,4048.06 363.517,4045.56C364.779,4047.67 364.461,4048.44 365.593,4048.06C365.857,4047.97 365.684,4048.21 363.907,4051.1C362.098,4048.68 362.035,4048.74 361.953,4048.49" style="fill:none;stroke:white;stroke-width:2px;"/>
                </g>
            </g>
        </g>
    </g>
</svg>
