<?xml version="1.0" encoding="UTF-8" standalone="no"?>
<!DOCTYPE svg PUBLIC "-//W3C//DTD SVG 1.1//EN" "http://www.w3.org/Graphics/SVG/1.1/DTD/svg11.dtd">
<svg width="100%" height="100%" viewBox="0 0 129 129" version="1.1" xmlns="http://www.w3.org/2000/svg" xmlns:xlink="http://www.w3.org/1999/xlink" xml:space="preserve" xmlns:serif="http://www.serif.com/" style="fill-rule:evenodd;clip-rule:evenodd;stroke-linecap:round;stroke-linejoin:round;stroke-miterlimit:1.5;">
    <g transform="matrix(1,0,0,1,-561,-4107)">
        <g id="paypal" transform="matrix(1,0,0,1,561.167,4107.25)">
            <rect x="0" y="0" width="128" height="128"/>
            <g transform="matrix(1.14196,0,0,1.14196,-4.4675,-11.3973)">
                <g transform="matrix(1,0,0,1,-561.167,-4107.25)">
                    <path d="M594.804,4136.51C591.222,4137.85 588.48,4179.55 585.525,4194.33C583.705,4203.43 593.12,4200.5 598.419,4201.82C608.654,4204.38 602.999,4189.35 609.278,4173.23C615.586,4174.69 633.286,4173.86 636.405,4165.93C639.551,4157.92 640.604,4151.77 630.132,4140.14C626.326,4135.91 600.224,4131.01 594.934,4136.3" style="fill:none;stroke:white;stroke-width:1.75px;"/>
                </g>
                <g transform="matrix(1,0,0,1,-542.787,-4096.81)">
                    <path d="M594.804,4136.51C591.222,4137.85 588.48,4179.55 585.525,4194.33C583.705,4203.43 593.12,4200.5 598.419,4201.82C608.654,4204.38 602.999,4189.35 609.278,4173.23C615.586,4174.69 633.286,4173.86 636.405,4165.93C639.551,4157.92 640.604,4151.77 630.132,4140.14C626.326,4135.91 600.224,4131.01 594.934,4136.3" style="fill:none;stroke:white;stroke-width:1.75px;"/>
                </g>
            </g>
        </g>
    </g>
</svg>
