<?xml version="1.0" encoding="UTF-8" standalone="no"?>
<!DOCTYPE svg PUBLIC "-//W3C//DTD SVG 1.1//EN" "http://www.w3.org/Graphics/SVG/1.1/DTD/svg11.dtd">
<svg width="100%" height="100%" viewBox="0 0 129 129" version="1.1" xmlns="http://www.w3.org/2000/svg" xmlns:xlink="http://www.w3.org/1999/xlink" xml:space="preserve" xmlns:serif="http://www.serif.com/" style="fill-rule:evenodd;clip-rule:evenodd;stroke-linecap:round;stroke-linejoin:round;stroke-miterlimit:1.5;">
    <g transform="matrix(1,0,0,1,-553,-775)">
        <g id="penpot" transform="matrix(1,0,0,1,553.232,775.636)">
            <rect x="0" y="0" width="128" height="128"/>
            <g transform="matrix(1,0,0,1,-0.724034,-1.37654)">
                <g transform="matrix(1.19947,0,0,0.883758,-670.925,-520.696)">
                    <path d="M618.581,710.913C623.919,707.595 626.462,700.796 637.818,692.223C632.493,657.507 633.882,646.215 634.372,642.237C613.557,656.505 613.925,657.1 611.769,657.408C609.708,657.702 596.247,646.682 588.8,643.781C589.289,655.191 588.901,655.041 589.494,666.318C590.569,686.737 588.248,686.782 590.357,699.83C592.518,700.879 611.007,709.848 616.97,713.739C619.097,711.027 618.96,711.045 621.365,708.64" style="fill:none;stroke:white;stroke-width:1.9px;"/>
                </g>
                <g transform="matrix(1.19097,0,0,1.10532,-665.494,-666.616)">
                    <path d="M606.151,654.289C606.585,652.882 606.295,652.871 604.915,639.073C604.116,631.076 606.492,631.683 609.79,624.357C613.602,629.305 615.729,628.078 616.567,634.276C618.227,646.559 618.533,651.767 618.623,653.295" style="fill:none;stroke:white;stroke-width:1.74px;"/>
                </g>
                <g transform="matrix(1.19947,0,0,1.14497,-670.635,-691.371)">
                    <path d="M604.573,634.79C604.963,635.962 614.826,634.729 615.71,634.618" style="fill:none;stroke:white;stroke-width:1.71px;"/>
                </g>
                <g transform="matrix(1.19947,0,0,1.14497,-670.635,-691.371)">
                    <path d="M611.084,636.503C611.193,638.08 612.423,655.928 612.455,656.208" style="fill:none;stroke:white;stroke-width:1.71px;"/>
                </g>
                <g transform="matrix(1.19947,0,0,1.14497,-670.635,-691.371)">
                    <path d="M616.24,631.557C617.379,628.489 617.683,628.691 621.845,621.891C626.371,627.932 626.429,628.45 626.505,629.135C626.576,629.776 627.086,645.546 627.876,647.127" style="fill:none;stroke:white;stroke-width:1.71px;"/>
                </g>
                <g transform="matrix(1.19947,0,0,1.14497,-670.635,-691.371)">
                    <path d="M616.922,632.308C620.274,633.027 623.25,630.506 625.991,631.877" style="fill:none;stroke:white;stroke-width:1.71px;"/>
                </g>
                <g transform="matrix(1.9414,0,0,1.32472,-1131.72,-807.121)">
                    <path d="M621.365,633.933C621.812,635.275 621.644,635.303 622.393,649.526" style="fill:none;stroke:white;stroke-width:1.2px;"/>
                </g>
                <g transform="matrix(1.19947,0,0,1.14497,-670.635,-691.371)">
                    <path d="M603.719,634.331C604.149,633.751 599.649,628.86 597.722,627.073C595.538,631.199 595.502,631.03 593.084,634.911C594.423,640.56 595.045,646.772 595.149,647.812" style="fill:none;stroke:white;stroke-width:1.71px;"/>
                </g>
                <g transform="matrix(1.19947,0,0,1.14497,-670.635,-691.371)">
                    <path d="M593.289,637.286C594.747,637.366 603.672,636.427 604.573,636.332" style="fill:none;stroke:white;stroke-width:1.71px;"/>
                </g>
                <g transform="matrix(1.19947,0,0,1.14497,-670.635,-691.371)">
                    <path d="M599.856,637.422C599.759,638.166 600.558,649.346 600.632,650.382" style="fill:none;stroke:white;stroke-width:1.71px;"/>
                </g>
                <g transform="matrix(0.982947,0,0,1.39011,-542.14,-848.318)">
                    <path d="M587.517,644.742C587.784,643.213 593.166,640.003 593.435,640.273" style="fill:none;stroke:white;stroke-width:1.66px;"/>
                </g>
                <g transform="matrix(1.29139,0,0,1.62712,-728.235,-998.094)">
                    <path d="M626.676,636.161C628.827,639.028 630.225,639.367 633.188,642.329" style="fill:none;stroke:white;stroke-width:1.36px;"/>
                </g>
                <g transform="matrix(1.20813,0,0,0.866305,-675.938,-508.029)">
                    <path d="M612.626,657.922C612.394,661.169 613.495,661.078 615.368,698.531C615.723,705.643 616.201,705.494 616.91,712.581" style="fill:none;stroke:white;stroke-width:1.9px;"/>
                </g>
            </g>
        </g>
    </g>
</svg>
