<?xml version="1.0" encoding="UTF-8" standalone="no"?>
<!DOCTYPE svg PUBLIC "-//W3C//DTD SVG 1.1//EN" "http://www.w3.org/Graphics/SVG/1.1/DTD/svg11.dtd">
<svg width="100%" height="100%" viewBox="0 0 129 129" version="1.1" xmlns="http://www.w3.org/2000/svg" xmlns:xlink="http://www.w3.org/1999/xlink" xml:space="preserve" xmlns:serif="http://www.serif.com/" style="fill-rule:evenodd;clip-rule:evenodd;stroke-linecap:round;stroke-linejoin:round;stroke-miterlimit:1.5;">
    <g transform="matrix(1,0,0,1,-278,-3345)">
        <g id="pinterest" transform="matrix(1,0,0,1,278.611,3345.01)">
            <rect x="0" y="0" width="128" height="128"/>
            <g transform="matrix(1,0,0,1,5.64985,3.47369)">
                <g>
                    <g transform="matrix(1,0,0,1,-278.611,-3345.01)">
                        <path d="M327.137,3364.09C294.674,3377.56 272.644,3443.53 332.845,3449.01C332.91,3449.01 382.185,3462.04 378.774,3395.51C377.03,3361.52 345.302,3356.55 327.137,3364.09Z" style="fill:none;stroke:white;stroke-width:2px;"/>
                    </g>
                    <g transform="matrix(1.05857,0,0,1.05857,-299.882,-3546.99)">
                        <path d="M328.712,3448.28C326.109,3439.35 325.493,3440.49 327.961,3431.43C328.544,3429.3 332.599,3416.46 333.229,3410.79C334.528,3399.1 343.366,3398.24 343.622,3404.38C343.796,3408.56 343.242,3408.4 342.898,3412.49C359.47,3415.06 360.288,3390.69 340.205,3388.87C333.433,3388.25 322.582,3398.62 327.392,3410.65C327.678,3411.36 325.773,3417.49 322.836,3414.06C309.159,3398.11 324.94,3378.36 347.609,3384.02C359.687,3387.04 371.831,3411.79 354.585,3419.05C349.197,3421.32 349.037,3422.97 343.765,3420.33C343.254,3420.07 343.277,3420.19 341.524,3420.18C338.306,3431.54 338.825,3431.63 333.514,3442.25C333.274,3442.74 330.42,3447.43 328.712,3448.28Z" style="fill:none;stroke:white;stroke-width:1.89px;"/>
                    </g>
                </g>
            </g>
        </g>
    </g>
</svg>
