<?xml version="1.0" encoding="UTF-8" standalone="no"?>
<!DOCTYPE svg PUBLIC "-//W3C//DTD SVG 1.1//EN" "http://www.w3.org/Graphics/SVG/1.1/DTD/svg11.dtd">
<svg width="100%" height="100%" viewBox="0 0 129 129" version="1.1" xmlns="http://www.w3.org/2000/svg" xmlns:xlink="http://www.w3.org/1999/xlink" xml:space="preserve" xmlns:serif="http://www.serif.com/" style="fill-rule:evenodd;clip-rule:evenodd;stroke-linecap:round;stroke-linejoin:round;stroke-miterlimit:1.5;">
    <g transform="matrix(1,0,0,1,-278,-4259)">
        <g id="pix" transform="matrix(1,0,0,1,278.955,4259.57)">
            <rect x="0" y="0" width="128" height="128"/>
            <g transform="matrix(1,0,0,1,5.34608,3.41007)">
                <g transform="matrix(1,0,0,1,-278.955,-4259.57)">
                    <path d="M295.446,4329.37C295.995,4328.99 297.029,4318.11 308.067,4307.07C310.463,4308.36 310.502,4308.27 313.825,4309.68C318.958,4311.87 324.796,4317.23 331.4,4320.24C336.559,4322.59 345.348,4322.63 350.208,4319.32C369.626,4306.1 372.272,4307.12 372.272,4307.12C372.272,4307.12 374.13,4309.61 375.432,4311.1C376.096,4311.86 388.409,4334.06 368.32,4342.7C365.158,4339.81 357.197,4333.57 350.563,4329.91C343.915,4326.24 337.049,4328.02 330.64,4330.15C324.273,4332.27 309.029,4343.82 309.029,4343.82C309.029,4343.82 298.943,4339.26 295.446,4329.37Z" style="fill:none;stroke:white;stroke-width:2px;"/>
                </g>
                <g transform="matrix(1,0,0,1,-278.955,-4259.57)">
                    <path d="M310.172,4303.5C321.454,4287.32 337.512,4271.48 345.399,4278.49C353.045,4285.29 367.31,4300 369.777,4303.99C353.302,4306.43 354.466,4317.17 340.221,4317.42C330.586,4317.58 315.545,4305.52 315.3,4305.39C313.194,4304.26 310.3,4303.62 310.172,4303.5Z" style="fill:none;stroke:white;stroke-width:2px;"/>
                </g>
                <g transform="matrix(1,0,0,1,-278.955,-4259.57)">
                    <path d="M312.181,4347.02C315.35,4346.26 337.014,4327.95 346.772,4334.78C346.958,4334.92 355.143,4339.32 365.177,4346.01C363.077,4348.51 362.925,4348.52 357.927,4354.52C356.355,4356.41 349.558,4363.66 337.239,4363.53C330.182,4363.45 312.521,4347.36 312.181,4347.02Z" style="fill:none;stroke:white;stroke-width:2px;"/>
                </g>
            </g>
        </g>
    </g>
</svg>
