<?xml version="1.0" encoding="UTF-8" standalone="no"?>
<!DOCTYPE svg PUBLIC "-//W3C//DTD SVG 1.1//EN" "http://www.w3.org/Graphics/SVG/1.1/DTD/svg11.dtd">
<svg width="100%" height="100%" viewBox="0 0 129 129" version="1.1" xmlns="http://www.w3.org/2000/svg" xmlns:xlink="http://www.w3.org/1999/xlink" xml:space="preserve" xmlns:serif="http://www.serif.com/" style="fill-rule:evenodd;clip-rule:evenodd;stroke-linecap:round;stroke-linejoin:round;stroke-miterlimit:1.5;">
    <g transform="matrix(1,0,0,1,-1,-2618)">
        <g id="playstation" transform="matrix(1,0,0,1,1.59335,2618.58)">
            <rect x="0" y="0" width="128" height="128"/>
            <g transform="matrix(1.14563,0,0,1.14563,-5.5035,-4.60954)">
                <g transform="matrix(1,0,0,1,-1.59335,-2618.58)">
                    <path d="M51.552,2637.11C51.522,2637.9 48.333,2707.41 48.396,2708.79C48.526,2711.64 60.161,2717.54 61.296,2718.12C64.728,2659.78 63.719,2656.3 68.526,2657.27C71.05,2657.77 67.044,2680.47 70.558,2681.64C88.57,2687.65 85.721,2653.02 80.53,2648.4C72.076,2640.89 61.11,2639.82 55.783,2637.69C55.466,2637.56 54.799,2637.3 51.552,2637.11Z" style="fill:none;stroke:white;stroke-width:1.75px;"/>
                </g>
                <g transform="matrix(1,0,0,1,-1.59335,-2618.58)">
                    <path d="M44.792,2676.62C44.595,2684.41 44.237,2684.66 43.594,2684.6C43.139,2684.55 42.905,2683.93 33.068,2688.85C24.266,2693.25 29.419,2699.82 34.914,2697.53C35.553,2697.26 43.164,2694.09 43.225,2695.13C43.612,2701.71 43.45,2700.1 43.634,2704.84C36.434,2707.72 13.338,2704.55 20.879,2690.51C24.077,2684.55 32.679,2679.08 40.455,2676.47C40.697,2676.39 44.423,2676.25 44.792,2676.62Z" style="fill:none;stroke:white;stroke-width:1.75px;"/>
                </g>
                <g transform="matrix(1,0,0,1,-1.59335,-2618.58)">
                    <path d="M66.864,2695.31C72.805,2692.57 85.014,2682.08 95.489,2684.23C99.729,2685.1 104.099,2687.32 105.093,2693.65C106.682,2703.77 66.662,2719.82 66.662,2719.82C66.662,2719.82 66.921,2715 67.051,2712.59C70.945,2709.72 86.461,2704.11 87.917,2699.74C91.922,2687.73 81.113,2698.52 66.673,2704.46C66.722,2703.73 66.626,2703.88 66.864,2695.31Z" style="fill:none;stroke:white;stroke-width:1.75px;"/>
                </g>
            </g>
        </g>
    </g>
</svg>
