<?xml version="1.0" encoding="UTF-8" standalone="no"?>
<!DOCTYPE svg PUBLIC "-//W3C//DTD SVG 1.1//EN" "http://www.w3.org/Graphics/SVG/1.1/DTD/svg11.dtd">
<svg width="100%" height="100%" viewBox="0 0 129 129" version="1.1" xmlns="http://www.w3.org/2000/svg" xmlns:xlink="http://www.w3.org/1999/xlink" xml:space="preserve" xmlns:serif="http://www.serif.com/" style="fill-rule:evenodd;clip-rule:evenodd;stroke-linecap:round;stroke-linejoin:round;stroke-miterlimit:1.5;">
    <g transform="matrix(1,0,0,1,-277,-5168)">
        <g id="proton-pass" transform="matrix(1,0,0,1,277.4,5168.21)">
            <rect x="0" y="0" width="128" height="128"/>
            <g transform="matrix(1.25142,0,0,1.25142,-18.5759,-6.31915)">
                <g transform="matrix(1,0,0,1,-277.4,-5168.21)">
                    <path d="M327.692,5195.1C324.496,5199.89 312.008,5220.56 310.164,5222.4C302.594,5229.97 307.086,5235.36 307.804,5236.22C308.887,5237.52 341.819,5267.03 352.637,5261.34C358.907,5258.04 387.799,5222.51 379.436,5214.99C379.18,5214.76 352.238,5194.36 351.12,5193.58C339.219,5185.34 335.697,5183.09 327.692,5195.1Z" style="fill:none;stroke:white;stroke-width:1.6px;"/>
                </g>
                <g transform="matrix(1,0,0,1,-277.4,-5168.21)">
                    <path d="M329.821,5194.94C331.633,5200.44 364.233,5217.08 361.4,5225.57C358.785,5233.42 351.418,5238.27 343.792,5249.16C342.83,5250.54 342.784,5250.4 336.455,5256.73C336.359,5256.82 336.304,5256.95 336.229,5257.07" style="fill:none;stroke:white;stroke-width:1.6px;"/>
                </g>
            </g>
        </g>
    </g>
</svg>
