<?xml version="1.0" encoding="UTF-8" standalone="no"?>
<!DOCTYPE svg PUBLIC "-//W3C//DTD SVG 1.1//EN" "http://www.w3.org/Graphics/SVG/1.1/DTD/svg11.dtd">
<svg width="100%" height="100%" viewBox="0 0 129 129" version="1.1" xmlns="http://www.w3.org/2000/svg" xmlns:xlink="http://www.w3.org/1999/xlink" xml:space="preserve" xmlns:serif="http://www.serif.com/" style="fill-rule:evenodd;clip-rule:evenodd;stroke-linecap:round;stroke-linejoin:round;stroke-miterlimit:1.5;">
    <g transform="matrix(1,0,0,1,-550,-5318)">
        <g id="radarr" transform="matrix(1,0,0,1,550.959,5318.01)">
            <rect x="0" y="0" width="128" height="128"/>
            <g transform="matrix(1,0,0,1,6.29672,2.22077)">
                <g transform="matrix(1,0,0,1,-550.959,-5318.01)">
                    <path d="M583.867,5411.61C583.804,5406.46 583.242,5359.69 584.148,5347.3C587.931,5349.33 632.477,5379.48 635.252,5382.95C638.898,5387.51 639.241,5387.46 640.745,5395.73C645.136,5375.72 640.906,5373 633.914,5367.57C633.571,5367.3 583.997,5335.94 583.193,5335.91C573.977,5335.53 575.773,5342.41 574.835,5358.36C574.628,5361.88 575.193,5361.83 575.193,5402.42C575.193,5412.13 583.389,5411.13 583.867,5411.61Z" style="fill:none;stroke:white;stroke-width:2px;"/>
                </g>
                <g transform="matrix(1,0,0,1,-550.959,-5318.01)">
                    <path d="M575.71,5415.55C575.303,5415.04 576.845,5416.98 580.347,5417.37C581.576,5417.51 586.387,5417.79 596.119,5414.89C602.212,5413.06 611.12,5408.57 624.589,5400.35C630.563,5396.7 635.169,5393.12 635.169,5393.12C635.169,5393.12 638.968,5400 633.265,5403.95C630.069,5406.17 623.863,5410.39 619.611,5412.8C610.719,5417.84 595.016,5427.31 578.197,5422.24C577.078,5421.91 576.063,5419.34 575.873,5417.66C575.799,5417.02 575.754,5416.31 575.71,5415.55Z" style="fill:none;stroke:white;stroke-width:2px;"/>
                </g>
            </g>
            <g transform="matrix(1,0,0,1,-538.687,-5314.96)">
                <path d="M595.1,5373.29C594.904,5383.84 595.169,5383.77 594.527,5394.28C601.348,5389.55 608.258,5384.13 610.848,5382.41C608.379,5380.86 597.068,5373.95 595.1,5373.29Z" style="fill:none;stroke:white;stroke-width:2px;"/>
            </g>
        </g>
    </g>
</svg>
