<?xml version="1.0" encoding="UTF-8" standalone="no"?>
<!DOCTYPE svg PUBLIC "-//W3C//DTD SVG 1.1//EN" "http://www.w3.org/Graphics/SVG/1.1/DTD/svg11.dtd">
<svg width="100%" height="100%" viewBox="0 0 129 129" version="1.1" xmlns="http://www.w3.org/2000/svg" xmlns:xlink="http://www.w3.org/1999/xlink" xml:space="preserve" xmlns:serif="http://www.serif.com/" style="fill-rule:evenodd;clip-rule:evenodd;stroke-linecap:round;stroke-linejoin:round;stroke-miterlimit:1.5;">
    <g transform="matrix(1,0,0,1,-551,-1388)">
        <g id="razer-synapse" transform="matrix(1,0,0,1,551.841,1388.99)">
            <rect x="0" y="0" width="128" height="128"/>
            <g transform="matrix(1,0,0,1,-551.1,-1210.15)">
                <path d="M604.396,1232.67C569.994,1243.61 560.673,1314.15 612.72,1318.32C615.268,1318.52 627.68,1319.29 640.102,1311.53C645.62,1308.08 664.761,1271.75 646.017,1249.1C625.136,1223.87 613.939,1229.63 604.396,1232.67Z" style="fill:none;stroke:white;stroke-width:2px;"/>
            </g>
            <g transform="matrix(1,0,0,1,-548.731,-1211.48)">
                <path d="M610.869,1268.4C611.41,1267.98 615.133,1263.63 620.572,1268.64C626.301,1260.05 627.099,1258.98 627.706,1258.17C618.416,1246.2 640.014,1248.18 638.569,1258.3C638.134,1261.34 634.539,1258.75 632.654,1262.02C628.449,1269.31 625.702,1271.67 626.301,1274.07C627.396,1278.45 624.023,1282.17 623.972,1282.25C632.254,1290.56 630.924,1293.32 635.94,1292.69C643.426,1291.75 639.432,1302.53 634.626,1303.64C629.162,1304.9 627.57,1303.61 628.93,1298.16C628.175,1297.41 624.275,1294.76 620.334,1288.24C606.714,1294.51 605.327,1281.94 605.327,1281.94C605.327,1281.94 603.308,1281.49 602.205,1280.86C595.591,1277.08 590.478,1276.24 590.478,1276.24C590.478,1276.24 590.393,1278.9 590.278,1278.89C578.282,1278.01 581.177,1269.4 582.041,1268.26C584.047,1265.6 589.865,1260.59 591.507,1270.75C594.439,1271.2 599.13,1271.66 606.367,1276.37C606.428,1275.5 607.504,1271.05 610.869,1268.4Z" style="fill:none;stroke:white;stroke-width:2px;"/>
            </g>
        </g>
    </g>
</svg>
