<?xml version="1.0" encoding="UTF-8" standalone="no"?>
<!DOCTYPE svg PUBLIC "-//W3C//DTD SVG 1.1//EN" "http://www.w3.org/Graphics/SVG/1.1/DTD/svg11.dtd">
<svg width="100%" height="100%" viewBox="0 0 128 129" version="1.1" xmlns="http://www.w3.org/2000/svg" xmlns:xlink="http://www.w3.org/1999/xlink" xml:space="preserve" xmlns:serif="http://www.serif.com/" style="fill-rule:evenodd;clip-rule:evenodd;stroke-linecap:round;stroke-linejoin:round;stroke-miterlimit:1.5;">
    <g transform="matrix(1,0,0,1,0,-775)">
        <g id="reaper" transform="matrix(1,0,0,1,0,775.636)">
            <rect x="0" y="0" width="128" height="128"/>
            <g transform="matrix(1,0,0,1,-0.32259,1.33182)">
                <g transform="matrix(1,0,0,1,0,-601.213)">
                    <path d="M38.207,623.89C65.984,604.05 114.867,620.867 100.066,657.869C83.157,700.142 75.638,732.656 48.953,697.075C45.458,692.415 7.974,642.437 36.465,625.342C36.94,625.057 37.917,624.471 42.273,621.567C42.499,621.416 44.016,620.405 45.177,619.824" style="fill:none;stroke:white;stroke-width:2px;"/>
                </g>
                <g transform="matrix(1,0,0,1,0,-601.213)">
                    <path d="M39.844,643.088C45.212,659.09 50.544,654.813 61.15,665.42C61.675,665.944 70.991,668.891 70.153,690.686C70.045,693.508 64.795,709.965 70.444,696.785C88.226,655.292 58.823,656.406 55.342,645.962C55.296,645.824 72.195,639.929 76.833,639.572C86.957,638.794 96.915,649.034 92.806,642.186C81.081,622.645 52.167,635.788 48.953,637.249C48.162,637.608 48.118,637.315 38.873,641.28C39.132,642.197 39.691,643.012 39.95,643.929C39.982,644.043 39.95,643.929 40.24,645.381" style="fill:none;stroke:white;stroke-width:2px;"/>
                </g>
            </g>
        </g>
    </g>
</svg>
