<?xml version="1.0" encoding="UTF-8" standalone="no"?>
<!DOCTYPE svg PUBLIC "-//W3C//DTD SVG 1.1//EN" "http://www.w3.org/Graphics/SVG/1.1/DTD/svg11.dtd">
<svg width="100%" height="100%" viewBox="0 0 129 129" version="1.1" xmlns="http://www.w3.org/2000/svg" xmlns:xlink="http://www.w3.org/1999/xlink" xml:space="preserve" xmlns:serif="http://www.serif.com/" style="fill-rule:evenodd;clip-rule:evenodd;stroke-linecap:round;stroke-linejoin:round;stroke-miterlimit:1.5;">
    <g transform="matrix(1,0,0,1,-142,-923)">
        <g id="safari" transform="matrix(1,0,0,1,142.666,923.708)">
            <rect x="0" y="0" width="128" height="128"/>
            <g transform="matrix(1,0,0,1,2.61138,3.7044)">
                <g transform="matrix(1,0,0,1,-142.666,-749.285)">
                    <path d="M191.747,763.39C191.487,763.511 190.238,762.54 188.985,763.236C153.867,782.746 147.338,839.657 180.283,851.423C189.192,854.605 207.283,864.164 228.022,854.245C262.575,837.72 256.66,754.437 198.626,760.885C197.81,760.976 193.184,761.489 188.749,763.707" style="fill:none;stroke:white;stroke-width:2px;"/>
                </g>
                <g transform="matrix(1,0,0,1,-142.666,-749.285)">
                    <path d="M195.895,804.696C195.156,807.962 196.504,802.002 226.585,776.228C222.643,787.364 215.404,811.391 215.088,811.68C208.597,817.63 195.415,835.995 186.06,845.428C186.478,842.083 189.5,817.882 195.411,804.342C207.766,809.047 209.363,805.015 214.618,810.269" style="fill:none;stroke:white;stroke-width:2px;"/>
                </g>
                <g transform="matrix(1,0,0,1,-142.666,-749.285)">
                    <path d="M202.444,765.667C205.535,764.304 202.49,766.931 202.154,770.291" style="fill:none;stroke:white;stroke-width:2px;"/>
                </g>
                <g transform="matrix(1,0,0,1,-142.666,-749.285)">
                    <path d="M206.062,846.656C205.585,844.554 206.079,851.442 206.387,852.364" style="fill:none;stroke:white;stroke-width:2px;"/>
                </g>
                <g transform="matrix(1,0,0,1,-142.666,-749.285)">
                    <path d="M163.242,810.218C163.779,810.26 163.709,810.283 169.936,810.975" style="fill:none;stroke:white;stroke-width:2px;"/>
                </g>
                <g transform="matrix(1,0,0,1,-142.666,-749.285)">
                    <path d="M235.565,809.718C238.578,809.384 238.746,810.316 241.662,808.858" style="fill:none;stroke:white;stroke-width:2px;"/>
                </g>
            </g>
        </g>
    </g>
</svg>
