<?xml version="1.0" encoding="UTF-8" standalone="no"?>
<!DOCTYPE svg PUBLIC "-//W3C//DTD SVG 1.1//EN" "http://www.w3.org/Graphics/SVG/1.1/DTD/svg11.dtd">
<svg width="100%" height="100%" viewBox="0 0 129 129" version="1.1" xmlns="http://www.w3.org/2000/svg" xmlns:xlink="http://www.w3.org/1999/xlink" xml:space="preserve" xmlns:serif="http://www.serif.com/" style="fill-rule:evenodd;clip-rule:evenodd;stroke-linecap:round;stroke-linejoin:round;stroke-miterlimit:1.5;">
    <g transform="matrix(1,0,0,1,-419,-4107)">
        <g id="santander" transform="matrix(1,0,0,1,419.541,4107.25)">
            <rect x="0" y="0" width="128" height="128"/>
            <g transform="matrix(1.09892,0,0,1.09892,-463.884,-4511.54)">
                <path d="M461.018,4162.93C443.116,4166.26 412.192,4194.52 469.243,4197.87C473.4,4198.11 499.83,4202.4 519.071,4190.08C523.934,4186.97 533.781,4164.73 500.854,4161.51C498.797,4156.76 496.725,4146.33 488.068,4142.04C487.772,4141.9 483.63,4141.37 480.16,4128.56C472.447,4147.76 482.635,4147.2 487.841,4154.49C497.332,4167.77 490.896,4175.2 490.449,4176.55C487.31,4167.74 488.944,4166.12 481.506,4161.27C471.098,4154.49 473.162,4152.78 468.446,4142.11C467.158,4143.6 458.152,4153.95 472.908,4166.25C482.465,4174.22 479.517,4177.32 479.217,4181.07C467.404,4176.21 464.834,4168.66 462.047,4163.08" style="fill:none;stroke:white;stroke-width:1.82px;"/>
            </g>
        </g>
    </g>
</svg>
