<?xml version="1.0" encoding="UTF-8" standalone="no"?>
<!DOCTYPE svg PUBLIC "-//W3C//DTD SVG 1.1//EN" "http://www.w3.org/Graphics/SVG/1.1/DTD/svg11.dtd">
<svg width="100%" height="100%" viewBox="0 0 129 129" version="1.1" xmlns="http://www.w3.org/2000/svg" xmlns:xlink="http://www.w3.org/1999/xlink" xml:space="preserve" xmlns:serif="http://www.serif.com/" style="fill-rule:evenodd;clip-rule:evenodd;stroke-linecap:round;stroke-linejoin:round;stroke-miterlimit:1.5;">
    <g transform="matrix(1,0,0,1,-557,-2157)">
        <g id="shazam" transform="matrix(1,0,0,1,557.078,2157.64)">
            <rect x="0" y="0" width="128" height="128"/>
            <g>
                <g transform="matrix(0.835784,0,0,0.835784,10.2355,11.2815)">
                    <g transform="matrix(1.03704,0.23134,-0.223573,1.00223,-78.7047,-2298.7)">
                        <path d="M587.962,2183.31C583.91,2188.18 558.662,2230.81 593.566,2239.54C606.863,2242.86 627.082,2229.61 630.738,2211.33C632.481,2202.62 624.611,2204.53 619.904,2213.95C619.867,2214.02 610.761,2225.71 606.268,2227.21C583.495,2234.8 582.953,2211.77 587.028,2204.98C600.542,2182.46 599.949,2181.32 598.236,2179.95C593.753,2176.36 588.515,2182.65 587.962,2183.31Z" style="fill:none;stroke:white;stroke-width:2.29px;"/>
                    </g>
                    <g transform="matrix(-1.03704,-0.23134,0.223573,-1.00223,207.361,2424.85)">
                        <path d="M587.962,2183.31C583.91,2188.18 558.662,2230.81 593.566,2239.54C606.863,2242.86 627.082,2229.61 630.738,2211.33C632.481,2202.62 624.611,2204.53 619.904,2213.95C619.867,2214.02 610.761,2225.71 606.268,2227.21C583.495,2234.8 582.953,2211.77 587.028,2204.98C600.542,2182.46 599.949,2181.32 598.236,2179.95C593.753,2176.36 588.515,2182.65 587.962,2183.31Z" style="fill:none;stroke:white;stroke-width:2.29px;"/>
                    </g>
                </g>
                <g transform="matrix(1,0,0,1,-557.488,-2153.59)">
                    <path d="M610.781,2168.93C607.481,2167.82 590.808,2175.44 585.454,2186.15C575.898,2205.26 557.793,2237.63 604.702,2262.47C638.119,2280.16 689.232,2252.58 660.759,2188.51C648.492,2160.91 612.801,2168.05 608.417,2168.93" style="fill:none;stroke:white;stroke-width:2px;"/>
                </g>
            </g>
        </g>
    </g>
</svg>
