<?xml version="1.0" encoding="UTF-8" standalone="no"?>
<!DOCTYPE svg PUBLIC "-//W3C//DTD SVG 1.1//EN" "http://www.w3.org/Graphics/SVG/1.1/DTD/svg11.dtd">
<svg width="100%" height="100%" viewBox="0 0 129 129" version="1.1" xmlns="http://www.w3.org/2000/svg" xmlns:xlink="http://www.w3.org/1999/xlink" xml:space="preserve" xmlns:serif="http://www.serif.com/" style="fill-rule:evenodd;clip-rule:evenodd;stroke-linecap:round;stroke-linejoin:round;stroke-miterlimit:1.5;">
    <g transform="matrix(1,0,0,1,-279,-4864)">
        <g id="shein" transform="matrix(1,0,0,1,279.192,4864.05)">
            <rect x="0" y="0" width="128" height="128"/>
            <g transform="matrix(1.12392,0,0,1.12392,-7.93083,-4.71743)">
                <g transform="matrix(1,0,0,1,-269.483,-4864.05)">
                    <path d="M351.15,4885.47C345.33,4884.19 333.621,4873.5 321.458,4885.64C316.603,4890.49 307.813,4902.71 327.29,4911.8C338.288,4916.93 347.112,4917.72 346.202,4930.01C346.062,4931.88 336.145,4939.91 326.23,4934.95C324.243,4933.96 324.016,4934.47 319.181,4931.08C314.632,4933.95 310.722,4936.64 314.919,4938.14C327.7,4942.7 342.144,4947.3 352.387,4935.48C354.596,4932.94 355.969,4914.76 343.374,4910.03C342.135,4909.57 329.308,4907.57 324.632,4900.89C323.818,4899.73 322.661,4877.76 345.848,4889.36C346.024,4889.44 346.009,4889.28 348.197,4890.08C348.415,4889.7 350.443,4886.17 351.15,4885.47Z" style="fill:none;stroke:white;stroke-width:1.78px;"/>
                </g>
                <g transform="matrix(1,0,0,1,17.6048,0)">
                    <g transform="matrix(1.17931,0,0,1.0478,-333.971,-5100.82)">
                        <path d="M305.484,4953.05C299.614,4952.21 296.011,4958.15 300.963,4960.62C311.219,4965.75 301.465,4971.98 297.12,4967.63" style="fill:none;stroke:white;stroke-width:1.6px;"/>
                    </g>
                    <g transform="matrix(1,0,0,1,-279.192,-4864.05)">
                        <path d="M311.249,4953.28C311.225,4953.66 311.171,4968.73 310.119,4969.78" style="fill:none;stroke:white;stroke-width:1.78px;"/>
                    </g>
                    <g transform="matrix(1,0,0,1,-279.192,-4864.05)">
                        <path d="M319.161,4952.6C318.348,4967.78 318.597,4967.86 318.031,4968.99" style="fill:none;stroke:white;stroke-width:1.78px;"/>
                    </g>
                    <g transform="matrix(1,0,0,1,-279.192,-4864.05)">
                        <path d="M311.531,4960.73C311.098,4959.89 315.337,4961.5 318.709,4961.19" style="fill:none;stroke:white;stroke-width:1.78px;"/>
                    </g>
                    <g transform="matrix(1,0,0,1,-279.192,-4864.05)">
                        <path d="M324.134,4952.49C323.683,4953.16 324.864,4953.31 323.795,4962.66C323.724,4963.28 323.459,4965.6 323.334,4970.49C325.642,4969.88 326.846,4969.26 331.707,4970.01" style="fill:none;stroke:white;stroke-width:1.78px;"/>
                    </g>
                    <g transform="matrix(1,0,0,1,-279.192,-4864.05)">
                        <path d="M324.021,4961.19C324.967,4961.66 327.604,4961.44 330.464,4961.76" style="fill:none;stroke:white;stroke-width:1.78px;"/>
                    </g>
                    <g transform="matrix(1,0,0,1,-279.192,-4864.05)">
                        <path d="M324.438,4952.73C325.037,4952.68 329.432,4952.33 331.934,4953.16" style="fill:none;stroke:white;stroke-width:1.78px;"/>
                    </g>
                    <g transform="matrix(1,0,0,1,-279.192,-4864.05)">
                        <path d="M339.533,4952.8C339.173,4961.7 339.055,4961.59 339.055,4970.46" style="fill:none;stroke:white;stroke-width:1.78px;"/>
                    </g>
                    <g transform="matrix(1,0,0,1,-279.192,-4864.05)">
                        <path d="M345.158,4953.28C345.4,4961.62 345.668,4961.56 345.271,4969.89" style="fill:none;stroke:white;stroke-width:1.78px;"/>
                    </g>
                    <g transform="matrix(1,0,0,1,-279.192,-4864.05)">
                        <path d="M345.484,4952.74C345.517,4952.39 353.249,4965.66 354.314,4966.73C355.187,4967.6 355.004,4967.66 355.557,4968.76" style="fill:none;stroke:white;stroke-width:1.78px;"/>
                    </g>
                    <g transform="matrix(1,0,0,1,-279.192,-4864.05)">
                        <path d="M355.392,4952.43C355.513,4964.5 354.566,4964.48 355.331,4968.31" style="fill:none;stroke:white;stroke-width:1.78px;"/>
                    </g>
                </g>
            </g>
        </g>
    </g>
</svg>
