<?xml version="1.0" encoding="UTF-8" standalone="no"?>
<!DOCTYPE svg PUBLIC "-//W3C//DTD SVG 1.1//EN" "http://www.w3.org/Graphics/SVG/1.1/DTD/svg11.dtd">
<svg width="100%" height="100%" viewBox="0 0 129 129" version="1.1" xmlns="http://www.w3.org/2000/svg" xmlns:xlink="http://www.w3.org/1999/xlink" xml:space="preserve" xmlns:serif="http://www.serif.com/" style="fill-rule:evenodd;clip-rule:evenodd;stroke-linecap:round;stroke-linejoin:round;stroke-miterlimit:1.5;">
    <g transform="matrix(1,0,0,1,-1,-2466)">
        <g id="signal" transform="matrix(1,0,0,1,1.59335,2466.14)">
            <rect x="0" y="0" width="128" height="128"/>
            <g transform="matrix(1,0,0,1,2.00924,8.39215)">
                <g transform="matrix(1,0,0,1,-1.59335,-2466.14)">
                    <path d="M45.227,2488.61C35.389,2495.27 17.082,2513.02 37.032,2542.95C39.495,2546.64 42.52,2545.82 40.773,2549.9C38.897,2554.27 38.928,2554.17 37.62,2558.84C43.321,2554.05 47.115,2551.2 47.115,2551.2C47.115,2551.2 49.054,2552.32 50.644,2552.71C58.113,2554.58 79.426,2562.6 94.218,2537.25C95.679,2534.74 110.304,2490.01 75.69,2483.09C73.167,2482.59 55.219,2481.85 45.227,2488.61Z" style="fill:none;stroke:white;stroke-width:2px;"/>
                </g>
                <g transform="matrix(1,0,0,1,-1.59335,-2466.14)">
                    <path d="M36.145,2491.6C36.467,2490.66 38.529,2488.86 38.767,2488.65" style="fill:none;stroke:white;stroke-width:2px;"/>
                </g>
                <g transform="matrix(1,0,0,1,-1.59335,-2466.14)">
                    <path d="M42.61,2486.08C43.525,2485.09 43.634,2485.27 46.529,2483.61" style="fill:none;stroke:white;stroke-width:2px;"/>
                </g>
                <g transform="matrix(1,0,0,1,-1.59335,-2466.14)">
                    <path d="M50.745,2482.23C52.073,2481.35 54.997,2480.76 55.38,2480.69" style="fill:none;stroke:white;stroke-width:2px;"/>
                </g>
                <g transform="matrix(1,0,0,1,-1.59335,-2466.14)">
                    <path d="M60.046,2480.24C60.287,2480.55 60.313,2479.86 64.912,2479.53" style="fill:none;stroke:white;stroke-width:2px;"/>
                </g>
                <g transform="matrix(1,0,0,1,-1.59335,-2466.14)">
                    <path d="M69.373,2479.53C69.508,2479.24 73.624,2479.26 73.695,2479.26" style="fill:none;stroke:white;stroke-width:2px;"/>
                </g>
                <g transform="matrix(1,0,0,1,-1.59335,-2466.14)">
                    <path d="M78.366,2480.23C80.2,2479.79 80.027,2480.79 82.069,2481.23C82.199,2481.26 83.031,2481.44 83.635,2481.78" style="fill:none;stroke:white;stroke-width:2px;"/>
                </g>
                <g transform="matrix(1,0,0,1,-1.59335,-2466.14)">
                    <path d="M87.947,2484.22C88.033,2484.43 88.213,2484.18 90.103,2486.07C90.852,2486.81 91.655,2487.22 91.805,2487.29" style="fill:none;stroke:white;stroke-width:2px;"/>
                </g>
                <g transform="matrix(1,0,0,1,-1.59335,-2466.14)">
                    <path d="M95.008,2490.38C95.742,2490.9 97.446,2493.73 98.001,2494.1" style="fill:none;stroke:white;stroke-width:2px;"/>
                </g>
                <g transform="matrix(1,0,0,1,-1.59335,-2466.14)">
                    <path d="M100.245,2498.18C99.806,2499.57 101.633,2502.43 101.814,2503.16" style="fill:none;stroke:white;stroke-width:2px;"/>
                </g>
                <g transform="matrix(1,0,0,1,-1.59335,-2466.14)">
                    <path d="M102.972,2507.51C102.454,2508.59 102.798,2512.71 102.835,2513.16" style="fill:none;stroke:white;stroke-width:2px;"/>
                </g>
                <g transform="matrix(1,0,0,1,-1.59335,-2466.14)">
                    <path d="M102.827,2517.08C102.79,2517.61 102.382,2517.52 101.474,2523.58" style="fill:none;stroke:white;stroke-width:2px;"/>
                </g>
                <g transform="matrix(1,0,0,1,-1.59335,-2466.14)">
                    <path d="M100.886,2527.43C100.921,2527.45 99.864,2531.16 99.771,2531.48C99.089,2533.87 99.242,2533.91 99.091,2534.07" style="fill:none;stroke:white;stroke-width:2px;"/>
                </g>
                <g transform="matrix(1,0,0,1,-1.59335,-2466.14)">
                    <path d="M97.525,2538.01C96.581,2539.9 95.698,2542.39 94.869,2543.05" style="fill:none;stroke:white;stroke-width:2px;"/>
                </g>
                <g transform="matrix(1,0,0,1,-1.59335,-2466.14)">
                    <path d="M92.759,2546.53C91.072,2548.69 91.179,2548.72 89.218,2550.68" style="fill:none;stroke:white;stroke-width:2px;"/>
                </g>
                <g transform="matrix(1,0,0,1,-1.59335,-2466.14)">
                    <path d="M85.825,2553.74C85.021,2553.63 83.286,2555.51 80.708,2557.01" style="fill:none;stroke:white;stroke-width:2px;"/>
                </g>
                <g transform="matrix(1,0,0,1,-1.59335,-2466.14)">
                    <path d="M77.129,2558.07C75.159,2558.17 72.833,2559.21 71.312,2559.46" style="fill:none;stroke:white;stroke-width:2px;"/>
                </g>
                <g transform="matrix(1,0,0,1,-1.59335,-2466.14)">
                    <path d="M67.314,2559.67C65.326,2558.77 62.954,2560.49 61.439,2559.73" style="fill:none;stroke:white;stroke-width:2px;"/>
                </g>
                <g transform="matrix(1,0,0,1,-1.59335,-2466.14)">
                    <path d="M57.454,2559.39C57.258,2559.34 57.287,2559.31 55.107,2558.44C55.013,2558.4 53.337,2558.51 52.793,2558.1" style="fill:none;stroke:white;stroke-width:2px;"/>
                </g>
                <g transform="matrix(1,0,0,1,-1.59335,-2466.14)">
                    <path d="M49.544,2556.91C49.491,2556.81 47.618,2555.65 47.346,2556.19C47.268,2556.35 46.733,2557.42 45.916,2557.83" style="fill:none;stroke:white;stroke-width:2px;"/>
                </g>
                <g transform="matrix(1,0,0,1,-1.59335,-2466.14)">
                    <path d="M42.881,2560.11C40.721,2561.82 40.986,2562.85 40.333,2562.53" style="fill:none;stroke:white;stroke-width:2px;"/>
                </g>
                <g transform="matrix(1,0,0,1,-1.59335,-2466.14)">
                    <path d="M36.65,2563.66C35.86,2564.03 35.481,2564.82 34.546,2563.55C33.76,2562.47 33.975,2562.37 34.069,2562.32" style="fill:none;stroke:white;stroke-width:2px;"/>
                </g>
                <g transform="matrix(1,0,0,1,-1.59335,-2466.14)">
                    <path d="M33.456,2558.64C33.415,2558.44 33.37,2558.21 33.592,2555.99" style="fill:none;stroke:white;stroke-width:2px;"/>
                </g>
                <g transform="matrix(1,0,0,1,-1.59335,-2466.14)">
                    <path d="M34.763,2551.11C35.953,2548.95 34.94,2547.94 34.75,2547.75" style="fill:none;stroke:white;stroke-width:2px;"/>
                </g>
                <g transform="matrix(1,0,0,1,-1.59335,-2466.14)">
                    <path d="M32.506,2542.93C32.53,2542.9 30.901,2540.9 30.597,2540.4" style="fill:none;stroke:white;stroke-width:2px;"/>
                </g>
                <g transform="matrix(1,0,0,1,-1.59335,-2466.14)">
                    <path d="M28.316,2535.52C27.656,2534.97 27.228,2533.04 26.171,2530.66" style="fill:none;stroke:white;stroke-width:2px;"/>
                </g>
                <g transform="matrix(1,0,0,1,-1.59335,-2466.14)">
                    <path d="M25.102,2526.61C24.825,2524.14 24.521,2523.74 24.469,2523.58C24.403,2523.38 24.679,2523.41 24.197,2520.99" style="fill:none;stroke:white;stroke-width:2px;"/>
                </g>
                <g transform="matrix(1,0,0,1,-1.59335,-2466.14)">
                    <path d="M24.217,2517.19C24.293,2514.58 24.663,2514.63 24.401,2512.01" style="fill:none;stroke:white;stroke-width:2px;"/>
                </g>
                <g transform="matrix(1,0,0,1,-1.59335,-2466.14)">
                    <path d="M25.327,2508.87C25.384,2508.52 25.98,2504.84 26.307,2504.52" style="fill:none;stroke:white;stroke-width:2px;"/>
                </g>
                <g transform="matrix(1,0,0,1,-1.59335,-2466.14)">
                    <path d="M28.172,2501.25C27.91,2501.06 28.869,2499.69 28.963,2499.41C28.993,2499.32 29.269,2498.49 29.439,2498.32" style="fill:none;stroke:white;stroke-width:2px;"/>
                </g>
                <g transform="matrix(1,0,0,1,-1.59335,-2466.14)">
                    <path d="M31.648,2495.7C31.774,2495.81 31.768,2495.18 32.844,2494.1" style="fill:none;stroke:white;stroke-width:2px;"/>
                </g>
            </g>
        </g>
    </g>
</svg>
