<?xml version="1.0" encoding="UTF-8" standalone="no"?>
<!DOCTYPE svg PUBLIC "-//W3C//DTD SVG 1.1//EN" "http://www.w3.org/Graphics/SVG/1.1/DTD/svg11.dtd">
<svg width="100%" height="100%" viewBox="0 0 129 129" version="1.1" xmlns="http://www.w3.org/2000/svg" xmlns:xlink="http://www.w3.org/1999/xlink" xml:space="preserve" xmlns:serif="http://www.serif.com/" style="fill-rule:evenodd;clip-rule:evenodd;stroke-linecap:round;stroke-linejoin:round;stroke-miterlimit:1.5;">
    <g transform="matrix(1,0,0,1,-420,-3955)">
        <g id="skifree" transform="matrix(1,0,0,1,420.652,3955.56)">
            <rect x="0" y="0" width="128" height="128"/>
            <g transform="matrix(1.09478,0,0,1.09478,0.00392486,-6.83487)">
                <g transform="matrix(1,0,0,1,-420.652,-3955.56)">
                    <path d="M464.775,3985.24C465.139,3986.38 469.635,3980.15 482.498,3982.13C485.558,3982.6 485.691,3985.71 496.403,3986.16C482.558,3998.67 501.569,4042.25 471.118,4034.64C453.024,4030.12 464.717,3996.2 457.141,3990.51C455.381,3989.19 455.582,3989.22 453.647,3988.08C456.616,3988.45 456.91,3989.43 467.524,3984.12" style="fill:none;stroke:white;stroke-width:1.83px;"/>
                </g>
                <g transform="matrix(1,0,0,1,-420.652,-3955.56)">
                    <path d="M458.539,3990.91C458.58,3990.91 460.251,3989.27 464.329,3994.71C466.805,3998.01 467.315,3997.17 471.317,3998.5" style="fill:none;stroke:white;stroke-width:1.83px;"/>
                </g>
                <g transform="matrix(1,0,0,1,-420.652,-3955.56)">
                    <path d="M494.034,3988.34C487.601,3991.53 488.221,3992.18 485.892,3995.51C483.657,3998.7 480.7,3997.9 480.302,3998.1" style="fill:none;stroke:white;stroke-width:1.83px;"/>
                </g>
                <g transform="matrix(1,0,0,1,-420.652,-3955.56)">
                    <path d="M467.524,4004.49C465.116,4009.31 468.763,4007.7 468.921,4007.49C470.206,4005.77 470.994,4005.34 469.121,4004.09" style="fill:none;stroke:white;stroke-width:1.83px;"/>
                </g>
                <g transform="matrix(1,0,0,1,-420.652,-3955.56)">
                    <path d="M480.794,4004.13C480.868,4003.83 479.601,4009.03 481.899,4007.89C482.887,4007.39 483.257,4003.11 480.302,4004.09" style="fill:none;stroke:white;stroke-width:1.83px;"/>
                </g>
                <g transform="matrix(1,0,0,1,-420.652,-3955.56)">
                    <path d="M460.935,4014.47C470.638,4012.32 486.106,4013.51 488.288,4013.68" style="fill:none;stroke:white;stroke-width:1.83px;"/>
                </g>
                <g transform="matrix(1,0,0,1,-420.652,-3955.56)">
                    <path d="M462.18,4024.23C465.64,4025.63 466.218,4032.05 477.686,4030.62C478.621,4030.5 487.433,4025.51 488.288,4024.66" style="fill:none;stroke:white;stroke-width:1.83px;"/>
                </g>
                <g transform="matrix(1,0,0,1,-420.652,-3955.56)">
                    <path d="M486.092,4025.26C484.402,4021.88 482.88,4026.15 482.099,4027.45C479.359,4024.44 478.721,4026.51 476.497,4029.92C474.452,4026.64 473.142,4025.42 469.97,4029.39C468.344,4019.55 464.567,4025.38 464.329,4025.85" style="fill:none;stroke:white;stroke-width:1.83px;"/>
                </g>
                <g transform="matrix(1,0,0,1,-420.652,-3955.56)">
                    <path d="M469.72,4026.05C472.969,4021.45 473.514,4019.47 478.305,4022.66C479.826,4023.67 480.055,4024.82 480.102,4025.06" style="fill:none;stroke:white;stroke-width:1.83px;"/>
                </g>
                <g transform="matrix(1,0,0,1,-420.652,-3955.56)">
                    <path d="M489.426,4028.08C496.968,4026.11 505.144,4049.25 500.867,4057.8" style="fill:none;stroke:white;stroke-width:1.83px;"/>
                </g>
                <g transform="matrix(1,0,0,1,-420.652,-3955.56)">
                    <path d="M459.937,4023.66C453.974,4027.24 445.707,4048.22 452.549,4064.19" style="fill:none;stroke:white;stroke-width:1.83px;"/>
                </g>
                <g transform="matrix(1,0,0,1,-420.652,-3955.56)">
                    <path d="M496.258,4031.6C494.198,4027.62 510.931,4036.09 516.241,4030.25C517.227,4029.16 518.226,4028.06 518.85,4012.11C513.924,4011.77 511.224,4011.72 510.251,4005.89" style="fill:none;stroke:white;stroke-width:1.83px;"/>
                </g>
                <g transform="matrix(1,0,0,1,-420.652,-3955.56)">
                    <path d="M518.394,4013.11C519.073,4012.46 520.811,3998.21 510.65,3992.11" style="fill:none;stroke:white;stroke-width:1.83px;"/>
                </g>
                <g transform="matrix(1,0,0,1,-420.652,-3955.56)">
                    <path d="M518.792,4012.32C522.767,4006.62 526.985,4006.17 521.233,3988.92" style="fill:none;stroke:white;stroke-width:1.83px;"/>
                </g>
                <g transform="matrix(1,0,0,1,-420.652,-3955.56)">
                    <path d="M455.507,4029.16C453.6,4025.51 445.546,4044.24 435.179,4024.66C434.44,4023.26 432.927,4020.4 438.972,4005.29C439.874,4003.03 440.019,3996.98 440.982,3994.04C441.568,3993.63 444.589,3993.83 447.558,3984.92" style="fill:none;stroke:white;stroke-width:1.83px;"/>
                </g>
                <g transform="matrix(1,0,0,1,-420.652,-3955.56)">
                    <path d="M440.123,3994.51C441.215,3994.01 439.039,3981.86 444.563,3976.34" style="fill:none;stroke:white;stroke-width:1.83px;"/>
                </g>
                <g transform="matrix(1,0,0,1,-420.652,-3955.56)">
                    <path d="M440.37,3994.51C438.097,3995.87 437.347,3988.66 434.779,3983.53C433.614,3981.2 434.368,3981.18 434.979,3978.73" style="fill:none;stroke:white;stroke-width:1.83px;"/>
                </g>
                <g transform="matrix(1,0,0,1,-420.652,-3955.56)">
                    <path d="M460.962,4014.99C461.4,4018.74 464.12,4020.04 466.576,4015.2C469.274,4018.81 470.497,4018.54 473.295,4015.05C476.96,4020.8 479.136,4016.02 481.145,4014.43C481.411,4014.81 484.472,4019.23 486.691,4016.27C487.596,4015.06 487.506,4015.02 488.887,4014.67" style="fill:none;stroke:white;stroke-width:1.83px;"/>
                </g>
            </g>
        </g>
    </g>
</svg>
