<?xml version="1.0" encoding="UTF-8" standalone="no"?>
<!DOCTYPE svg PUBLIC "-//W3C//DTD SVG 1.1//EN" "http://www.w3.org/Graphics/SVG/1.1/DTD/svg11.dtd">
<svg width="100%" height="100%" viewBox="0 0 129 129" version="1.1" xmlns="http://www.w3.org/2000/svg" xmlns:xlink="http://www.w3.org/1999/xlink" xml:space="preserve" xmlns:serif="http://www.serif.com/" style="fill-rule:evenodd;clip-rule:evenodd;stroke-linecap:round;stroke-linejoin:round;stroke-miterlimit:1.5;">
    <g transform="matrix(1,0,0,1,-139,-3198)">
        <g id="slack" transform="matrix(1,0,0,1,139.098,3198.77)">
            <rect x="0" y="0" width="128" height="128"/>
            <g transform="matrix(1,0,0,1,4.55485,3.2229)">
                <g>
                    <g transform="matrix(1,0,0,1,-139.098,-3198.77)">
                        <path d="M210.321,3216.46C209.658,3215.82 205.671,3216.46 204.581,3221.91C204.133,3224.15 202.395,3249.6 203.903,3252.31C206.47,3256.93 210.76,3257.04 211.475,3257.06C213.672,3257.11 217.655,3256.53 219.166,3245.95C219.302,3245 221.88,3221.36 218.482,3217.28C217.147,3215.68 210.281,3216.07 209.667,3216.37" style="fill:none;stroke:white;stroke-width:2px;"/>
                    </g>
                    <g transform="matrix(1,0,0,1,-139.098,-3198.77)">
                        <path d="M225.909,3257.33C226.027,3252.57 223.808,3243.37 235.886,3242.37C241.24,3241.92 242.464,3251.64 238.711,3253.78C238.489,3253.91 238.53,3253.96 235.999,3255.48C234.358,3256.46 229.926,3255.98 226.506,3256.83" style="fill:none;stroke:white;stroke-width:2px;"/>
                    </g>
                </g>
                <g transform="matrix(6.12323e-17,1,-1,6.12323e-17,120.939,0.615026)">
                    <g transform="matrix(1,0,0,1,-139.098,-3198.77)">
                        <path d="M210.321,3216.46C209.658,3215.82 205.671,3216.46 204.581,3221.91C204.133,3224.15 202.395,3249.6 203.903,3252.31C206.47,3256.93 210.76,3257.04 211.475,3257.06C213.672,3257.11 217.655,3256.53 219.166,3245.95C219.302,3245 221.88,3221.36 218.482,3217.28C217.147,3215.68 210.281,3216.07 209.667,3216.37" style="fill:none;stroke:white;stroke-width:2px;"/>
                    </g>
                    <g transform="matrix(1,0,0,1,-139.098,-3198.77)">
                        <path d="M225.909,3257.33C226.027,3252.57 223.808,3243.37 235.886,3242.37C241.24,3241.92 242.464,3251.64 238.711,3253.78C238.489,3253.91 238.53,3253.96 235.999,3255.48C234.358,3256.46 229.926,3255.98 226.506,3256.83" style="fill:none;stroke:white;stroke-width:2px;"/>
                    </g>
                </g>
                <g transform="matrix(-1,-2.44929e-16,2.44929e-16,-1,118.89,121.554)">
                    <g transform="matrix(1,0,0,1,-139.098,-3198.77)">
                        <path d="M210.321,3216.46C209.658,3215.82 205.671,3216.46 204.581,3221.91C204.133,3224.15 202.395,3249.6 203.903,3252.31C206.47,3256.93 210.76,3257.04 211.475,3257.06C213.672,3257.11 217.655,3256.53 219.166,3245.95C219.302,3245 221.88,3221.36 218.482,3217.28C217.147,3215.68 210.281,3216.07 209.667,3216.37" style="fill:none;stroke:white;stroke-width:2px;"/>
                    </g>
                    <g transform="matrix(1,0,0,1,-139.098,-3198.77)">
                        <path d="M225.909,3257.33C226.027,3252.57 223.808,3243.37 235.886,3242.37C241.24,3241.92 242.464,3251.64 238.711,3253.78C238.489,3253.91 238.53,3253.96 235.999,3255.48C234.358,3256.46 229.926,3255.98 226.506,3256.83" style="fill:none;stroke:white;stroke-width:2px;"/>
                    </g>
                </g>
                <g transform="matrix(3.06162e-16,-1,1,3.06162e-16,-2.04888,119.665)">
                    <g transform="matrix(1,0,0,1,-139.098,-3198.77)">
                        <path d="M210.321,3216.46C209.658,3215.82 205.671,3216.46 204.581,3221.91C204.133,3224.15 202.395,3249.6 203.903,3252.31C206.47,3256.93 210.76,3257.04 211.475,3257.06C213.672,3257.11 217.655,3256.53 219.166,3245.95C219.302,3245 221.88,3221.36 218.482,3217.28C217.147,3215.68 210.281,3216.07 209.667,3216.37" style="fill:none;stroke:white;stroke-width:2px;"/>
                    </g>
                    <g transform="matrix(1,0,0,1,-139.098,-3198.77)">
                        <path d="M225.909,3257.33C226.027,3252.57 223.808,3243.37 235.886,3242.37C241.24,3241.92 242.464,3251.64 238.711,3253.78C238.489,3253.91 238.53,3253.96 235.999,3255.48C234.358,3256.46 229.926,3255.98 226.506,3256.83" style="fill:none;stroke:white;stroke-width:2px;"/>
                    </g>
                </g>
            </g>
        </g>
    </g>
</svg>
