<?xml version="1.0" encoding="UTF-8" standalone="no"?>
<!DOCTYPE svg PUBLIC "-//W3C//DTD SVG 1.1//EN" "http://www.w3.org/Graphics/SVG/1.1/DTD/svg11.dtd">
<svg width="100%" height="100%" viewBox="0 0 129 129" version="1.1" xmlns="http://www.w3.org/2000/svg" xmlns:xlink="http://www.w3.org/1999/xlink" xml:space="preserve" xmlns:serif="http://www.serif.com/" style="fill-rule:evenodd;clip-rule:evenodd;stroke-linecap:round;stroke-linejoin:round;stroke-miterlimit:1.5;">
    <g transform="matrix(1,0,0,1,-418,-2157)">
        <g id="spotify" transform="matrix(1,0,0,1,418.322,2157.64)">
            <rect x="0" y="0" width="128" height="128"/>
            <g transform="matrix(1,0,0,1,-1.11044,2.71902)">
                <g transform="matrix(1,0,0,1,-418.322,-2157.64)">
                    <path d="M469.819,2175C450.166,2180.11 421.257,2242.22 461.722,2258.74C535.489,2288.84 533.991,2200.05 513.226,2183.43C503.432,2175.6 490.549,2169.61 469.819,2175Z" style="fill:none;stroke:white;stroke-width:2px;"/>
                </g>
                <g transform="matrix(1,0,0,1,-418.322,-2157.64)">
                    <path d="M458.632,2205C470.444,2197.5 515.969,2195.77 514.23,2210.55C513.914,2213.24 501.781,2208.61 480.334,2209.8C473.801,2210.16 474.03,2210.95 457.601,2212.34C456.583,2208.2 455.602,2208.03 458.632,2205Z" style="fill:none;stroke:white;stroke-width:2px;"/>
                </g>
                <g transform="matrix(1,0,0,1,-418.322,-2157.64)">
                    <path d="M458.799,2222.03C462.669,2221.04 488.295,2214.54 508.706,2221.35C528.325,2227.89 474.054,2224.93 457.571,2226.37C457.557,2225.78 455.258,2223.84 458.742,2222.1" style="fill:none;stroke:white;stroke-width:2px;"/>
                </g>
                <g transform="matrix(1,0,0,1,-418.322,-2157.64)">
                    <path d="M459.498,2235.32C480.144,2231.74 490.214,2233.36 497.659,2232.9C508.876,2232.2 508.371,2234.73 509.429,2235.57C492.381,2239.5 483.405,2236.46 468.032,2238.17C467.356,2238.24 455.886,2239.52 459.997,2235.41" style="fill:none;stroke:white;stroke-width:2px;"/>
                </g>
            </g>
        </g>
    </g>
</svg>
