<?xml version="1.0" encoding="UTF-8" standalone="no"?>
<!DOCTYPE svg PUBLIC "-//W3C//DTD SVG 1.1//EN" "http://www.w3.org/Graphics/SVG/1.1/DTD/svg11.dtd">
<svg width="100%" height="100%" viewBox="0 0 129 129" version="1.1" xmlns="http://www.w3.org/2000/svg" xmlns:xlink="http://www.w3.org/1999/xlink" xml:space="preserve" xmlns:serif="http://www.serif.com/" style="fill-rule:evenodd;clip-rule:evenodd;stroke-linecap:round;stroke-linejoin:round;stroke-miterlimit:1.5;">
    <g transform="matrix(1,0,0,1,-553,-323)">
        <g id="Steam" transform="matrix(1,0,0,1,553.984,323.509)">
            <rect x="0" y="0" width="128" height="128"/>
            <g transform="matrix(1,0,0,1,-0.0204149,6.47759)">
                <g transform="matrix(1,0,0,1,-553.984,0)">
                    <path d="M609.225,19.29C602.025,17.66 573.484,30.759 575.564,68.209C576.979,93.672 630.048,113.803 648.546,90.02C682.27,46.661 637.631,-1.605 604.715,19.555" style="fill:none;stroke:white;stroke-width:2px;"/>
                </g>
                <g transform="matrix(1,0,0,1,-553.984,0)">
                    <path d="M579.661,47.334C579.211,49.477 593.872,54.545 608.59,61.421C620.365,46.398 622.264,47.355 623.17,40.107C624.929,26.039 650.143,29.006 652.74,41.995C656.066,58.624 643.136,55.518 641.803,55.198C640.392,56.804 634.319,63.718 620.64,71.499C624.309,91.055 604.178,89.016 602.373,76.002C600.267,75.56 600.567,74.793 577.452,65.902" style="fill:none;stroke:white;stroke-width:2px;"/>
                </g>
                <g transform="matrix(1,0,0,1,-553.984,0)">
                    <path d="M607.863,70.676C605.652,69.837 614.066,68.605 615.62,72.823C615.856,73.462 618.706,81.2 610.377,79.534" style="fill:none;stroke:white;stroke-width:2px;"/>
                </g>
                <g transform="matrix(1,0,0,1,-553.984,0)">
                    <path d="M638.06,38.429C627.708,39.465 631.737,55.124 644.142,49.335C650.707,46.271 644.978,34.027 637.431,39.059" style="fill:none;stroke:white;stroke-width:2px;"/>
                </g>
            </g>
        </g>
    </g>
</svg>
