<?xml version="1.0" encoding="UTF-8" standalone="no"?>
<!DOCTYPE svg PUBLIC "-//W3C//DTD SVG 1.1//EN" "http://www.w3.org/Graphics/SVG/1.1/DTD/svg11.dtd">
<svg width="100%" height="100%" viewBox="0 0 129 129" version="1.1" xmlns="http://www.w3.org/2000/svg" xmlns:xlink="http://www.w3.org/1999/xlink" xml:space="preserve" xmlns:serif="http://www.serif.com/" style="fill-rule:evenodd;clip-rule:evenodd;stroke-linecap:round;stroke-linejoin:round;stroke-miterlimit:1.5;">
    <g transform="matrix(1,0,0,1,-138,-4864)">
        <g id="temu" transform="matrix(1,0,0,1,138.574,4864.05)">
            <rect x="0" y="0" width="128" height="128"/>
            <g transform="matrix(1.10679,0,0,1.10679,-7.37457,-2.67674)">
                <g transform="matrix(1,0,0,1,-138.574,-4864.05)">
                    <path d="M159.971,4925.18C158.986,4924.94 155.962,4924.38 156.559,4929.12C157.095,4933.37 164.459,4931.42 165.629,4931.13C166.237,4937.88 166.186,4948.25 166.371,4950.36C176.485,4951.53 173.421,4945.96 173.303,4940.34C173.289,4939.64 173.198,4939.82 172.75,4931.58C175.015,4931.44 180.48,4934.16 180.061,4925.36C179.894,4921.86 161.557,4924.91 159.971,4925.18Z" style="fill:none;stroke:white;stroke-width:1.81px;"/>
                </g>
                <g transform="matrix(1,0,0,1,-138.574,-4864.05)">
                    <path d="M184.218,4924.3C184.716,4946.23 182.711,4948.97 188.277,4949.48C200.295,4950.57 200.529,4949.36 200.639,4948.37C201.097,4944.25 199.397,4944.5 196.58,4945.33C193.026,4946.37 189.405,4944.36 189.384,4943.39C189.312,4940.14 189.465,4938.98 189.475,4938.44C189.852,4938.38 200.164,4937.09 200.168,4937.09C200.473,4933.38 200.94,4931.62 197.318,4932.32C196.811,4932.42 195.67,4932.86 190.046,4933.35C189.342,4930 189.799,4931.17 189.649,4927.82C190.616,4927.68 204.203,4927.59 199.513,4924.08C198.224,4923.11 186.16,4923.81 184.218,4924.3Z" style="fill:none;stroke:white;stroke-width:1.81px;"/>
                </g>
                <g transform="matrix(1,0,0,1,-138.574,-4864.05)">
                    <path d="M205.963,4924.64C205.998,4937.07 205.919,4937.01 206.457,4949.48C208.563,4949.48 208.534,4949.71 210.599,4949.08C210.845,4938.28 209.2,4925.56 213.831,4935.18C219.465,4946.88 220.213,4933.06 222.78,4932.41C223.726,4932.18 223.01,4932.94 223.333,4944.59C223.399,4946.94 222.105,4950.71 227.02,4948.79C227.438,4932.81 227.528,4926.37 226.777,4923.78C226.326,4922.23 224.23,4922.15 222.469,4924.73C221.447,4926.23 220.179,4928.2 219.603,4930.14C218.994,4932.19 216.218,4931.59 215.545,4929.91C213.305,4924.31 207.291,4919.86 205.963,4924.64Z" style="fill:none;stroke:white;stroke-width:1.81px;"/>
                </g>
                <g transform="matrix(1,0,0,0.997702,-138.574,-4852.74)">
                    <path d="M232.041,4922.96C231.525,4942.56 231.741,4946.79 239.21,4948.66C241.588,4949.25 244.722,4948 245.169,4947.82C249.492,4946.09 250.636,4921.98 248.801,4921.84C246.982,4921.7 247.136,4922.3 244.715,4922.53C244.126,4926.02 244.922,4945.28 238.652,4942.14C236.512,4941.07 237.186,4926.43 236.696,4923.98C236.189,4921.44 234.619,4923.39 232.041,4922.96Z" style="fill:none;stroke:white;stroke-width:1.81px;"/>
                </g>
                <g transform="matrix(1.01138,0,0,1,-140.652,-4865.89)">
                    <path d="M160.216,4919.31C161.398,4915.76 163.87,4910.2 164.292,4909.38C163.917,4908.94 160.336,4904.67 162.734,4902.27C164.598,4900.41 165.57,4903.42 168.711,4905.02C172.939,4900.52 173.87,4901.62 174.145,4902.44C174.823,4904.48 174.324,4905.13 172.088,4908.13C174.946,4915.38 177.295,4917.54 175.404,4918.72C174.209,4919.47 168.477,4923.44 160.216,4919.31Z" style="fill:none;stroke:white;stroke-width:1.8px;"/>
                </g>
                <g transform="matrix(1,0,0,1,-1.44543,0.182316)">
                    <g transform="matrix(1,0,0,1,-138.574,-4864.05)">
                        <path d="M183.785,4915.21C184.735,4916.48 192.399,4919.89 197.975,4916.79C200.981,4915.12 202.006,4913.35 202.507,4913.01" style="fill:none;stroke:white;stroke-width:1.81px;"/>
                    </g>
                    <g transform="matrix(1,0,0,1,-138.574,-4864.05)">
                        <path d="M186.6,4915.78C184.837,4918.34 187.498,4915.1 187.906,4911.42C188.054,4910.09 184.82,4912.5 183.879,4908.73C183.075,4905.52 184.26,4905.73 186.564,4902.27C189.335,4898.12 192.189,4909.32 197.64,4904.96C199.735,4903.28 199.364,4907.33 198.395,4907.98C196.759,4909.07 199.248,4914.05 199.486,4914.53" style="fill:none;stroke:white;stroke-width:1.81px;"/>
                    </g>
                    <g transform="matrix(1,0,0,1,-138.574,-4864.05)">
                        <path d="M189.838,4917C188.492,4917.64 193.517,4909.62 195.542,4916.71" style="fill:none;stroke:white;stroke-width:1.81px;"/>
                    </g>
                </g>
                <g>
                    <g transform="matrix(1,0,0,1,-138.574,-4864.05)">
                        <path d="M208.296,4917.29C208.837,4917.56 215.526,4919.09 219.876,4911.84C222.117,4908.1 221.469,4907.9 222.309,4904.54C222.457,4906.38 222.641,4917.25 222.645,4917.38" style="fill:none;stroke:white;stroke-width:1.81px;"/>
                    </g>
                    <g transform="matrix(1,0,0,1,-138.574,-4864.05)">
                        <path d="M222.143,4904.65C222.543,4905.35 222.409,4900.47 222.399,4900.11C219.977,4899.94 220.104,4899.64 218.161,4898.07C216.898,4903.41 218.808,4907.19 214.748,4910.5C213.19,4910.41 210.357,4909.55 207.122,4914.36C205.647,4916.55 206.961,4917.07 208.296,4917.29" style="fill:none;stroke:white;stroke-width:1.81px;"/>
                    </g>
                </g>
                <g>
                    <g transform="matrix(1,0,0,1,-138.574,-4864.05)">
                        <path d="M233.366,4900.19C232.415,4900.23 230.4,4899.82 229.833,4912.27C229.685,4915.55 229.41,4916.61 232.049,4917.14C236.177,4917.97 236.185,4916.66 244.106,4916.85C246.581,4916.91 247.724,4916.75 248.755,4916.23L248.827,4916.12C249.689,4913.97 248.722,4913.94 247.774,4907.3C247.61,4906.15 246.429,4901.48 245.777,4900.54C244.203,4898.27 233.938,4899.89 233.211,4900.25" style="fill:none;stroke:white;stroke-width:1.81px;"/>
                    </g>
                    <g transform="matrix(1,0,0,1,-138.574,-4864.05)">
                        <path d="M234.7,4904.43C234.448,4907.7 241.215,4912.14 243.162,4903.7" style="fill:none;stroke:white;stroke-width:1.81px;"/>
                    </g>
                </g>
            </g>
        </g>
    </g>
</svg>
