<?xml version="1.0" encoding="UTF-8" standalone="no"?>
<!DOCTYPE svg PUBLIC "-//W3C//DTD SVG 1.1//EN" "http://www.w3.org/Graphics/SVG/1.1/DTD/svg11.dtd">
<svg width="100%" height="100%" viewBox="0 0 129 129" version="1.1" xmlns="http://www.w3.org/2000/svg" xmlns:xlink="http://www.w3.org/1999/xlink" xml:space="preserve" xmlns:serif="http://www.serif.com/" style="fill-rule:evenodd;clip-rule:evenodd;stroke-linecap:round;stroke-linejoin:round;stroke-miterlimit:1.5;">
    <g transform="matrix(1,0,0,1,-1,-2904)">
        <g id="upload" transform="matrix(1,0,0,1,1.35012,2904.92)">
            <rect x="0" y="0" width="128" height="128"/>
            <g transform="matrix(1,0,0,1,2.82278,6.25214)">
                <g transform="matrix(1,0,0,1,-559.1,-2761.5)">
                    <path d="M638.515,2778.68C631.907,2779.13 590.73,2777.43 586.403,2788.68C583.906,2795.17 579.607,2843.12 588.295,2853.74C597.45,2864.93 633.516,2857.86 648.622,2856.34C658.268,2855.38 658.425,2844.08 656.429,2802.17C655.426,2781.1 650.607,2777.84 638.515,2778.68Z" style="fill:none;stroke:white;stroke-width:2px;"/>
                </g>
                <g transform="matrix(1,0,0,-1,1.03049,111.945)">
                    <g transform="matrix(1,0,0,1,-559.1,-2761.5)">
                        <path d="M619.231,2790.73C618.472,2791.09 619.022,2810.36 619.071,2812.06C619.351,2821.84 619.308,2821.8 619.657,2840.63" style="fill:none;stroke:white;stroke-width:2px;"/>
                    </g>
                    <g transform="matrix(1,0,0,1,-559.1,-2761.5)">
                        <path d="M600.218,2826.35C601.601,2827.73 616.691,2841.45 620.125,2840.63C620.926,2840.44 635.996,2827.28 638.275,2825.76" style="fill:none;stroke:white;stroke-width:2px;"/>
                    </g>
                </g>
            </g>
        </g>
    </g>
</svg>
