<?xml version="1.0" encoding="UTF-8" standalone="no"?>
<!DOCTYPE svg PUBLIC "-//W3C//DTD SVG 1.1//EN" "http://www.w3.org/Graphics/SVG/1.1/DTD/svg11.dtd">
<svg width="100%" height="100%" viewBox="0 0 129 129" version="1.1" xmlns="http://www.w3.org/2000/svg" xmlns:xlink="http://www.w3.org/1999/xlink" xml:space="preserve" xmlns:serif="http://www.serif.com/" style="fill-rule:evenodd;clip-rule:evenodd;stroke-linecap:round;stroke-linejoin:round;stroke-miterlimit:1.5;">
    <g transform="matrix(1,0,0,1,0,-4864)">
        <g id="vivo" transform="matrix(1,0,0,1,0.476909,4864.05)">
            <rect x="0" y="0" width="128" height="128"/>
            <g transform="matrix(1.15392,0,0,1.15392,-18.1865,0.74334)">
                <g transform="matrix(1,0,0,1,12.5921,-4864.05)">
                    <path d="M56.993,4876.98C58.693,4876.95 63.906,4877.16 65.818,4877.77C73.332,4880.17 75.636,4896.95 67.021,4902.69C66.729,4902.88 62.918,4907.09 70.114,4905.78C89.754,4902.21 90.324,4902.21 91.077,4903.72C91.107,4903.78 94.453,4913.42 91.937,4916.44C87.598,4921.64 57.817,4916.86 73.207,4932.25C89.531,4948.57 88.306,4952.24 87.641,4954.24C86.778,4956.83 79.599,4958.66 78.629,4960.61C78.217,4961.43 63.977,4938.27 59.03,4938.88" style="fill:none;stroke:white;stroke-width:1.73px;"/>
                </g>
                <g transform="matrix(-1,0,0,1,129.856,-4864.05)">
                    <path d="M60.474,4877.11C62.138,4877.09 63.993,4877.07 65.818,4877.77C74.112,4880.98 75.636,4896.95 67.021,4902.69C66.729,4902.88 62.918,4907.09 70.114,4905.78C89.754,4902.21 90.324,4902.21 91.077,4903.72C91.107,4903.78 94.453,4913.42 91.937,4916.44C87.598,4921.64 57.817,4916.86 73.207,4932.25C89.531,4948.57 88.306,4952.24 87.641,4954.24C86.778,4956.83 79.261,4958.8 78.291,4960.74C77.879,4961.57 64.341,4939.53 58.398,4938.82" style="fill:none;stroke:white;stroke-width:1.73px;"/>
                </g>
            </g>
        </g>
    </g>
</svg>
