<?xml version="1.0" encoding="UTF-8" standalone="no"?>
<!DOCTYPE svg PUBLIC "-//W3C//DTD SVG 1.1//EN" "http://www.w3.org/Graphics/SVG/1.1/DTD/svg11.dtd">
<svg width="100%" height="100%" viewBox="0 0 129 129" version="1.1" xmlns="http://www.w3.org/2000/svg" xmlns:xlink="http://www.w3.org/1999/xlink" xml:space="preserve" xmlns:serif="http://www.serif.com/" style="fill-rule:evenodd;clip-rule:evenodd;stroke-linecap:round;stroke-linejoin:round;stroke-miterlimit:1.5;">
    <g transform="matrix(1,0,0,1,-421,-2466)">
        <g id="vlc" transform="matrix(1,0,0,1,421.255,2466.14)">
            <rect x="0" y="0" width="128" height="128"/>
            <g transform="matrix(1,0,0,1,3.19773,2.1947)">
                <g transform="matrix(1,0,0,1,-421.255,-2466.14)">
                    <path d="M475.719,2485.21C472.841,2489.53 475.646,2492.96 453.462,2548.49C451.336,2548.35 443.066,2546.78 440.855,2558.18C439.103,2567.22 438.095,2566.82 435.683,2575.59C459.153,2570.64 527.781,2574.45 528.42,2570.62C528.669,2569.12 525.305,2547.05 513.285,2548.45C510.884,2548.74 510.293,2547.99 508.159,2548.55C507.645,2544.19 491.322,2481.58 486.529,2480.62C479.727,2479.26 477.45,2482.62 475.719,2485.21Z" style="fill:none;stroke:white;stroke-width:2px;"/>
                </g>
                <g transform="matrix(1,0,0,1,-421.255,-2466.14)">
                    <path d="M453.146,2547.91C452.965,2547.88 446.69,2563.63 473.858,2562.59C500.477,2561.56 501.429,2559.07 504.268,2555.29C506.838,2551.86 506.297,2551.61 508.198,2547.8" style="fill:none;stroke:white;stroke-width:2px;"/>
                </g>
                <g transform="matrix(1,0,0,1,-421.255,-2466.14)">
                    <path d="M461.001,2529.52C459.45,2533.16 494.713,2540.15 502.303,2524.97" style="fill:none;stroke:white;stroke-width:2px;"/>
                </g>
                <g transform="matrix(1,0,0,1,-421.255,-2466.14)">
                    <path d="M468.31,2508.64C476.012,2512.22 491.917,2511.78 496.034,2505.6" style="fill:none;stroke:white;stroke-width:2px;"/>
                </g>
                <g transform="matrix(1,0,0,1,-421.255,-2466.14)">
                    <path d="M473.174,2492.07C473.306,2491.93 479.277,2494.16 485.273,2493.16C485.812,2493.07 489.554,2492.45 491.262,2489.88" style="fill:none;stroke:white;stroke-width:2px;"/>
                </g>
            </g>
        </g>
    </g>
</svg>
