<?xml version="1.0" encoding="UTF-8" standalone="no"?>
<!DOCTYPE svg PUBLIC "-//W3C//DTD SVG 1.1//EN" "http://www.w3.org/Graphics/SVG/1.1/DTD/svg11.dtd">
<svg width="100%" height="100%" viewBox="0 0 129 129" version="1.1" xmlns="http://www.w3.org/2000/svg" xmlns:xlink="http://www.w3.org/1999/xlink" xml:space="preserve" xmlns:serif="http://www.serif.com/" style="fill-rule:evenodd;clip-rule:evenodd;stroke-linecap:round;stroke-linejoin:round;stroke-miterlimit:1.5;">
    <g transform="matrix(1,0,0,1,-422,-2618)">
        <g id="vscode" transform="matrix(1,0,0,1,422.505,2618.58)">
            <rect x="0" y="0" width="128" height="128"/>
            <g transform="matrix(1,0,0,1,7.32695,3.74991)">
                <g transform="matrix(1,0,0,1,-422.505,-2618.58)">
                    <path d="M435.331,2672.07C437.079,2672.53 436.442,2673.46 452.218,2687.08C463.232,2696.6 467.545,2697.28 485.41,2715.15C493.381,2723.12 493.52,2728.88 503.075,2722.7C520.995,2711.1 521.505,2711.99 523.025,2710.93C521.384,2689.94 520.432,2690.16 519.03,2669.13C517.514,2646.4 519.03,2646.41 518.602,2644.49C518.419,2643.67 506.982,2634.92 501.902,2632.36C496.951,2640.7 479.479,2648.35 458.854,2674.13" style="fill:none;stroke:white;stroke-width:2px;"/>
                </g>
                <g transform="matrix(1,0,0,1,-422.505,-2618.58)">
                    <path d="M435.501,2672.37C435.708,2671.49 436.159,2669.57 443.232,2664.18C450.437,2670.03 462.787,2676 470.595,2683.81C471.196,2684.41 471.446,2684.05 479.284,2689.93C479.924,2690.41 480.022,2690.24 487.689,2695.35C490.578,2697.27 497.899,2700.95 498.804,2701.41C499.102,2699.22 500.112,2664.92 500.653,2660.59C500.92,2658.45 501.994,2657.52 502.387,2650.72C495.099,2657.43 495.731,2657.93 488.259,2664.58C478.559,2673.2 478.874,2673.39 469.74,2682.53" style="fill:none;stroke:white;stroke-width:2px;"/>
                </g>
                <g transform="matrix(1,0,0,1,-422.505,-2618.58)">
                    <path d="M460.765,2695.06C450.98,2707.46 445.489,2711.82 444.06,2712.56C439.638,2710.16 440.055,2709.59 435.515,2707.51C435.596,2707.39 448.716,2688.11 449.654,2686.23" style="fill:none;stroke:white;stroke-width:2px;"/>
                </g>
            </g>
        </g>
    </g>
</svg>
