<?xml version="1.0" encoding="UTF-8" standalone="no"?>
<!DOCTYPE svg PUBLIC "-//W3C//DTD SVG 1.1//EN" "http://www.w3.org/Graphics/SVG/1.1/DTD/svg11.dtd">
<svg width="100%" height="100%" viewBox="0 0 129 129" version="1.1" xmlns="http://www.w3.org/2000/svg" xmlns:xlink="http://www.w3.org/1999/xlink" xml:space="preserve" xmlns:serif="http://www.serif.com/" style="fill-rule:evenodd;clip-rule:evenodd;stroke-linecap:round;stroke-linejoin:round;stroke-miterlimit:1.5;">
    <g transform="matrix(1,0,0,1,-416,-1848)">
        <g id="whatsapp" transform="matrix(1,0,0,1,416.989,1848.42)">
            <rect x="0" y="0" width="128" height="128"/>
            <g transform="matrix(1,0,0,1,1.70502,-0.0796924)">
                <g transform="matrix(1,0,0,1,-416.989,-1848.42)">
                    <path d="M440.057,1954.65C439.747,1955.95 442.6,1947.95 446.958,1939.46C412.961,1892.27 474.528,1843.68 509.201,1874.88C518.375,1883.14 527.425,1906.16 516.569,1926.07C511.338,1935.66 508.687,1937.02 491.557,1943.91C477.159,1949.69 461.311,1945.46 461.311,1945.46C461.311,1945.46 441.212,1957.7 438.324,1959.99C440.94,1952.14 439.933,1955.64 440.057,1954.65Z" style="fill:none;stroke:white;stroke-width:2px;"/>
                </g>
                <g transform="matrix(1,0,0,1,-416.989,-1848.42)">
                    <path d="M464.767,1884.4C461.696,1884.01 448.248,1895.76 464.801,1909.01C475.167,1917.3 497.877,1939.59 502.027,1916.76C502.792,1912.56 495.443,1903.37 491.17,1911.91C488.838,1916.58 486.244,1911.54 476.628,1904.55C468.017,1898.28 468.981,1896.61 470.811,1895.24C474.616,1892.39 471.381,1887.58 469.26,1886.52C466.682,1885.23 466.898,1885.08 464.219,1884.19" style="fill:none;stroke:white;stroke-width:2px;"/>
                </g>
            </g>
        </g>
    </g>
</svg>
