<?xml version="1.0" encoding="UTF-8" standalone="no"?>
<!DOCTYPE svg PUBLIC "-//W3C//DTD SVG 1.1//EN" "http://www.w3.org/Graphics/SVG/1.1/DTD/svg11.dtd">
<svg width="100%" height="100%" viewBox="0 0 129 129" version="1.1" xmlns="http://www.w3.org/2000/svg" xmlns:xlink="http://www.w3.org/1999/xlink" xml:space="preserve" xmlns:serif="http://www.serif.com/" style="fill-rule:evenodd;clip-rule:evenodd;stroke-linecap:round;stroke-linejoin:round;stroke-miterlimit:1.5;">
    <g transform="matrix(1,0,0,1,-280,-5019)">
        <g id="wireguard" transform="matrix(1,0,0,1,280.23,5019.47)">
            <rect x="0" y="0" width="128" height="128"/>
            <g transform="matrix(1,0,0,1,3.85528,-1.12416)">
                <g transform="matrix(1,0,0,1,-280.23,-5019.47)">
                    <path d="M327.786,5037.28C297.611,5041.39 283.019,5093.35 298.882,5110.53C302.954,5114.94 301.338,5116.33 306.384,5119.36C316.24,5125.27 323.878,5139.72 358.896,5130.17C369.201,5127.36 390.078,5121.82 388.241,5081.41C388.215,5080.84 385.089,5057.18 374.12,5047.21C367.929,5041.58 351.439,5035.01 335.392,5035.93C332.733,5036.09 328.312,5037.2 327.786,5037.28Z" style="fill:none;stroke:white;stroke-width:2px;"/>
                </g>
                <g transform="matrix(1,0,0,1,-280.23,-5019.47)">
                    <path d="M336.389,5042.33C337.063,5042.81 340.774,5041.17 345.367,5047.3C349.519,5052.84 354.246,5045.65 357.096,5051.92C358.121,5054.18 360.747,5055.38 357.952,5058.17C356.583,5059.54 354.479,5057.69 354.253,5057.49C344.016,5058.03 343.304,5058.21 343.741,5058.94C346.382,5063.34 355.271,5063.56 360.349,5077.52C362.491,5083.41 360.506,5085.58 356.154,5089.93C350.487,5095.6 325.902,5106.46 338.861,5115.1C349.484,5122.18 356.229,5102.52 342.648,5099.68" style="fill:none;stroke:white;stroke-width:2px;"/>
                </g>
                <g transform="matrix(1,0,0,1,-280.23,-5019.47)">
                    <path d="M335.798,5043.57C335.871,5043.53 337.863,5046.76 335.008,5049.61C333.193,5051.43 332.062,5049.87 330.728,5052.09C335.458,5052.77 333.901,5054.49 333.639,5054.66C332.398,5055.45 332.078,5055.07 330.766,5057.05C332.773,5057.37 333.177,5057.09 333.125,5057.83C332.804,5062.32 346.965,5068.31 348.315,5077.76C349.75,5087.81 346.702,5088.58 337.919,5092.07C319.553,5097.81 324.697,5123.02 342.713,5124.52C355.15,5125.56 354.625,5119.87 358.808,5112.79C363.944,5104.1 357.848,5094.12 350.712,5094.26" style="fill:none;stroke:white;stroke-width:2px;"/>
                </g>
                <g transform="matrix(1,0,0,1,-280.23,-5019.47)">
                    <path d="M338.075,5091.65C332.638,5091.88 333.342,5092.45 329.483,5089.48C318.943,5081.38 332.508,5075.13 335.896,5080.78C338.442,5085.02 337.944,5085.89 338.075,5091.65Z" style="fill:none;stroke:white;stroke-width:2px;"/>
                </g>
                <g transform="matrix(1,0,0,1,-280.23,-5019.47)">
                    <path d="M348.46,5082.23C348.453,5082.19 349.526,5074.88 335.5,5069.93C318.234,5063.83 308.808,5087.48 322.277,5095.9C325.007,5097.61 325.727,5097.95 328.137,5098.35" style="fill:none;stroke:white;stroke-width:2px;"/>
                </g>
                <g transform="matrix(1,0,0,1,-280.23,-5019.47)">
                    <path d="M326.078,5102.31C322.52,5102.55 317.491,5101.15 314.993,5111.97C316.747,5108.85 321.947,5106.73 326.474,5107.38" style="fill:none;stroke:white;stroke-width:2px;"/>
                </g>
                <g transform="matrix(1,0,0,1,-280.23,-5019.47)">
                    <path d="M343.118,5051.14C343.093,5051.39 343.171,5052.09 343.291,5051.49C343.359,5051.15 343.003,5051.39 343.003,5051.72" style="fill:none;stroke:white;stroke-width:2px;"/>
                </g>
                <g transform="matrix(1,0,0,1,-280.23,-5019.47)">
                    <path d="M356.553,5052.87C353.114,5053.45 353.115,5053.47 352.921,5053.45C351.237,5053.3 351.28,5053.46 349.634,5053.74" style="fill:none;stroke:white;stroke-width:2px;"/>
                </g>
            </g>
        </g>
    </g>
</svg>
