<?xml version="1.0" encoding="UTF-8" standalone="no"?>
<!DOCTYPE svg PUBLIC "-//W3C//DTD SVG 1.1//EN" "http://www.w3.org/Graphics/SVG/1.1/DTD/svg11.dtd">
<svg width="100%" height="100%" viewBox="0 0 129 129" version="1.1" xmlns="http://www.w3.org/2000/svg" xmlns:xlink="http://www.w3.org/1999/xlink" xml:space="preserve" xmlns:serif="http://www.serif.com/" style="fill-rule:evenodd;clip-rule:evenodd;stroke-linecap:round;stroke-linejoin:round;stroke-miterlimit:1.5;">
    <g transform="matrix(1,0,0,1,-143,-2618)">
        <g id="xbox" transform="matrix(1,0,0,1,143.65,2618.58)">
            <rect x="0" y="0" width="128" height="128"/>
            <g transform="matrix(1,0,0,1,-9.69834,3.47934)">
                <g transform="matrix(1,0,0,1,-143.65,-2618.58)">
                    <path d="M191.495,2641.17C192.136,2640.31 221.21,2624.79 236.867,2634.19C241.076,2636.71 241.772,2635.54 249.345,2641.95C235.976,2642.67 233.797,2644.21 219.894,2655.5C197.136,2639.83 195.024,2642.12 191.352,2641.51" style="fill:none;stroke:white;stroke-width:2px;"/>
                </g>
                <g transform="matrix(1,0,0,1,-143.65,-2618.58)">
                    <path d="M182.778,2648.37C186.458,2651.72 205.311,2665.47 208.211,2667.57C193.15,2682.76 188.233,2707.11 186.184,2715.35C180.773,2713.28 182.681,2711.13 178.258,2707.45C177.654,2706.95 172.718,2696.96 172.335,2689.68C171.595,2675.62 169.423,2673.84 179.037,2654.61C180.173,2652.34 182.467,2648.99 182.778,2648.37Z" style="fill:none;stroke:white;stroke-width:2px;"/>
                </g>
                <g transform="matrix(1,0,0,1,-143.65,-2618.58)">
                    <path d="M255.309,2652.48C256.937,2652.88 254.14,2648.7 237.488,2659.8C233.458,2662.48 233.709,2662.98 229.723,2665.7C248.771,2678.91 250.503,2708.18 251.589,2715.22C255.636,2707.91 271.89,2683.19 256.819,2653.05" style="fill:none;stroke:white;stroke-width:2px;"/>
                </g>
                <g transform="matrix(1,0,0,1,-143.65,-2618.58)">
                    <path d="M218.906,2676.34C216.024,2680.05 218.038,2681.28 208.965,2691.86C207.405,2693.68 196.735,2710.6 193.493,2721.28C201.824,2722.77 215.18,2727.25 219.944,2727.01C225.055,2726.76 245.372,2721.98 244.349,2717.89C241.309,2705.73 231.342,2692.44 229.853,2690.46C229.119,2689.48 226.584,2684.74 224.241,2681.73C223.901,2681.29 220.75,2677.24 220.188,2676.12" style="fill:none;stroke:white;stroke-width:2px;"/>
                </g>
            </g>
        </g>
    </g>
</svg>
