<?xml version="1.0" encoding="UTF-8" standalone="no"?>
<!DOCTYPE svg PUBLIC "-//W3C//DTD SVG 1.1//EN" "http://www.w3.org/Graphics/SVG/1.1/DTD/svg11.dtd">
<svg width="100%" height="100%" viewBox="0 0 129 129" version="1.1" xmlns="http://www.w3.org/2000/svg" xmlns:xlink="http://www.w3.org/1999/xlink" xml:space="preserve" xmlns:serif="http://www.serif.com/" style="fill-rule:evenodd;clip-rule:evenodd;stroke-linecap:round;stroke-linejoin:round;stroke-miterlimit:1.5;">
    <g transform="matrix(1,0,0,1,-556,-2618)">
        <g id="xcode" transform="matrix(1,0,0,1,556.165,2618.58)">
            <rect x="0" y="0" width="128" height="128"/>
            <g transform="matrix(1,0,0,1,-3.32577,-5.51492)">
                <g transform="matrix(0.983402,0,0,1.01124,-552.515,-2644.55)">
                    <path d="M639.93,2645.99C640.831,2644.22 650.136,2656.9 639.989,2672.75C639.557,2673.42 624.826,2705.14 621.232,2709.19C620.904,2709.55 612.842,2724.8 612.749,2725.91C612.47,2729.27 626.417,2736.47 627.444,2732.36C627.95,2730.34 640.169,2702.24 641.303,2699.63C652.852,2673.07 656.909,2664.95 658.387,2662C660.196,2658.38 664.862,2658.54 667.494,2658.4C667.748,2658.83 671.994,2668.44 675.83,2659.49C681.918,2645.28 683.337,2642.03 678.936,2642.52C678.733,2642.54 676.591,2644.09 674.566,2644.24C671.19,2644.5 674.077,2641.42 669.857,2640.01C656.266,2635.48 648.72,2630.21 631.745,2638.7C626.103,2641.52 623.426,2647.12 622.984,2648.05C631.007,2643.77 632.935,2643.65 639.93,2645.99Z" style="fill:none;stroke:white;stroke-width:2.01px;"/>
                </g>
                <g transform="matrix(1.11162,0,0,1.12078,-631.379,-2937.18)">
                    <path d="M657.465,2661.88C658.38,2659.35 656.42,2710.6 655.878,2713.13C654.233,2720.81 638.387,2718.18 629.953,2719.58" style="fill:none;stroke:white;stroke-width:1.79px;"/>
                </g>
                <g transform="matrix(1.11162,0,0,1.12078,-631.379,-2937.18)">
                    <path d="M613.374,2718.91C611.952,2719.17 611.939,2718.8 595.307,2719.22C582.016,2719.56 584.007,2714.25 583.718,2700.94C582.737,2655.83 583.364,2654.58 585.151,2651C585.625,2650.06 584.582,2645.86 606.298,2642.76C615.013,2641.52 615.08,2643.01 623.741,2641.57C624.294,2641.47 629.583,2640.77 632.928,2640.29" style="fill:none;stroke:white;stroke-width:1.79px;"/>
                </g>
                <g transform="matrix(0.752213,0,0,0.752213,-197.949,-1598.16)">
                    <path d="M345.724,2180.77C335.887,2194.7 317.79,2221.85 315.393,2225.44C310.953,2232.1 309.525,2234.14 309.22,2234.75" style="fill:none;stroke:white;stroke-width:2.66px;"/>
                </g>
                <g transform="matrix(0.752213,0,0,0.752213,-197.949,-1598.16)">
                    <path d="M345.724,2180.77C346.193,2180.16 349.799,2174.08 355.15,2181.79C356.437,2183.65 321.967,2232.5 321.58,2233.46" style="fill:none;stroke:white;stroke-width:2.66px;"/>
                </g>
                <g transform="matrix(0.752213,0,0,0.752213,-197.949,-1598.16)">
                    <path d="M350.58,2232.68C342.512,2233.86 303.259,2232.67 299.204,2237.74C289.644,2249.69 341.85,2240.89 345.498,2242.71" style="fill:none;stroke:white;stroke-width:2.66px;"/>
                </g>
                <g transform="matrix(0.752213,0,0,0.752213,-197.949,-1598.16)">
                    <path d="M344.234,2201.58C343.351,2199.35 356.514,2220.5 356.514,2220.5" style="fill:none;stroke:white;stroke-width:2.66px;"/>
                </g>
                <g transform="matrix(0.752213,0,0,0.752213,-197.949,-1598.16)">
                    <path d="M367.978,2238.23C373.84,2248.07 383.058,2262.15 384.661,2254.13C386.127,2246.8 382.425,2245.48 371.596,2228.45" style="fill:none;stroke:white;stroke-width:2.66px;"/>
                </g>
                <g transform="matrix(0.752213,0,0,0.752213,-197.949,-1598.16)">
                    <path d="M361.195,2211.15C361.195,2211.15 350.647,2196.15 349.412,2193.68" style="fill:none;stroke:white;stroke-width:2.66px;"/>
                </g>
                <g transform="matrix(0.752213,0,0,0.752213,-197.949,-1598.16)">
                    <path d="M344.063,2182.77C344.311,2184.93 338.318,2172.67 335.067,2175.23C331.889,2177.74 331.532,2177.09 338.155,2190.33" style="fill:none;stroke:white;stroke-width:2.66px;"/>
                </g>
                <g transform="matrix(0.752213,0,0,0.752213,-197.949,-1598.16)">
                    <path d="M373.461,2230.41C372.955,2231.42 385.694,2229.54 386.366,2233.24C387.578,2239.9 380.871,2240.77 379.945,2240.09" style="fill:none;stroke:white;stroke-width:2.66px;"/>
                </g>
                <g transform="matrix(1,0,0,1,-556.165,-2618.58)">
                    <path d="M633.687,2706.94C632.91,2707.16 635.783,2707.29 636.152,2706.55" style="fill:none;stroke:white;stroke-width:2px;"/>
                </g>
                <g transform="matrix(0.752213,0,0,0.752213,-197.949,-1598.16)">
                    <path d="M306.52,2244.21C294.304,2258.5 310.777,2252.67 311.295,2252.08C313.695,2249.38 314.014,2249.75 317.648,2244.3" style="fill:none;stroke:white;stroke-width:2.66px;"/>
                </g>
            </g>
        </g>
    </g>
</svg>
